<svg width="28" height="28" viewBox="0 0 28 28" fill="none" xmlns="http://www.w3.org/2000/svg">
<path d="M13.9835 22.4395C14.4442 22.4395 14.839 22.2805 15.168 21.9624C15.4971 21.6443 15.6725 21.244 15.6945 20.7615H12.2397C12.2617 21.244 12.4426 21.6443 12.7826 21.9624C13.1226 22.2805 13.5229 22.4395 13.9835 22.4395ZM7.73208 18.7873H20.2021V17.0764H18.886V13.161C18.886 11.8449 18.546 10.6439 17.866 9.55817C17.1861 8.47239 16.2099 7.80885 14.9377 7.56757V6.51469C14.9377 6.25147 14.8445 6.02664 14.658 5.84019C14.4716 5.65374 14.2468 5.56052 13.9835 5.56052C13.6984 5.56052 13.4626 5.65374 13.2761 5.84019C13.0897 6.02664 12.9965 6.25147 12.9965 6.51469V7.56757C11.7462 7.80885 10.7756 8.45045 10.0846 9.49236C9.39365 10.5343 9.04818 11.6913 9.04818 12.9636V17.0764H7.73208V18.7873ZM13.9835 28C12.0533 28 10.2382 27.6381 8.53819 26.9142C6.83823 26.1904 5.35213 25.1923 4.07991 23.9201C2.80768 22.6479 1.80964 21.1618 1.08578 19.4618C0.361927 17.7618 0 15.9467 0 14.0165C0 12.0642 0.361927 10.2382 1.08578 8.53819C1.80964 6.83823 2.80768 5.35762 4.07991 4.09636C5.35213 2.8351 6.83823 1.83705 8.53819 1.10223C10.2382 0.367411 12.0533 0 13.9835 0C15.9358 0 17.7618 0.367411 19.4618 1.10223C21.1618 1.83705 22.6424 2.8351 23.9036 4.09636C25.1649 5.35762 26.1629 6.83823 26.8978 8.53819C27.6326 10.2382 28 12.0642 28 14.0165C28 15.9467 27.6326 17.7618 26.8978 19.4618C26.1629 21.1618 25.1649 22.6479 23.9036 23.9201C22.6424 25.1923 21.1618 26.1904 19.4618 26.9142C17.7618 27.6381 15.9358 28 13.9835 28Z" fill="white"/>
</svg>
