<svg width="80" height="80" viewBox="0 0 80 80" fill="none" xmlns="http://www.w3.org/2000/svg">
<g clip-path="url(#clip0_344_2187)">
<path d="M62.4099 0H17.5901C7.87538 0 0 7.87538 0 17.5901V62.4099C0 72.1246 7.87538 80 17.5901 80H62.4099C72.1246 80 80 72.1246 80 62.4099V17.5901C80 7.87538 72.1246 0 62.4099 0Z" fill="#004EBC"/>
<path d="M62.2867 25.1364H62.6561V57.0625H52.9288V34.4943C52.9288 29.3228 57.1328 25.1364 62.2867 25.1364Z" fill="white"/>
<path d="M15.0572 28.7072H15.409C20.387 28.7072 24.4151 32.7353 24.4151 37.7133V57.0625H15.0572V28.7072Z" fill="white"/>
<path d="M15.0572 25.9982C15.0572 25.9982 32.19 25.1539 34.6702 57.0624H40.299C40.299 57.0624 45.1539 18.6104 62.6385 21.5303C62.6385 21.5303 45.6816 12.9639 37.7836 35.321C37.7836 35.321 30.9938 18.628 15.0572 25.9982Z" fill="white"/>
</g>
<defs>
<clipPath id="clip0_344_2187">
<rect width="80" height="80" fill="white"/>
</clipPath>
</defs>
</svg>
