<svg width="24" height="24" viewBox="0 0 24 24" fill="none" xmlns="http://www.w3.org/2000/svg">
<path d="M20.7924 4H3.20759C1.98837 4 1 4.92091 1 6.05691V17.9431C1 19.0791 1.98837 20 3.20759 20H20.7924C22.0116 20 23 19.0791 23 17.9431V6.05691C23 4.92091 22.0116 4 20.7924 4Z" fill="#E0E2E9"/>
<path d="M21.4272 5.95166H2.67041V18.684H21.4272V5.95166Z" fill="white"/>
<path d="M16.7324 9C16.2103 9 15.7571 9.39342 15.6552 9.94296C15.2884 11.9205 13.791 13.4005 12.0005 13.4005C10.21 13.4005 8.7126 11.9205 8.34577 9.94296C8.24387 9.39342 7.79067 9 7.26857 9H2V19H22V9H16.7324Z" fill="#E0E2E9"/>
</svg>
