<svg width="25" height="24" viewBox="0 0 25 24" fill="none" xmlns="http://www.w3.org/2000/svg">
<path d="M10.3194 21.4589L9.84582 18.4771C9.54749 18.3683 9.23021 18.2168 8.89874 18.0275C8.56726 17.8382 8.27367 17.6394 8.02269 17.4359L5.22881 18.7138L3.02686 14.8327L5.58397 12.9632C5.55082 12.8212 5.53188 12.6603 5.52241 12.4757C5.51293 12.2911 5.5082 12.1302 5.5082 11.9882C5.5082 11.8462 5.5082 11.6853 5.52241 11.5007C5.53661 11.3161 5.55082 11.1552 5.58397 11.0132L3.02686 9.15309L5.22881 5.27201L8.02269 6.54992C8.27367 6.3464 8.56726 6.14762 8.89874 5.9583C9.23021 5.76898 9.54749 5.62699 9.84582 5.53232L10.3194 2.52686H14.6759L15.1495 5.50866C15.4478 5.61752 15.7698 5.76424 16.1107 5.94883C16.4517 6.13342 16.7405 6.33221 16.9773 6.55466L19.7712 5.27674L21.9731 9.15782L19.416 10.98C19.4492 11.1362 19.4681 11.3066 19.4776 11.4912C19.4871 11.6758 19.4918 11.8414 19.4918 12.0024C19.4918 12.1633 19.4918 12.3242 19.4776 12.4993C19.4634 12.6745 19.4492 12.8401 19.416 12.9963L21.9731 14.8422L19.7712 18.7233L16.9773 17.4453C16.7263 17.6489 16.4375 17.8524 16.1107 18.0512C15.784 18.25 15.4667 18.3967 15.1495 18.4913L14.6759 21.4731H10.3194V21.4589ZM12.4976 15.0694C13.35 15.0694 14.0745 14.7712 14.6759 14.1701C15.2773 13.569 15.5756 12.8448 15.5756 11.9929C15.5756 11.141 15.2773 10.4168 14.6759 9.81571C14.0745 9.21462 13.35 8.91644 12.4976 8.91644C11.6453 8.91644 10.9207 9.21462 10.3194 9.81571C9.71796 10.4168 9.41963 11.141 9.41963 11.9929C9.41963 12.8448 9.71796 13.569 10.3194 14.1701C10.9207 14.7712 11.6453 15.0694 12.4976 15.0694Z" fill="#E0E2E9"/>
</svg>
