<svg width="25" height="24" viewBox="0 0 25 24" fill="none" xmlns="http://www.w3.org/2000/svg">
<path d="M15.353 2H10.0374C9.15473 2 8.60346 2.75116 9.04479 3.35209L10.2125 4.94265H15.1779L16.3457 3.35209C16.787 2.75116 16.2357 2 15.353 2Z" fill="#F54359"/>
<path d="M20.3843 14.2396L20.3812 14.2341C20.2398 13.967 20.0765 13.7134 19.8927 13.4766L15.2226 6.22644H9.77818L5.12061 13.4575C4.41935 14.3557 4 15.49 4 16.7236C4 19.6377 6.33389 21.9993 9.21198 21.9993H15.7872C18.6661 21.9993 20.9992 19.6369 20.9992 16.7236C20.9992 15.8246 20.7762 14.9797 20.3835 14.2388L20.3843 14.2396Z" fill="#F54359"/>
<path d="M13.4674 18.5655C12.5418 18.7672 11.3749 18.5333 10.5546 17.8419C9.57697 17.0219 9.51348 15.4257 9.60871 14.2651C9.68236 13.2215 10.2817 11.8913 11.4181 11.2526C12.2802 10.7526 13.6997 10.8799 14.3943 11.5289C14.8361 11.9222 15.5307 13.0943 14.5936 13.3282C14.2051 13.4349 13.9841 13.147 13.7835 12.8912C13.1004 12.0713 11.8802 12.3373 11.46 13.2537C11.0181 14.2112 10.881 15.6596 11.4701 16.5104C11.9323 17.1813 12.8376 17.3831 13.5524 16.9782C13.7835 16.8613 14.0679 16.5207 14.3943 16.4243C14.6469 16.3395 15.0037 16.4346 15.151 16.743C15.5294 17.5514 14.299 18.3611 13.4686 18.5629L13.4674 18.5655Z" fill="white"/>
<path d="M12.7892 18.7661C11.9563 18.7661 11.1005 18.4705 10.472 17.941C9.66956 17.2688 9.33562 16.0286 9.48037 14.255C9.55529 13.1883 10.1647 11.8092 11.3545 11.1409C12.261 10.6153 13.7504 10.7553 14.478 11.4352C14.7789 11.7038 15.2919 12.43 15.1636 12.9646C15.1217 13.1369 14.9947 13.3605 14.6227 13.4543C14.1593 13.5815 13.8863 13.2332 13.6882 12.9788C13.4089 12.6433 13.0114 12.4852 12.595 12.5418C12.1493 12.6022 11.7671 12.8888 11.5741 13.3091C11.1539 14.219 11.0116 15.6263 11.5741 16.4386C12.002 17.0593 12.8261 17.2444 13.4901 16.8678C13.5739 16.8254 13.6692 16.7483 13.7695 16.6661C13.9409 16.526 14.1364 16.3679 14.3586 16.3023C14.6621 16.1995 15.0874 16.3152 15.2652 16.6892C15.3795 16.9334 15.3744 17.2007 15.2512 17.4616C14.9732 18.0502 14.1402 18.5335 13.4977 18.6903H13.4952C13.2667 18.7404 13.0292 18.7648 12.7905 18.7648L12.7892 18.7661ZM12.6813 11.0728C12.2483 11.0728 11.8192 11.1679 11.4789 11.3645C10.3704 11.9879 9.80415 13.2757 9.73304 14.2743C9.59719 15.9361 9.90827 17.1352 10.6333 17.7431C11.3824 18.3754 12.4832 18.6479 13.4368 18.4409C14.0298 18.2957 14.784 17.8497 15.0189 17.3511C15.1103 17.157 15.1154 16.9771 15.0328 16.7997C14.9173 16.5581 14.6303 16.4797 14.431 16.5478C14.2532 16.6005 14.0793 16.7419 13.9256 16.8666C13.8139 16.9565 13.7098 17.0426 13.6057 17.094C12.8324 17.531 11.8662 17.3138 11.3621 16.5838C10.7387 15.6829 10.8796 14.1984 11.3405 13.1985C11.5703 12.6986 12.0249 12.3567 12.5582 12.2848C13.0635 12.2166 13.5435 12.4069 13.8774 12.8078C14.1072 13.1009 14.2735 13.2808 14.5567 13.2037C14.7624 13.1523 14.8779 13.0546 14.9147 12.9029C15.0049 12.5289 14.6214 11.9069 14.3066 11.6254C13.9206 11.2643 13.2959 11.0715 12.6788 11.0715L12.6813 11.0728Z" fill="white"/>
</svg>
