<svg width="25" height="24" viewBox="0 0 25 24" fill="none" xmlns="http://www.w3.org/2000/svg">
<path d="M21.2924 4H3.70759C2.48837 4 1.5 4.92091 1.5 6.05691V17.9431C1.5 19.0791 2.48837 20 3.70759 20H21.2924C22.5116 20 23.5 19.0791 23.5 17.9431V6.05691C23.5 4.92091 22.5116 4 21.2924 4Z" fill="#F54359"/>
<path d="M21.9272 5.95166H3.17041V18.684H21.9272V5.95166Z" fill="white"/>
<path d="M17.2324 9C16.7103 9 16.2571 9.39342 16.1552 9.94296C15.7884 11.9205 14.291 13.4005 12.5005 13.4005C10.71 13.4005 9.2126 11.9205 8.84577 9.94296C8.74387 9.39342 8.29067 9 7.76857 9H2.5V19H22.5V9H17.2324Z" fill="#F54359"/>
</svg>
