<svg width="32" height="32" viewBox="0 0 32 32" fill="none" xmlns="http://www.w3.org/2000/svg">
<circle cx="16" cy="16" r="16" fill="#F3F4F8"/>
<path d="M22.3709 9.6394C21.9765 9.24501 21.3394 9.24501 20.9451 9.6394L16 14.5743L11.055 9.62929C10.6606 9.2349 10.0236 9.2349 9.62916 9.62929C9.23478 10.0237 9.23478 10.6608 9.62916 11.0551L14.5742 16.0002L9.62916 20.9452C9.23478 21.3396 9.23478 21.9767 9.62916 22.371C10.0236 22.7654 10.6606 22.7654 11.055 22.371L16 17.426L20.9451 22.371C21.3394 22.7654 21.9765 22.7654 22.3709 22.371C22.7653 21.9767 22.7653 21.3396 22.3709 20.9452L17.4259 16.0002L22.3709 11.0551C22.7552 10.6709 22.7552 10.0237 22.3709 9.6394Z" fill="#5B5D6B"/>
</svg>
