<svg width="16" height="16" viewBox="0 0 16 16" fill="none" xmlns="http://www.w3.org/2000/svg">
<circle cx="8" cy="8" r="8" fill="#E0E2E9"/>
<path d="M10.8669 5.13766C10.6894 4.96018 10.4027 4.96018 10.2253 5.13766L8 7.35836L5.77474 5.13311C5.59727 4.95563 5.31058 4.95563 5.13311 5.13311C4.95563 5.31058 4.95563 5.59727 5.13311 5.77474L7.35836 8L5.13311 10.2253C4.95563 10.4027 4.95563 10.6894 5.13311 10.8669C5.31058 11.0444 5.59727 11.0444 5.77474 10.8669L8 8.64164L10.2253 10.8669C10.4027 11.0444 10.6894 11.0444 10.8669 10.8669C11.0444 10.6894 11.0444 10.4027 10.8669 10.2253L8.64164 8L10.8669 5.77474C11.0398 5.60182 11.0398 5.31058 10.8669 5.13766Z" fill="white"/>
</svg>
