<svg width="32" height="32" viewBox="0 0 32 32" fill="none" xmlns="http://www.w3.org/2000/svg">
<path d="M5.43881 12.0168C5.61032 12.0168 5.76353 11.9661 5.87308 11.8522C5.98175 11.7392 6.02763 11.5846 6.02763 11.4162V8.22588C6.02763 7.47982 6.22249 6.93681 6.57965 6.57965C6.93681 6.22249 7.47982 6.02763 8.22588 6.02763H11.428C11.5964 6.02763 11.7511 5.98175 11.8641 5.87308C11.978 5.76353 12.0287 5.61032 12.0287 5.43881C12.0287 5.26731 11.978 5.1141 11.8641 5.00454C11.7511 4.89588 11.5964 4.85 11.428 4.85H8.20216C7.12797 4.85 6.28358 5.12939 5.70826 5.69996C5.13272 6.27075 4.85 7.10954 4.85 8.17844V11.4162C4.85 11.5846 4.89588 11.7392 5.00454 11.8522C5.1141 11.9661 5.26731 12.0168 5.43881 12.0168ZM26.5612 12.0168C26.7327 12.0168 26.8859 11.9661 26.9955 11.8522C27.1041 11.7392 27.15 11.5846 27.15 11.4162V8.17844C27.15 7.1214 26.8703 6.28304 26.2983 5.70944C25.7262 5.13577 24.8847 4.85 23.8097 4.85H20.572C20.4036 4.85 20.2489 4.89588 20.1359 5.00454C20.022 5.1141 19.9713 5.26731 19.9713 5.43881C19.9713 5.61032 20.022 5.76353 20.1359 5.87308C20.2489 5.98175 20.4036 6.02763 20.572 6.02763H23.7741C24.4953 6.02763 25.0394 6.22192 25.4034 6.58044C25.7669 6.93857 25.9724 7.48208 25.9724 8.22588V11.4162C25.9724 11.5846 26.0182 11.7392 26.1269 11.8522C26.2365 11.9661 26.3897 12.0168 26.5612 12.0168ZM15.0334 17.7451H15.1402C15.6431 17.7451 16.0497 17.6209 16.3296 17.3428C16.6096 17.0645 16.7371 16.6576 16.7371 16.1482V12.5073C16.7371 12.3495 16.6994 12.2029 16.5938 12.0973C16.4882 11.9917 16.3417 11.954 16.1838 11.954C16.0303 11.954 15.8854 11.9925 15.7795 12.0961C15.6729 12.2004 15.6306 12.3461 15.6306 12.5073V16.255C15.6306 16.4815 15.4482 16.6268 15.2588 16.6268H14.8555C14.5473 16.6268 14.3142 16.86 14.3142 17.1682C14.3142 17.3441 14.3711 17.501 14.5111 17.6077C14.6428 17.708 14.8244 17.7451 15.0334 17.7451ZM11.7364 15.0174C11.9464 15.0174 12.1325 14.9502 12.2664 14.8163C12.4004 14.6824 12.4675 14.4963 12.4675 14.2863V12.7089C12.4675 12.4942 12.4012 12.3051 12.2672 12.1692C12.1331 12.0331 11.9465 11.9659 11.7364 11.9659C11.5287 11.9659 11.3454 12.0384 11.2144 12.1753C11.084 12.3115 11.0171 12.4991 11.0171 12.7089V14.2863C11.0171 14.4962 11.0842 14.6818 11.2159 14.8155C11.3478 14.9494 11.5309 15.0174 11.7364 15.0174ZM20.1569 15.0174C20.3623 15.0174 20.5454 14.9494 20.6773 14.8155C20.809 14.6818 20.8761 14.4962 20.8761 14.2863V12.7089C20.8761 12.4991 20.8092 12.3115 20.6788 12.1753C20.5478 12.0384 20.3646 11.9659 20.1569 11.9659C19.947 11.9659 19.7584 12.0329 19.6217 12.1677C19.4846 12.3028 19.4139 12.492 19.4139 12.7089V14.2863C19.4139 14.4985 19.4854 14.6847 19.6224 14.8178C19.7589 14.9504 19.9471 15.0174 20.1569 15.0174ZM15.8992 21.3743C17.2428 21.3743 18.5832 20.8137 19.5706 19.8285C19.6694 19.7437 19.7613 19.5982 19.7613 19.3978C19.7613 19.0719 19.5102 18.8565 19.2199 18.8565C19.1394 18.8565 19.0565 18.8677 18.9687 18.9096C18.884 18.9499 18.8044 19.014 18.7206 19.1039C18.0351 19.7884 16.9705 20.2796 15.8992 20.2796C14.8288 20.2796 13.7757 19.7891 13.0775 19.1036C13.0004 19.0205 12.9247 18.9571 12.8412 18.9153C12.7542 18.8718 12.6681 18.8565 12.5784 18.8565C12.2882 18.8565 12.0371 19.0719 12.0371 19.3978C12.0371 19.5932 12.135 19.7355 12.2223 19.8231C13.1885 20.8255 14.5559 21.3743 15.8992 21.3743ZM8.20216 27.15H11.428C11.5964 27.15 11.7511 27.1041 11.8641 26.9955C11.978 26.8859 12.0287 26.7327 12.0287 26.5612C12.0287 26.3897 11.978 26.2365 11.8641 26.1269C11.7511 26.0182 11.5964 25.9724 11.428 25.9724H8.22588C7.47983 25.9724 6.93696 25.7775 6.57985 25.4191C6.22265 25.0605 6.02763 24.5145 6.02763 23.7623V20.5838C6.02763 20.4156 5.98187 20.2593 5.87502 20.1439C5.76658 20.0268 5.61331 19.9713 5.43881 19.9713C5.26432 19.9713 5.11105 20.0268 5.0026 20.1439C4.89576 20.2593 4.85 20.4156 4.85 20.5838V23.8097C4.85 24.8843 5.1326 25.7261 5.70811 26.2984C6.28348 26.8706 7.12797 27.15 8.20216 27.15ZM20.572 27.15H23.8097C24.8851 27.15 25.7266 26.861 26.2986 26.2843C26.8703 25.7079 27.15 24.8667 27.15 23.8097V20.5838C27.15 20.4156 27.1042 20.2593 26.9974 20.1439C26.889 20.0268 26.7357 19.9713 26.5612 19.9713C26.3867 19.9713 26.2334 20.0268 26.125 20.1439C26.0181 20.2593 25.9724 20.4156 25.9724 20.5838V23.7623C25.9724 24.5123 25.7667 25.0588 25.4032 25.4183C25.0393 25.7781 24.4953 25.9724 23.7741 25.9724H20.572C20.4036 25.9724 20.2489 26.0182 20.1359 26.1269C20.022 26.2365 19.9713 26.3897 19.9713 26.5612C19.9713 26.7327 20.022 26.8859 20.1359 26.9955C20.2489 27.1041 20.4036 27.15 20.572 27.15Z" fill="#587FFC" stroke="#587FFC" stroke-width="0.3"/>
</svg>
