<svg width="19" height="19" viewBox="0 0 19 19" fill="none" xmlns="http://www.w3.org/2000/svg">
<circle cx="9.5" cy="9.5" r="9.5" fill="#A7CBF5"/>
<path d="M8.74316 16V14.6465H10.0879V16H8.74316ZM9.98242 12.1855H8.84863V11.8428C8.84863 11.4561 8.89551 11.1191 8.98926 10.832C9.08301 10.5449 9.20605 10.293 9.3584 10.0762C9.5166 9.85938 9.69238 9.66602 9.88574 9.49609C10.085 9.32617 10.2871 9.16504 10.4922 9.0127C10.7031 8.85449 10.9053 8.69629 11.0986 8.53809C11.2979 8.37988 11.4736 8.2041 11.626 8.01074C11.7842 7.81738 11.9102 7.59766 12.0039 7.35156C12.0977 7.10547 12.1445 6.81543 12.1445 6.48145V6.31445C12.1445 6.0332 12.0918 5.77246 11.9863 5.53223C11.8809 5.28613 11.7344 5.07227 11.5469 4.89062C11.3652 4.70898 11.1514 4.56543 10.9053 4.45996C10.665 4.35449 10.4043 4.30176 10.123 4.30176H9.87695C9.5957 4.30176 9.33203 4.35449 9.08594 4.45996C8.8457 4.56543 8.63184 4.70898 8.44434 4.89062C8.2627 5.07227 8.11914 5.28613 8.01367 5.53223C7.9082 5.77246 7.85547 6.0332 7.85547 6.31445V6.82422L6.72168 6.63965V6.31445C6.72168 5.88672 6.80078 5.48535 6.95898 5.11035C7.12305 4.73535 7.3457 4.40723 7.62695 4.12598C7.9082 3.84473 8.23633 3.625 8.61133 3.4668C8.99219 3.30273 9.39648 3.2207 9.82422 3.2207H10.1846C10.6123 3.2207 11.0137 3.30273 11.3887 3.4668C11.7637 3.625 12.0918 3.84473 12.373 4.12598C12.6543 4.40723 12.874 4.73535 13.0322 5.11035C13.1963 5.48535 13.2783 5.88672 13.2783 6.31445V6.48145C13.2783 6.88574 13.2314 7.24023 13.1377 7.54492C13.0439 7.84961 12.918 8.11914 12.7598 8.35352C12.6074 8.58789 12.4316 8.7959 12.2324 8.97754C12.0391 9.15918 11.8369 9.3291 11.626 9.4873C11.4209 9.64551 11.2188 9.80078 11.0195 9.95312C10.8262 10.1055 10.6504 10.2725 10.4922 10.4541C10.3398 10.6357 10.2168 10.8379 10.123 11.0605C10.0293 11.2832 9.98242 11.5439 9.98242 11.8428V12.1855Z" fill="white"/>
</svg>
