<svg width="31" height="31" viewBox="0 0 31 31" fill="none" xmlns="http://www.w3.org/2000/svg">
<circle cx="15.5" cy="15.5" r="15.5" fill="#AFABAB"/>
<mask id="path-2-outside-1_30_64101" maskUnits="userSpaceOnUse" x="14" y="10" width="3" height="12" fill="black">
<rect fill="white" x="14" y="10" width="3" height="12"/>
<path d="M15.7461 18.0332H15.2539L14.8779 11.1973H16.1221L15.7461 18.0332ZM14.9736 21V19.9473H16.0264V21H14.9736Z"/>
</mask>
<path d="M15.7461 18.0332H15.2539L14.8779 11.1973H16.1221L15.7461 18.0332ZM14.9736 21V19.9473H16.0264V21H14.9736Z" fill="black"/>
<path d="M15.7461 18.0332V18.5332H16.2193L16.2453 18.0607L15.7461 18.0332ZM15.2539 18.0332L14.7547 18.0607L14.7807 18.5332H15.2539V18.0332ZM14.8779 11.1973V10.6973H14.3497L14.3787 11.2247L14.8779 11.1973ZM16.1221 11.1973L16.6213 11.2247L16.6503 10.6973H16.1221V11.1973ZM14.9736 21H14.4736V21.5H14.9736V21ZM14.9736 19.9473V19.4473H14.4736V19.9473H14.9736ZM16.0264 19.9473H16.5264V19.4473H16.0264V19.9473ZM16.0264 21V21.5H16.5264V21H16.0264ZM15.7461 17.5332H15.2539V18.5332H15.7461V17.5332ZM15.7532 18.0057L15.3772 11.1698L14.3787 11.2247L14.7547 18.0607L15.7532 18.0057ZM14.8779 11.6973H16.1221V10.6973H14.8779V11.6973ZM15.6228 11.1698L15.2468 18.0057L16.2453 18.0607L16.6213 11.2247L15.6228 11.1698ZM15.4736 21V19.9473H14.4736V21H15.4736ZM14.9736 20.4473H16.0264V19.4473H14.9736V20.4473ZM15.5264 19.9473V21H16.5264V19.9473H15.5264ZM16.0264 20.5H14.9736V21.5H16.0264V20.5Z" fill="black" mask="url(#path-2-outside-1_30_64101)"/>
</svg>
