<svg width="24" height="23" viewBox="0 0 24 23" fill="none" xmlns="http://www.w3.org/2000/svg">
<path d="M12.2494 13.4318C10.0081 13.4318 8.19115 11.6239 8.19115 9.39364C8.19115 7.16342 10.0081 5.35547 12.2494 5.35547C14.4907 5.35547 16.3076 7.16342 16.3076 9.39364C16.3076 11.6239 14.4907 13.4318 12.2494 13.4318Z" stroke="#777986" stroke-miterlimit="10"/>
<path d="M3.02589 17.341C5.64924 14.987 8.87201 13.4335 12.2556 13.4335C15.6392 13.4335 19.1303 15.1058 21.4609 17.341C19.5684 20.5123 16.2108 22.4172 12.2557 22.4172C8.30068 22.4172 4.94304 20.3999 3.02589 17.341Z" stroke="#777986" stroke-miterlimit="10"/>
<path d="M12.2503 22.4165C6.22112 22.4165 1.33354 17.5287 1.33354 11.4993C1.33354 5.46985 6.22112 0.582031 12.2503 0.582031C18.2794 0.582031 23.167 5.46985 23.167 11.4993C23.167 17.5287 18.2794 22.4165 12.2503 22.4165Z" stroke="#777986" stroke-miterlimit="10"/>
</svg>
