<svg width="14" height="14" viewBox="0 0 14 14" fill="none" xmlns="http://www.w3.org/2000/svg">
<path d="M6.55 10.3335H7.55V6.3335H6.55V10.3335ZM7 5.10016C7.15556 5.10016 7.28611 5.05016 7.39167 4.95016C7.49722 4.85016 7.55 4.72239 7.55 4.56683C7.55 4.41127 7.49722 4.27794 7.39167 4.16683C7.28611 4.05572 7.15556 4.00016 7 4.00016C6.84445 4.00016 6.71389 4.05572 6.60834 4.16683C6.50278 4.27794 6.45 4.41127 6.45 4.56683C6.45 4.72239 6.50278 4.85016 6.60834 4.95016C6.71389 5.05016 6.84445 5.10016 7 5.10016ZM7 13.6668C6.08889 13.6668 5.22778 13.4918 4.41667 13.1418C3.60556 12.7918 2.89722 12.3141 2.29167 11.7085C1.68611 11.1029 1.20834 10.3946 0.858336 9.5835C0.508336 8.77239 0.333336 7.90572 0.333336 6.9835C0.333336 6.07239 0.508336 5.21127 0.858336 4.40016C1.20834 3.58905 1.68611 2.8835 2.29167 2.2835C2.89722 1.6835 3.60556 1.2085 4.41667 0.858496C5.22778 0.508496 6.09445 0.333496 7.01667 0.333496C7.92778 0.333496 8.78889 0.508496 9.6 0.858496C10.4111 1.2085 11.1167 1.6835 11.7167 2.2835C12.3167 2.8835 12.7917 3.58905 13.1417 4.40016C13.4917 5.21127 13.6667 6.07794 13.6667 7.00016C13.6667 7.91127 13.4917 8.77239 13.1417 9.5835C12.7917 10.3946 12.3167 11.1029 11.7167 11.7085C11.1167 12.3141 10.4111 12.7918 9.6 13.1418C8.78889 13.4918 7.92222 13.6668 7 13.6668Z" fill="#587FFC"/>
</svg>
