<svg width="12" height="12" viewBox="0 0 12 12" fill="none" xmlns="http://www.w3.org/2000/svg">
<path d="M9.78259 9.96715H3.37228C3.14146 9.96715 2.94132 9.88241 2.77185 9.71294C2.60239 9.54347 2.51765 9.34333 2.51765 9.11252V1.2829C2.51765 1.05291 2.60239 0.853474 2.77185 0.684599C2.94132 0.515716 3.14146 0.431274 3.37228 0.431274H7.68939L10.6342 3.37611V9.11252C10.6342 9.34333 10.5493 9.54347 10.3793 9.71294C10.2094 9.88241 10.0105 9.96715 9.78259 9.96715ZM7.25759 3.7579V1.2829H3.37228V9.11252H9.78259V3.7579H7.25759ZM1.76765 11.5688C1.53766 11.5688 1.33822 11.4843 1.16934 11.3154C1.00046 11.1466 0.916016 10.9471 0.916016 10.7171V3.00655H1.76765V10.7171H8.01358V11.5688H1.76765Z" fill="#404252"/>
</svg>
