<svg width="24" height="24" viewBox="0 0 24 24" fill="none" xmlns="http://www.w3.org/2000/svg">
<path d="M12.1 17.825C12.3667 17.825 12.5917 17.7333 12.775 17.55C12.9583 17.3667 13.05 17.1417 13.05 16.875C13.05 16.6083 12.9583 16.3833 12.775 16.2C12.5917 16.0167 12.3667 15.925 12.1 15.925C11.8333 15.925 11.6083 16.0167 11.425 16.2C11.2417 16.3833 11.15 16.6083 11.15 16.875C11.15 17.1417 11.2417 17.3667 11.425 17.55C11.6083 17.7333 11.8333 17.825 12.1 17.825ZM11.225 14.175H12.7C12.7 13.7417 12.7542 13.3458 12.8625 12.9875C12.9708 12.6292 13.3083 12.2167 13.875 11.75C14.3917 11.3167 14.7583 10.8917 14.975 10.475C15.1917 10.0583 15.3 9.6 15.3 9.1C15.3 8.21667 15.0125 7.50833 14.4375 6.975C13.8625 6.44167 13.1 6.175 12.15 6.175C11.3333 6.175 10.6125 6.37917 9.9875 6.7875C9.3625 7.19583 8.90833 7.75833 8.625 8.475L9.95 8.975C10.1333 8.50833 10.4083 8.14583 10.775 7.8875C11.1417 7.62917 11.575 7.5 12.075 7.5C12.6417 7.5 13.1 7.65417 13.45 7.9625C13.8 8.27083 13.975 8.66667 13.975 9.15C13.975 9.51667 13.8667 9.8625 13.65 10.1875C13.4333 10.5125 13.1167 10.85 12.7 11.2C12.2 11.6333 11.8292 12.0625 11.5875 12.4875C11.3458 12.9125 11.225 13.475 11.225 14.175ZM12 22C10.6333 22 9.34167 21.7375 8.125 21.2125C6.90833 20.6875 5.84583 19.9708 4.9375 19.0625C4.02917 18.1542 3.3125 17.0917 2.7875 15.875C2.2625 14.6583 2 13.3667 2 12C2 10.6167 2.2625 9.31667 2.7875 8.1C3.3125 6.88333 4.02917 5.825 4.9375 4.925C5.84583 4.025 6.90833 3.3125 8.125 2.7875C9.34167 2.2625 10.6333 2 12 2C13.3833 2 14.6833 2.2625 15.9 2.7875C17.1167 3.3125 18.175 4.025 19.075 4.925C19.975 5.825 20.6875 6.88333 21.2125 8.1C21.7375 9.31667 22 10.6167 22 12C22 13.3667 21.7375 14.6583 21.2125 15.875C20.6875 17.0917 19.975 18.1542 19.075 19.0625C18.175 19.9708 17.1167 20.6875 15.9 21.2125C14.6833 21.7375 13.3833 22 12 22Z" fill="#F3F4F8"/>
<path d="M11.167 14.3439C11.1782 13.5709 11.2708 13.0073 11.4446 12.6531C11.6185 12.2988 11.9466 11.9124 12.4289 11.4937C12.9 11.0857 13.2618 10.7073 13.5142 10.3584C13.7666 10.0095 13.8928 9.6365 13.8928 9.2393C13.8928 8.75622 13.7245 8.35365 13.388 8.03159C13.0515 7.70954 12.5804 7.54851 11.9746 7.54851C11.3914 7.54851 10.9427 7.70686 10.6286 8.02354C10.3145 8.34023 10.0846 8.67034 9.93874 9.01386L8.52539 8.41806C8.77217 7.78469 9.19 7.24524 9.7789 6.79973C10.3678 6.35422 11.0997 6.13147 11.9746 6.13147C13.0963 6.13147 13.9601 6.42937 14.5658 7.02517C15.1715 7.62097 15.4744 8.33755 15.4744 9.17489C15.4744 9.69018 15.3594 10.1572 15.1294 10.5758C14.8995 10.9945 14.5321 11.4346 14.0274 11.8963C13.4777 12.4008 13.1468 12.7873 13.0347 13.0557C12.9225 13.324 12.8608 13.7534 12.8496 14.3439H11.167Z" fill="#F54359"/>
<circle cx="12.1039" cy="16.8746" r="0.96814" fill="#F54359"/>
</svg>
