<svg width="20" height="20" viewBox="0 0 20 20" fill="none" xmlns="http://www.w3.org/2000/svg">
<circle cx="10" cy="10" r="10" fill="#F54359"/>
<path d="M4.24242 7.91661L14.4792 7.91661L12.6134 9.8223L13.0874 10.303L15.7576 7.57571L13.0874 4.84843L12.6168 5.32911L14.4792 7.2348L4.24242 7.2348L4.24242 7.91661Z" fill="white"/>
<path fill-rule="evenodd" clip-rule="evenodd" d="M3.93937 8.21989L3.93937 6.93201L13.7593 6.93201L12.1929 5.32917L13.0874 4.41552L16.1816 7.57595L13.0881 10.7356L12.1886 9.82329L13.7584 8.21989L3.93937 8.21989ZM14.4792 7.91686L4.2424 7.91686L4.2424 7.23504L14.4792 7.23504L12.6168 5.32936L13.0874 4.84867L15.7576 7.57595L13.0874 10.3032L12.6134 9.82254L14.4792 7.91686Z" fill="white"/>
<path d="M15.7576 12.6893L5.52078 12.6893L7.38657 10.7837L6.91261 10.303L4.24243 13.0303L6.91261 15.7575L7.38323 15.2768L5.52078 13.3712L15.7576 13.3712L15.7576 12.6893Z" fill="white"/>
<path fill-rule="evenodd" clip-rule="evenodd" d="M16.0606 12.3861L16.0606 13.6739L6.24067 13.6739L7.80715 15.2768L6.91263 16.1904L3.81836 13.03L6.91186 9.87036L7.81141 10.7827L6.24157 12.3861L16.0606 12.3861ZM5.52079 12.6891L15.7576 12.6891L15.7576 13.3709L5.52079 13.3709L7.38324 15.2766L6.91263 15.7573L4.24245 13.03L6.91263 10.3027L7.38658 10.7834L5.52079 12.6891Z" fill="white"/>
</svg>
