<svg width="42" height="42" viewBox="0 0 42 42" fill="none" xmlns="http://www.w3.org/2000/svg">
<circle cx="21" cy="21" r="21" fill="#A2A2A2"/>
<path d="M13.9931 12.0001C14.3955 12.0001 14.7261 12.3692 14.7261 12.8307L14.7261 27.631C14.7261 28.0925 14.4003 28.4617 13.9931 28.4617C13.586 28.4617 13.2602 28.0925 13.2602 27.631L13.2602 12.8307C13.2602 12.3692 13.586 12.0001 13.9931 12.0001Z" fill="white"/>
<path d="M8.00026 22.1256L9.07331 20.9909L13.993 26.9902L18.9128 20.9909L19.9858 22.1256L13.993 29.428L8.00026 22.1256Z" fill="white"/>
<path d="M29.0073 29.4279C28.605 29.4279 28.2744 29.0587 28.2744 28.5972V13.797C28.2744 13.3355 28.6002 12.9663 29.0073 12.9663C29.4145 12.9663 29.7403 13.3355 29.7403 13.797V28.5972C29.7403 29.0587 29.4145 29.4279 29.0073 29.4279Z" fill="white"/>
<path d="M35.0002 19.3024L33.9272 20.4371L29.0074 14.4378L24.0877 20.4371L23.0146 19.3024L29.0074 12L35.0002 19.3024Z" fill="white"/>
</svg>
