<svg width="25" height="24" viewBox="0 0 25 24" fill="none" xmlns="http://www.w3.org/2000/svg">
<path d="M3.23134 21.0029C3.08801 21.0029 2.96338 20.969 2.85744 20.9012C2.75151 20.8333 2.66911 20.744 2.61025 20.633C2.54389 20.5245 2.50739 20.407 2.50077 20.2804C2.49413 20.1538 2.53062 20.0248 2.61025 19.8933L11.8789 3.37273C11.9585 3.24122 12.0501 3.1467 12.1536 3.08917C12.2571 3.03164 12.3726 3.00287 12.5 3.00287C12.6274 3.00287 12.7429 3.03164 12.8464 3.08917C12.9499 3.1467 13.0415 3.24122 13.1211 3.37273L22.3898 19.8933C22.4694 20.0248 22.5059 20.1538 22.4992 20.2804C22.4926 20.407 22.4561 20.5245 22.3898 20.633C22.3309 20.744 22.2485 20.8333 22.1426 20.9012C22.0366 20.969 21.912 21.0029 21.7687 21.0029H3.23134ZM12.5997 18.1179C12.804 18.1179 12.9738 18.0466 13.1092 17.904C13.2445 17.7614 13.3122 17.5847 13.3122 17.3739C13.3122 17.1631 13.2431 16.9878 13.105 16.8481C12.9668 16.7083 12.7956 16.6385 12.5914 16.6385C12.3871 16.6385 12.2173 16.7098 12.082 16.8524C11.9466 16.995 11.8789 17.1717 11.8789 17.3825C11.8789 17.5933 11.948 17.7686 12.0861 17.9083C12.2243 18.0481 12.3955 18.1179 12.5997 18.1179ZM12.5997 15.381C12.804 15.381 12.9738 15.3101 13.1092 15.1683C13.2445 15.0265 13.3122 14.8508 13.3122 14.6412V10.5974C13.3122 10.3878 13.2431 10.2121 13.105 10.0703C12.9668 9.92855 12.7956 9.85766 12.5914 9.85766C12.3871 9.85766 12.2173 9.92855 12.082 10.0703C11.9466 10.2121 11.8789 10.3878 11.8789 10.5974V14.6412C11.8789 14.8508 11.948 15.0265 12.0861 15.1683C12.2243 15.3101 12.3955 15.381 12.5997 15.381Z" fill="#FFD12D"/>
<rect x="11.8838" y="9.84082" width="1.44897" height="5.57751" fill="#101223"/>
<circle cx="12.6083" cy="17.3831" r="0.746826" fill="#101223"/>
</svg>
