<svg width="30" height="30" viewBox="0 0 30 30" fill="none" xmlns="http://www.w3.org/2000/svg">
<path d="M23 7L7 23" stroke="white" stroke-linecap="round" stroke-linejoin="round"/>
<path d="M20.1535 10.0664C22.0222 11.3759 24 13 25 14.9985C24 17 19.1314 21.6652 15 21.6652C13.2779 21.6652 11.6184 21.0843 10.1168 20.1661" stroke="white" stroke-linecap="round" stroke-linejoin="round"/>
<path d="M15 8.33203C10.5462 8.33203 6.5 12.498 5 14.9987C5.35389 15.559 5.75522 16.12 6.19778 16.6654" stroke="white" stroke-linecap="round" stroke-linejoin="round"/>
<path d="M15.2222 17.4444C16.4496 17.4444 17.4444 16.4496 17.4444 15.2222C17.4444 13.9949 16.4496 13 15.2222 13C13.9949 13 13 13.9949 13 15.2222C13 16.4496 13.9949 17.4444 15.2222 17.4444Z" stroke="white" stroke-linecap="round" stroke-linejoin="round"/>
</svg>
