<svg width="30" height="30" viewBox="0 0 30 30" fill="none" xmlns="http://www.w3.org/2000/svg">
<circle cx="15" cy="15" r="9.75" fill="white" stroke="#E0E2E9" stroke-width="0.5"/>
<path d="M18.9805 11.0232C18.734 10.7767 18.3358 10.7767 18.0893 11.0232L14.9987 14.1075L11.9081 11.0169C11.6616 10.7704 11.2634 10.7704 11.0169 11.0169C10.7704 11.2634 10.7704 11.6616 11.0169 11.9081L14.1075 14.9987L11.0169 18.0893C10.7704 18.3358 10.7704 18.734 11.0169 18.9805C11.2634 19.227 11.6616 19.227 11.9081 18.9805L14.9987 15.8899L18.0893 18.9805C18.3358 19.227 18.734 19.227 18.9805 18.9805C19.227 18.734 19.227 18.3358 18.9805 18.0893L15.8899 14.9987L18.9805 11.9081C19.2207 11.6679 19.2207 11.2634 18.9805 11.0232Z" fill="#5B5D6B"/>
</svg>
