<svg width="20" height="20" viewBox="0 0 20 20" fill="none" xmlns="http://www.w3.org/2000/svg">
<path d="M15.3168 5.73889C14.6951 4.99891 13.9734 4.407 13.1518 3.9641C12.246 3.47584 11.1945 3.23337 10.0002 3.23337C8.12659 3.23337 6.52819 3.89309 5.2107 5.21058C3.89321 6.52807 3.2335 8.12647 3.2335 10C3.2335 11.8736 3.89321 13.472 5.2107 14.7895C6.52819 16.107 8.12659 16.7667 10.0002 16.7667C11.5352 16.7667 12.9104 16.3156 14.1224 15.4136C15.335 14.5112 16.1463 13.3186 16.5549 11.8392L16.5899 11.7125H16.4585H15.1668H15.0956L15.0723 11.7798C14.7044 12.8427 14.0512 13.6969 13.1101 14.3448C12.1683 14.9931 11.1325 15.3167 10.0002 15.3167C8.51218 15.3167 7.25655 14.8025 6.22712 13.7731C5.1977 12.7437 4.6835 11.488 4.6835 10C4.6835 8.51205 5.1977 7.25642 6.22712 6.227C7.25655 5.19758 8.51218 4.68337 10.0002 4.68337C11.067 4.68337 11.9995 4.93619 12.8012 5.43893C13.5569 5.91281 14.1865 6.52455 14.6906 7.27504H11.3752H11.2752V7.37504V8.62504V8.72504H11.3752H16.6668H16.7668V8.62504V3.33337V3.23337H16.6668H15.4168H15.3168V3.33337V5.73889Z" fill="#ACBFFE" stroke="#ACBFFE" stroke-width="0.2"/>
</svg>
