<svg width="25" height="25" viewBox="0 0 25 25" fill="none" xmlns="http://www.w3.org/2000/svg">
<path d="M12.2494 14.4357C10.0081 14.4357 8.19115 12.6278 8.19115 10.3976C8.19115 8.16733 10.0081 6.35938 12.2494 6.35938C14.4907 6.35938 16.3076 8.16733 16.3076 10.3976C16.3076 12.6278 14.4907 14.4357 12.2494 14.4357Z" stroke="#37DBFF" stroke-width="2" stroke-miterlimit="10"/>
<path d="M3.02589 18.341C5.64924 15.987 8.87201 14.4335 12.2556 14.4335C15.6392 14.4335 19.1303 16.1058 21.4609 18.341C19.5684 21.5123 16.2108 23.4172 12.2557 23.4172C8.30068 23.4172 4.94304 21.3999 3.02589 18.341Z" stroke="#37DBFF" stroke-width="2" stroke-miterlimit="10"/>
<path d="M12.2503 23.4165C6.22112 23.4165 1.33354 18.5287 1.33354 12.4993C1.33354 6.46985 6.22112 1.58203 12.2503 1.58203C18.2794 1.58203 23.167 6.46985 23.167 12.4993C23.167 18.5287 18.2794 23.4165 12.2503 23.4165Z" stroke="#37DBFF" stroke-width="2" stroke-miterlimit="10"/>
</svg>
