<svg width="40" height="40" viewBox="0 0 40 40" fill="none" xmlns="http://www.w3.org/2000/svg">
<g clip-path="url(#clip0_630_2017)">
<path d="M32.0881 7.5H7.91188C5.75141 7.5 4 9.32215 4 11.5699V28.4301C4 30.6778 5.75141 32.5 7.91188 32.5H32.0881C34.2486 32.5 36 30.6778 36 28.4301V11.5699C36 9.32215 34.2486 7.5 32.0881 7.5Z" fill="#F7FAFF"/>
<path d="M14.3394 19.7352C16.1781 19.7352 17.6688 18.2443 17.6688 16.4052C17.6688 14.5661 16.1781 13.0752 14.3394 13.0752C12.5006 13.0752 11.01 14.5661 11.01 16.4052C11.01 18.2443 12.5006 19.7352 14.3394 19.7352Z" fill="#81B5FF"/>
<path d="M12.0888 21.3716H16.5319C18.6106 21.3716 20.2981 23.1272 20.2981 25.29V25.9656C20.2981 26.4962 19.8844 26.9266 19.3744 26.9266H9.24626C8.73626 26.9266 8.32251 26.4962 8.32251 25.9656V25.29C8.32251 23.1272 10.01 21.3716 12.0888 21.3716Z" fill="#81B5FF"/>
<path d="M30.6781 14.8809H23.2143C22.6624 14.8809 22.215 15.3464 22.215 15.9206C22.215 16.4948 22.6624 16.9603 23.2143 16.9603H30.6781C31.23 16.9603 31.6775 16.4948 31.6775 15.9206C31.6775 15.3464 31.23 14.8809 30.6781 14.8809Z" fill="#8492A0"/>
<path d="M30.6781 18.9604H23.2143C22.6624 18.9604 22.215 19.426 22.215 20.0002C22.215 20.5744 22.6624 21.0399 23.2143 21.0399H30.6781C31.23 21.0399 31.6775 20.5744 31.6775 20.0002C31.6775 19.426 31.23 18.9604 30.6781 18.9604Z" fill="#8492A0"/>
<path d="M30.6781 23.0398H23.2143C22.6624 23.0398 22.215 23.5053 22.215 24.0795C22.215 24.6538 22.6624 25.1193 23.2143 25.1193H30.6781C31.23 25.1193 31.6775 24.6538 31.6775 24.0795C31.6775 23.5053 31.23 23.0398 30.6781 23.0398Z" fill="#8492A0"/>
</g>
<defs>
<clipPath id="clip0_630_2017">
<rect width="32" height="25" fill="white" transform="translate(4 7.5)"/>
</clipPath>
</defs>
</svg>
