<svg width="24" height="24" viewBox="0 0 24 24" fill="none" xmlns="http://www.w3.org/2000/svg">
<path d="M7 3.5H17C18.933 3.5 20.5 5.067 20.5 7V17C20.5 18.933 18.933 20.5 17 20.5H7C5.067 20.5 3.5 18.933 3.5 17V7C3.5 5.067 5.067 3.5 7 3.5Z" stroke="#101223"/>
<path d="M11.9999 9.31417C12.5286 9.31417 12.9572 8.88554 12.9572 8.35679C12.9572 7.82805 12.5286 7.39941 11.9999 7.39941C11.4711 7.39941 11.0425 7.82805 11.0425 8.35679C11.0425 8.88554 11.4711 9.31417 11.9999 9.31417Z" fill="#101223"/>
<path d="M12.8259 10.3164H11.1743V16.6007H12.8259V10.3164Z" fill="#101223"/>
</svg>
