<svg width="24" height="24" viewBox="0 0 24 24" fill="none" xmlns="http://www.w3.org/2000/svg">
<path d="M23.75 12C23.75 18.4893 18.4893 23.75 12 23.75C5.51065 23.75 0.25 18.4893 0.25 12C0.25 5.51065 5.51065 0.25 12 0.25C18.4893 0.25 23.75 5.51065 23.75 12Z" fill="white" stroke="#E0E2E9" stroke-width="0.5"/>
<mask id="mask0_3119_7397" style="mask-type:luminance" maskUnits="userSpaceOnUse" x="4" y="4" width="16" height="16">
<path d="M19.1998 4.80005H4.7998V19.2H19.1998V4.80005Z" fill="white"/>
</mask>
<g mask="url(#mask0_3119_7397)">
<path d="M16.806 6.64573C15.5285 5.49373 13.8727 4.8434 12.1486 4.80624C12.1176 4.80624 12.0928 4.80624 12.0618 4.80005C12.037 4.80005 12.0184 4.80005 11.9998 4.80005C8.0308 4.80005 4.7998 8.02688 4.7998 11.9908C4.7998 12.2199 4.81221 12.4615 4.83701 12.7092C4.84322 12.7463 4.84942 12.7897 4.85562 12.8331L4.86182 12.8578C4.86802 12.8888 4.87422 12.9198 4.87422 12.9508L4.88042 12.9879C4.89903 13.1366 4.91763 13.279 4.94864 13.4153C4.96104 13.4648 4.97345 13.5144 4.98585 13.5639L4.99205 13.5825C4.99825 13.6135 5.00446 13.6445 5.01686 13.6754L5.02926 13.7312C5.06027 13.855 5.09128 13.9851 5.12228 14.1028C5.13469 14.1523 5.15329 14.2019 5.1719 14.2514L5.22151 14.3939C5.26492 14.5177 5.30833 14.6416 5.35794 14.7592C5.37655 14.8088 5.40135 14.8584 5.42616 14.9079C5.43856 14.9389 5.45717 14.9699 5.46957 15.0009L5.48197 15.0318C5.53159 15.1433 5.5936 15.2671 5.64941 15.3848C5.68043 15.4406 5.71143 15.4901 5.74244 15.5459L5.81066 15.6636C5.87887 15.775 5.93469 15.8803 6.00291 15.9732C6.04011 16.0352 6.08352 16.0909 6.13313 16.1529L6.22616 16.2829C6.28818 16.3696 6.35019 16.4501 6.41221 16.5306C6.46802 16.5987 6.52383 16.6669 6.58584 16.735L6.63546 16.7908C6.66027 16.8217 6.68507 16.8527 6.71608 16.8837C6.75329 16.927 6.78429 16.9642 6.82151 17.0013C8.19204 18.4196 10.0339 19.2 12.006 19.2C13.2029 19.2 14.3874 18.9027 15.4354 18.3329C15.6649 18.2091 15.9005 18.0604 16.1734 17.8684C16.2416 17.8189 16.3161 17.7632 16.3842 17.7136C16.5269 17.6021 16.6757 17.4844 16.8121 17.3543L16.4277 16.9704L13.8727 14.4186L14.2571 14.2267C15.237 13.7249 15.8509 12.7402 15.8509 11.6501C15.8509 10.046 14.5424 8.73915 12.9362 8.73915L10.406 8.74534C10.3936 8.74534 10.3812 8.74534 10.375 8.74534H9.6246V10.2689H12.9238C13.6866 10.2689 14.3067 10.8883 14.3067 11.6501C14.3067 12.4119 13.6866 13.0312 12.9238 13.0312H12.4773L11.6959 12.2509L10.6106 13.3348L14.4432 17.1624L13.9905 17.3296C13.3393 17.5712 12.6696 17.695 11.9936 17.695C10.4556 17.695 9.00445 17.0695 7.91298 15.936C6.88972 14.8769 6.32538 13.4834 6.32538 12.0093C6.32538 8.88779 8.86801 6.34844 11.9936 6.34844C15.1192 6.34844 17.6618 8.88779 17.6618 12.0093C17.6618 12.6659 17.544 13.3223 17.3145 13.9479L18.4866 15.1185C18.53 15.0318 18.5672 14.9513 18.6044 14.8646C18.6106 14.8522 18.6169 14.8398 18.623 14.8274C18.7285 14.5797 18.8215 14.3134 18.9145 14.0037C18.9269 13.9603 18.9393 13.9108 18.9517 13.8674L18.9703 13.7931C19.0261 13.5825 19.0695 13.3596 19.1067 13.1366L19.1192 13.0685C19.1315 13.0065 19.1378 12.9508 19.1439 12.8888C19.1811 12.5729 19.1998 12.2942 19.1998 12.0279C19.1998 12.0155 19.1998 12.0093 19.1998 11.997C19.1998 11.712 19.175 11.4086 19.1253 11.0493C18.9021 9.34611 18.0773 7.79154 16.806 6.64573Z" fill="url(#paint0_linear_3119_7397)"/>
</g>
<defs>
<linearGradient id="paint0_linear_3119_7397" x1="4.8001" y1="11.9911" x2="60.1482" y2="11.9911" gradientUnits="userSpaceOnUse">
<stop stop-color="#BE1E2D"/>
<stop offset="1" stop-color="#2B388F"/>
</linearGradient>
</defs>
</svg>
