<svg width="504" height="136" viewBox="0 0 504 136" fill="none" xmlns="http://www.w3.org/2000/svg">
<path d="M414.963 111V56.66H425.147L450.303 74.292H450.683L475.839 56.66H486.023V111H473.863V71.86L456.611 83.412V111H444.451V83.412L427.123 71.86V111H414.963Z" fill="#6E6D6D"/>
<path d="M128.622 104.722C128.909 105.926 129.654 106.585 130.858 106.7L134.04 107.044C135.416 107.159 136.104 107.847 136.104 109.108C136.104 110.427 135.473 111.201 134.212 111.43C133.295 111.545 132.406 111.631 131.546 111.688C130.686 111.803 129.826 111.86 128.966 111.86C126.042 111.86 123.691 111.459 121.914 110.656C120.137 109.853 118.99 108.219 118.474 105.754L115.808 93.628C115.12 90.6467 114.002 88.6687 112.454 87.694C110.963 86.662 108.727 86.146 105.746 86.146H102.65V96.38C102.65 97.756 102.65 99.132 102.65 100.508C102.707 101.827 102.736 103.145 102.736 104.464C102.793 105.725 103.481 106.442 104.8 106.614L108.068 106.958C109.387 107.13 110.046 107.847 110.046 109.108C110.046 110.369 109.329 111 107.896 111H87.6001C86.1668 111 85.4501 110.369 85.4501 109.108C85.4501 107.847 86.1381 107.159 87.5141 107.044L90.6101 106.7C91.9288 106.528 92.6168 105.783 92.6741 104.464C92.6741 103.088 92.6741 101.712 92.6741 100.336C92.7314 98.9027 92.7601 97.4693 92.7601 96.036V71.44C92.7601 70.0067 92.7314 68.602 92.6741 67.226C92.6741 65.7927 92.6741 64.3593 92.6741 62.926C92.5594 61.6073 91.8714 60.862 90.6101 60.69L87.5141 60.346C86.1381 60.174 85.4501 59.486 85.4501 58.282C85.4501 57.0207 86.1668 56.39 87.6001 56.39H109.96C116.267 56.39 121.14 57.6227 124.58 60.088C128.02 62.5533 129.74 65.936 129.74 70.236C129.74 74.192 128.507 77.374 126.042 79.782C123.634 82.19 120.595 83.7667 116.926 84.512C119.334 85.2573 121.283 86.49 122.774 88.21C124.322 89.8727 125.497 92.1947 126.3 95.176L128.622 104.722ZM102.65 81.932H107.638C111.307 81.932 114.26 81.0433 116.496 79.266C118.789 77.4313 119.936 74.5933 119.936 70.752C119.936 67.4267 118.99 64.904 117.098 63.184C115.206 61.464 112.196 60.604 108.068 60.604H102.822C102.765 62.324 102.707 64.044 102.65 65.764C102.65 67.484 102.65 69.2327 102.65 71.01V81.932ZM172.376 58.282C172.376 59.5433 171.688 60.26 170.312 60.432L167.216 60.776C165.897 60.948 165.209 61.6647 165.152 62.926C165.152 64.3593 165.123 65.764 165.066 67.14C165.066 68.516 165.066 69.9207 165.066 71.354V95.95C165.066 97.3833 165.066 98.8167 165.066 100.25C165.123 101.626 165.152 103.031 165.152 104.464C165.209 105.783 165.897 106.528 167.216 106.7L170.312 107.044C171.688 107.216 172.376 107.904 172.376 109.108C172.376 110.369 171.659 111 170.226 111H149.93C148.497 111 147.78 110.369 147.78 109.108C147.78 107.847 148.468 107.159 149.844 107.044L152.94 106.7C154.259 106.528 154.947 105.783 155.004 104.464C155.004 103.088 155.004 101.712 155.004 100.336C155.061 98.9027 155.09 97.4693 155.09 96.036V71.44C155.09 70.0067 155.061 68.602 155.004 67.226C155.004 65.7927 155.004 64.3593 155.004 62.926C154.889 61.6073 154.201 60.862 152.94 60.69L149.844 60.346C148.468 60.174 147.78 59.486 147.78 58.282C147.78 57.0207 148.497 56.39 149.93 56.39H170.226C171.659 56.39 172.376 57.0207 172.376 58.282ZM240.264 56.39C241.698 56.39 242.414 57.0207 242.414 58.282C242.414 59.6007 241.755 60.346 240.436 60.518L237.082 61.034C235.764 61.206 235.104 61.9513 235.104 63.27V109.71C235.104 111.143 234.531 111.86 233.384 111.86H233.298C232.209 111.86 231.32 111.43 230.632 110.57L197.866 68V104.12C197.866 105.496 198.554 106.27 199.93 106.442L204.918 106.958C206.294 107.13 206.982 107.847 206.982 109.108C206.982 110.369 206.266 111 204.832 111H188.062C186.629 111 185.912 110.369 185.912 109.108C185.912 107.847 186.572 107.13 187.89 106.958L191.33 106.528C192.649 106.356 193.308 105.582 193.308 104.206V63.614C193.308 62.582 193.136 61.8653 192.792 61.464C192.448 61.0053 191.76 60.7473 190.728 60.69L188.492 60.432C187.174 60.26 186.514 59.5433 186.514 58.282C186.514 57.0207 187.231 56.39 188.664 56.39H199.414C200.446 56.39 201.306 56.82 201.994 57.68L230.546 95.09V63.356C230.546 61.98 229.887 61.206 228.568 61.034L223.408 60.432C222.09 60.26 221.43 59.5433 221.43 58.282C221.43 57.0207 222.147 56.39 223.58 56.39H240.264ZM280.491 58.282C280.491 59.5433 279.803 60.26 278.427 60.432L275.331 60.776C274.012 60.948 273.324 61.6647 273.267 62.926C273.267 64.3593 273.238 65.764 273.181 67.14C273.181 68.516 273.181 69.9207 273.181 71.354V95.95C273.181 97.3833 273.181 98.8167 273.181 100.25C273.238 101.626 273.267 103.031 273.267 104.464C273.324 105.783 274.012 106.528 275.331 106.7L278.427 107.044C279.803 107.216 280.491 107.904 280.491 109.108C280.491 110.369 279.774 111 278.341 111H258.045C256.611 111 255.895 110.369 255.895 109.108C255.895 107.847 256.583 107.159 257.959 107.044L261.055 106.7C262.373 106.528 263.061 105.783 263.119 104.464C263.119 103.088 263.119 101.712 263.119 100.336C263.176 98.9027 263.205 97.4693 263.205 96.036V71.44C263.205 70.0067 263.176 68.602 263.119 67.226C263.119 65.7927 263.119 64.3593 263.119 62.926C263.004 61.6073 262.316 60.862 261.055 60.69L257.959 60.346C256.583 60.174 255.895 59.486 255.895 58.282C255.895 57.0207 256.611 56.39 258.045 56.39H278.341C279.774 56.39 280.491 57.0207 280.491 58.282ZM334.447 62.754C334.275 61.4353 333.501 60.776 332.125 60.776H322.321C322.264 62.496 322.206 64.216 322.149 65.936C322.149 67.656 322.149 69.4333 322.149 71.268V95.864C322.149 97.2973 322.149 98.7307 322.149 100.164C322.206 101.54 322.235 102.945 322.235 104.378C322.35 105.811 323.038 106.557 324.299 106.614L328.169 107.044C329.545 107.216 330.233 107.904 330.233 109.108C330.233 110.369 329.516 111 328.083 111H306.239C304.806 111 304.089 110.369 304.089 109.108C304.089 107.847 304.777 107.159 306.153 107.044L310.023 106.614C311.342 106.442 312.03 105.697 312.087 104.378C312.087 103.002 312.087 101.626 312.087 100.25C312.144 98.8167 312.173 97.412 312.173 96.036V71.44C312.173 69.6053 312.144 67.828 312.087 66.108C312.087 64.3307 312.058 62.5533 312.001 60.776H302.197C300.821 60.776 300.047 61.4353 299.875 62.754L298.843 69.462C298.671 70.7807 297.897 71.44 296.521 71.44H295.145C293.712 71.44 293.024 70.7233 293.081 69.29L293.425 58.54C293.54 57.1067 294.285 56.39 295.661 56.39H338.661C340.037 56.39 340.782 57.1067 340.897 58.54L341.241 69.29C341.298 70.7233 340.61 71.44 339.177 71.44H337.801C336.425 71.44 335.651 70.7807 335.479 69.462L334.447 62.754ZM396.161 61.034C395.072 61.206 394.269 61.7793 393.753 62.754L381.197 88.038V104.378C381.255 105.697 381.943 106.442 383.261 106.614L387.303 107.044C388.679 107.216 389.367 107.904 389.367 109.108C389.367 110.369 388.651 111 387.217 111H365.287C363.854 111 363.137 110.369 363.137 109.108C363.137 107.847 363.825 107.159 365.201 107.044L369.157 106.614C370.476 106.442 371.164 105.697 371.221 104.378V88.468L358.063 62.324C357.605 61.4067 356.802 60.862 355.655 60.69L353.333 60.432C352.015 60.26 351.355 59.5433 351.355 58.282C351.355 57.0207 352.072 56.39 353.505 56.39H373.543C374.977 56.39 375.693 57.0207 375.693 58.282C375.693 59.5433 375.034 60.26 373.715 60.432L371.049 60.776C370.247 60.8907 369.702 61.1773 369.415 61.636C369.186 62.0947 369.215 62.668 369.501 63.356L378.961 83.996L388.937 63.528C389.625 62.0373 389.167 61.1487 387.561 60.862L384.981 60.432C383.663 60.26 383.003 59.5433 383.003 58.282C383.003 57.0207 383.72 56.39 385.153 56.39H399.085C400.519 56.39 401.235 57.0207 401.235 58.282C401.235 59.486 400.576 60.2313 399.257 60.518L396.161 61.034Z" fill="#37DBFF"/>
<path d="M100 17H16.6906L8 39.0235H38.931L69.069 25.8V39.0235H92.2085L100 17Z" fill="#37DBFF"/>
<path d="M64.0391 35.8L43.0619 45.1412V121L64.0391 111.8V35.8Z" fill="#37DBFF"/>
</svg>
