<svg width="521" height="185" viewBox="0 0 521 185" fill="none" xmlns="http://www.w3.org/2000/svg">
<line x1="337" y1="126" x2="504" y2="126" stroke="#6E6D6D" stroke-width="2"/>
<path d="M358.208 166.879H339.716V147.262H358.033V151.34H344.04V155.031H357.822V159.074H344.04V162.801H358.208V166.879ZM334.689 170.5H363.13V174.578H334.689V170.5ZM385.355 169.234H368.093V156.648H378.464V152.289H367.952V148.246H382.999V160.691H372.628V165.156H385.355V169.234ZM392.14 178.902H387.605V144.168H392.14V178.902ZM416.333 167.758H399.141V148.07H403.712V163.645H416.333V167.758ZM423.188 178.902H418.653V144.168H423.188V178.902ZM447.311 169.129H430.19V148.246H445.589V152.324H434.69V156.648H445.237V160.691H434.69V165.051H447.311V169.129ZM454.237 178.902H449.702V144.168H454.237V178.902Z" fill="black"/>
<path d="M464.796 172V143.4H470.156L483.396 152.68H483.596L496.836 143.4H502.196V172H495.796V151.4L486.716 157.48V172H480.316V157.48L471.196 151.4V172H464.796Z" fill="black"/>
<mask id="path-4-outside-1_59_79" maskUnits="userSpaceOnUse" x="418" y="40" width="85" height="66" fill="black">
<rect fill="white" x="418" y="40" width="85" height="66"/>
<path d="M420.287 104V42.51H431.811L460.277 62.462H460.707L489.173 42.51H500.697V104H486.937V59.71L467.415 72.782V104H453.655V72.782L434.047 59.71V104H420.287Z"/>
</mask>
<path d="M420.287 104V42.51H431.811L460.277 62.462H460.707L489.173 42.51H500.697V104H486.937V59.71L467.415 72.782V104H453.655V72.782L434.047 59.71V104H420.287Z" fill="#116FB5"/>
<path d="M420.287 104H418.287L420.287 106V104ZM420.287 42.51V40.51L418.287 42.51H420.287ZM431.811 42.51L432.959 40.8722L431.811 40.51V42.51ZM460.277 62.462L459.129 64.0998L460.277 64.462V62.462ZM460.707 62.462V64.462L461.855 64.0998L460.707 62.462ZM489.173 42.51V40.51L488.025 40.8722L489.173 42.51ZM500.697 42.51H502.697L500.697 40.51V42.51ZM500.697 104V106L502.697 104H500.697ZM486.937 104H484.937L486.937 106V104ZM486.937 59.71H488.937L485.824 58.0482L486.937 59.71ZM467.415 72.782L466.302 71.1202L465.415 72.782H467.415ZM467.415 104V106L469.415 104H467.415ZM453.655 104H451.655L453.655 106V104ZM453.655 72.782H455.655L454.764 71.1179L453.655 72.782ZM434.047 59.71L435.156 58.0459L432.047 59.71H434.047ZM434.047 104V106L436.047 104H434.047ZM422.287 104V42.51H418.287V104H422.287ZM420.287 44.51H431.811V40.51H420.287V44.51ZM430.663 44.1478L459.129 64.0998L461.425 60.8242L432.959 40.8722L430.663 44.1478ZM460.277 64.462H460.707V60.462H460.277V64.462ZM461.855 64.0998L490.321 44.1478L488.025 40.8722L459.559 60.8242L461.855 64.0998ZM489.173 44.51H500.697V40.51H489.173V44.51ZM498.697 42.51V104H502.697V42.51H498.697ZM500.697 102H486.937V106H500.697V102ZM488.937 104V59.71H484.937V104H488.937ZM485.824 58.0482L466.302 71.1202L468.527 74.4438L488.049 61.3718L485.824 58.0482ZM465.415 72.782V104H469.415V72.782H465.415ZM467.415 102H453.655V106H467.415V102ZM455.655 104V72.782H451.655V104H455.655ZM454.764 71.1179L435.156 58.0459L432.937 61.3741L452.545 74.4461L454.764 71.1179ZM432.047 59.71V104H436.047V59.71H432.047ZM434.047 102H420.287V106H434.047V102Z" fill="#116FB5" mask="url(#path-4-outside-1_59_79)"/>
<path d="M128.622 96.722C128.909 97.926 129.654 98.5853 130.858 98.7L134.04 99.044C135.416 99.1587 136.104 99.8467 136.104 101.108C136.104 102.427 135.473 103.201 134.212 103.43C133.295 103.545 132.406 103.631 131.546 103.688C130.686 103.803 129.826 103.86 128.966 103.86C126.042 103.86 123.691 103.459 121.914 102.656C120.137 101.853 118.99 100.219 118.474 97.754L115.808 85.628C115.12 82.6467 114.002 80.6687 112.454 79.694C110.963 78.662 108.727 78.146 105.746 78.146H102.65V88.38C102.65 89.756 102.65 91.132 102.65 92.508C102.707 93.8267 102.736 95.1453 102.736 96.464C102.793 97.7253 103.481 98.442 104.8 98.614L108.068 98.958C109.387 99.13 110.046 99.8467 110.046 101.108C110.046 102.369 109.329 103 107.896 103H87.6001C86.1668 103 85.4501 102.369 85.4501 101.108C85.4501 99.8467 86.1381 99.1587 87.5141 99.044L90.6101 98.7C91.9288 98.528 92.6168 97.7827 92.6741 96.464C92.6741 95.088 92.6741 93.712 92.6741 92.336C92.7314 90.9027 92.7601 89.4693 92.7601 88.036V63.44C92.7601 62.0067 92.7314 60.602 92.6741 59.226C92.6741 57.7927 92.6741 56.3593 92.6741 54.926C92.5594 53.6073 91.8714 52.862 90.6101 52.69L87.5141 52.346C86.1381 52.174 85.4501 51.486 85.4501 50.282C85.4501 49.0207 86.1668 48.39 87.6001 48.39H109.96C116.267 48.39 121.14 49.6227 124.58 52.088C128.02 54.5533 129.74 57.936 129.74 62.236C129.74 66.192 128.507 69.374 126.042 71.782C123.634 74.19 120.595 75.7667 116.926 76.512C119.334 77.2573 121.283 78.49 122.774 80.21C124.322 81.8727 125.497 84.1947 126.3 87.176L128.622 96.722ZM102.65 73.932H107.638C111.307 73.932 114.26 73.0433 116.496 71.266C118.789 69.4313 119.936 66.5933 119.936 62.752C119.936 59.4267 118.99 56.904 117.098 55.184C115.206 53.464 112.196 52.604 108.068 52.604H102.822C102.765 54.324 102.707 56.044 102.65 57.764C102.65 59.484 102.65 61.2327 102.65 63.01V73.932ZM172.376 50.282C172.376 51.5433 171.688 52.26 170.312 52.432L167.216 52.776C165.897 52.948 165.209 53.6647 165.152 54.926C165.152 56.3593 165.123 57.764 165.066 59.14C165.066 60.516 165.066 61.9207 165.066 63.354V87.95C165.066 89.3833 165.066 90.8167 165.066 92.25C165.123 93.626 165.152 95.0307 165.152 96.464C165.209 97.7827 165.897 98.528 167.216 98.7L170.312 99.044C171.688 99.216 172.376 99.904 172.376 101.108C172.376 102.369 171.659 103 170.226 103H149.93C148.497 103 147.78 102.369 147.78 101.108C147.78 99.8467 148.468 99.1587 149.844 99.044L152.94 98.7C154.259 98.528 154.947 97.7827 155.004 96.464C155.004 95.088 155.004 93.712 155.004 92.336C155.061 90.9027 155.09 89.4693 155.09 88.036V63.44C155.09 62.0067 155.061 60.602 155.004 59.226C155.004 57.7927 155.004 56.3593 155.004 54.926C154.889 53.6073 154.201 52.862 152.94 52.69L149.844 52.346C148.468 52.174 147.78 51.486 147.78 50.282C147.78 49.0207 148.497 48.39 149.93 48.39H170.226C171.659 48.39 172.376 49.0207 172.376 50.282ZM240.264 48.39C241.698 48.39 242.414 49.0207 242.414 50.282C242.414 51.6007 241.755 52.346 240.436 52.518L237.082 53.034C235.764 53.206 235.104 53.9513 235.104 55.27V101.71C235.104 103.143 234.531 103.86 233.384 103.86H233.298C232.209 103.86 231.32 103.43 230.632 102.57L197.866 60V96.12C197.866 97.496 198.554 98.27 199.93 98.442L204.918 98.958C206.294 99.13 206.982 99.8467 206.982 101.108C206.982 102.369 206.266 103 204.832 103H188.062C186.629 103 185.912 102.369 185.912 101.108C185.912 99.8467 186.572 99.13 187.89 98.958L191.33 98.528C192.649 98.356 193.308 97.582 193.308 96.206V55.614C193.308 54.582 193.136 53.8653 192.792 53.464C192.448 53.0053 191.76 52.7473 190.728 52.69L188.492 52.432C187.174 52.26 186.514 51.5433 186.514 50.282C186.514 49.0207 187.231 48.39 188.664 48.39H199.414C200.446 48.39 201.306 48.82 201.994 49.68L230.546 87.09V55.356C230.546 53.98 229.887 53.206 228.568 53.034L223.408 52.432C222.09 52.26 221.43 51.5433 221.43 50.282C221.43 49.0207 222.147 48.39 223.58 48.39H240.264ZM280.491 50.282C280.491 51.5433 279.803 52.26 278.427 52.432L275.331 52.776C274.012 52.948 273.324 53.6647 273.267 54.926C273.267 56.3593 273.238 57.764 273.181 59.14C273.181 60.516 273.181 61.9207 273.181 63.354V87.95C273.181 89.3833 273.181 90.8167 273.181 92.25C273.238 93.626 273.267 95.0307 273.267 96.464C273.324 97.7827 274.012 98.528 275.331 98.7L278.427 99.044C279.803 99.216 280.491 99.904 280.491 101.108C280.491 102.369 279.774 103 278.341 103H258.045C256.611 103 255.895 102.369 255.895 101.108C255.895 99.8467 256.583 99.1587 257.959 99.044L261.055 98.7C262.373 98.528 263.061 97.7827 263.119 96.464C263.119 95.088 263.119 93.712 263.119 92.336C263.176 90.9027 263.205 89.4693 263.205 88.036V63.44C263.205 62.0067 263.176 60.602 263.119 59.226C263.119 57.7927 263.119 56.3593 263.119 54.926C263.004 53.6073 262.316 52.862 261.055 52.69L257.959 52.346C256.583 52.174 255.895 51.486 255.895 50.282C255.895 49.0207 256.611 48.39 258.045 48.39H278.341C279.774 48.39 280.491 49.0207 280.491 50.282ZM334.447 54.754C334.275 53.4353 333.501 52.776 332.125 52.776H322.321C322.264 54.496 322.206 56.216 322.149 57.936C322.149 59.656 322.149 61.4333 322.149 63.268V87.864C322.149 89.2973 322.149 90.7307 322.149 92.164C322.206 93.54 322.235 94.9447 322.235 96.378C322.35 97.8113 323.038 98.5567 324.299 98.614L328.169 99.044C329.545 99.216 330.233 99.904 330.233 101.108C330.233 102.369 329.516 103 328.083 103H306.239C304.806 103 304.089 102.369 304.089 101.108C304.089 99.8467 304.777 99.1587 306.153 99.044L310.023 98.614C311.342 98.442 312.03 97.6967 312.087 96.378C312.087 95.002 312.087 93.626 312.087 92.25C312.144 90.8167 312.173 89.412 312.173 88.036V63.44C312.173 61.6053 312.144 59.828 312.087 58.108C312.087 56.3307 312.058 54.5533 312.001 52.776H302.197C300.821 52.776 300.047 53.4353 299.875 54.754L298.843 61.462C298.671 62.7807 297.897 63.44 296.521 63.44H295.145C293.712 63.44 293.024 62.7233 293.081 61.29L293.425 50.54C293.54 49.1067 294.285 48.39 295.661 48.39H338.661C340.037 48.39 340.782 49.1067 340.897 50.54L341.241 61.29C341.298 62.7233 340.61 63.44 339.177 63.44H337.801C336.425 63.44 335.651 62.7807 335.479 61.462L334.447 54.754ZM396.161 53.034C395.072 53.206 394.269 53.7793 393.753 54.754L381.197 80.038V96.378C381.255 97.6967 381.943 98.442 383.261 98.614L387.303 99.044C388.679 99.216 389.367 99.904 389.367 101.108C389.367 102.369 388.651 103 387.217 103H365.287C363.854 103 363.137 102.369 363.137 101.108C363.137 99.8467 363.825 99.1587 365.201 99.044L369.157 98.614C370.476 98.442 371.164 97.6967 371.221 96.378V80.468L358.063 54.324C357.605 53.4067 356.802 52.862 355.655 52.69L353.333 52.432C352.015 52.26 351.355 51.5433 351.355 50.282C351.355 49.0207 352.072 48.39 353.505 48.39H373.543C374.977 48.39 375.693 49.0207 375.693 50.282C375.693 51.5433 375.034 52.26 373.715 52.432L371.049 52.776C370.247 52.8907 369.702 53.1773 369.415 53.636C369.186 54.0947 369.215 54.668 369.501 55.356L378.961 75.996L388.937 55.528C389.625 54.0373 389.167 53.1487 387.561 52.862L384.981 52.432C383.663 52.26 383.003 51.5433 383.003 50.282C383.003 49.0207 383.72 48.39 385.153 48.39H399.085C400.519 48.39 401.235 49.0207 401.235 50.282C401.235 51.486 400.576 52.2313 399.257 52.518L396.161 53.034Z" fill="#37DBFF"/>
<path d="M100 9H16.6906L8 31.0235H38.931L69.069 17.8V31.0235H92.2085L100 9Z" fill="#37DBFF"/>
<path d="M64.0391 27.8L43.0619 37.1412V113L64.0391 103.8V27.8Z" fill="#37DBFF"/>
</svg>
