<svg width="609" height="189" viewBox="0 0 609 189" fill="none" xmlns="http://www.w3.org/2000/svg">
<mask id="path-1-outside-1_55_48" maskUnits="userSpaceOnUse" x="479" y="78" width="87" height="68" fill="black">
<rect fill="white" x="479" y="78" width="87" height="68"/>
<path d="M482.287 143V81.51H493.811L522.277 101.462H522.707L551.173 81.51H562.697V143H548.937V98.71L529.415 111.782V143H515.655V111.782L496.047 98.71V143H482.287Z"/>
</mask>
<path d="M482.287 143V81.51H493.811L522.277 101.462H522.707L551.173 81.51H562.697V143H548.937V98.71L529.415 111.782V143H515.655V111.782L496.047 98.71V143H482.287Z" fill="#030303"/>
<path d="M482.287 143H479.287L482.287 146V143ZM482.287 81.51V78.51L479.287 81.51H482.287ZM493.811 81.51L495.532 79.0533L493.811 78.51V81.51ZM522.277 101.462L520.555 103.919L522.277 104.462V101.462ZM522.707 101.462V104.462L524.428 103.919L522.707 101.462ZM551.173 81.51V78.51L549.451 79.0533L551.173 81.51ZM562.697 81.51H565.697L562.697 78.51V81.51ZM562.697 143V146L565.697 143H562.697ZM548.937 143H545.937L548.937 146V143ZM548.937 98.71H551.937L547.267 96.2172L548.937 98.71ZM529.415 111.782L527.745 109.289L526.415 111.782H529.415ZM529.415 143V146L532.415 143H529.415ZM515.655 143H512.655L515.655 146V143ZM515.655 111.782H518.655L517.319 109.286L515.655 111.782ZM496.047 98.71L497.711 96.2138L493.047 98.71H496.047ZM496.047 143V146L499.047 143H496.047ZM485.287 143V81.51H479.287V143H485.287ZM482.287 84.51H493.811V78.51H482.287V84.51ZM492.089 83.9666L520.555 103.919L523.998 99.0053L495.532 79.0533L492.089 83.9666ZM522.277 104.462H522.707V98.462H522.277V104.462ZM524.428 103.919L552.894 83.9666L549.451 79.0533L520.985 99.0053L524.428 103.919ZM551.173 84.51H562.697V78.51H551.173V84.51ZM559.697 81.51V143H565.697V81.51H559.697ZM562.697 140H548.937V146H562.697V140ZM551.937 143V98.71H545.937V143H551.937ZM547.267 96.2172L527.745 109.289L531.084 114.275L550.606 101.203L547.267 96.2172ZM526.415 111.782V143H532.415V111.782H526.415ZM529.415 140H515.655V146H529.415V140ZM518.655 143V111.782H512.655V143H518.655ZM517.319 109.286L497.711 96.2138L494.383 101.206L513.991 114.278L517.319 109.286ZM493.047 98.71V143H499.047V98.71H493.047ZM496.047 140H482.287V146H496.047V140Z" fill="black" mask="url(#path-1-outside-1_55_48)"/>
<mask id="path-3-outside-2_55_48" maskUnits="userSpaceOnUse" x="120" y="78" width="351" height="67" fill="black">
<rect fill="white" x="120" y="78" width="351" height="67"/>
<path d="M123.806 142V81.8H160.915L169.773 90.658V109.32L164.527 114.136L169.773 119.855V142H157.604V124.155L153.304 119.855H135.975V142H123.806ZM129.31 136.668H130.514V114.05H155.626L163.237 122.306V136.668H164.441V121.962L156.658 113.448L164.097 107.213V93.367L157.905 87.175H129.31V136.668ZM135.975 107.686H154.981L157.604 105.02V96.592L154.981 93.969H135.975V107.686ZM130.514 112.846V88.379H157.475L162.893 93.711V106.826L155.626 112.846H130.514ZM187.386 142V129.831H199.168V93.969H187.386V81.8H223.033V93.969H211.294V129.831H223.033V142H187.386ZM192.804 136.582H217.658V135.378H205.403V88.336H217.658V87.132H192.804V88.336H204.199V135.378H192.804V136.582ZM246.493 136.754H247.697V88.723H258.877L274.658 136.539H287.945V87.132H286.741V135.249H275.604L259.823 87.347H246.493V136.754ZM241.075 142V81.8H264.424L279.302 129.659H281.151V81.8H293.32V142H269.971L255.007 94.012H253.244V142H241.075ZM311.374 142V129.831H323.156V93.969H311.374V81.8H347.021V93.969H335.282V129.831H347.021V142H311.374ZM316.792 136.582H341.646V135.378H329.391V88.336H341.646V87.132H316.792V88.336H328.187V135.378H316.792V136.582ZM377.834 142V93.969H362.913V81.8H404.881V93.969H389.96V142H377.834ZM383.252 136.754H384.456V88.336H399.678V87.132H368.116V88.336H383.252V136.754ZM437.602 142V122.951L420.402 106.525V81.8H432.571V102.139L444.095 113.018H443.278L454.845 102.139V81.8H467.014V106.525L449.771 122.951V142H437.602ZM443.063 136.754H444.267V120.887L461.51 104.633V87.132H460.306V104.289L443.794 119.855H443.536L427.024 104.289V87.132H425.82V104.633L443.063 120.887V136.754Z"/>
</mask>
<path d="M123.806 142V81.8H160.915L169.773 90.658V109.32L164.527 114.136L169.773 119.855V142H157.604V124.155L153.304 119.855H135.975V142H123.806ZM129.31 136.668H130.514V114.05H155.626L163.237 122.306V136.668H164.441V121.962L156.658 113.448L164.097 107.213V93.367L157.905 87.175H129.31V136.668ZM135.975 107.686H154.981L157.604 105.02V96.592L154.981 93.969H135.975V107.686ZM130.514 112.846V88.379H157.475L162.893 93.711V106.826L155.626 112.846H130.514ZM187.386 142V129.831H199.168V93.969H187.386V81.8H223.033V93.969H211.294V129.831H223.033V142H187.386ZM192.804 136.582H217.658V135.378H205.403V88.336H217.658V87.132H192.804V88.336H204.199V135.378H192.804V136.582ZM246.493 136.754H247.697V88.723H258.877L274.658 136.539H287.945V87.132H286.741V135.249H275.604L259.823 87.347H246.493V136.754ZM241.075 142V81.8H264.424L279.302 129.659H281.151V81.8H293.32V142H269.971L255.007 94.012H253.244V142H241.075ZM311.374 142V129.831H323.156V93.969H311.374V81.8H347.021V93.969H335.282V129.831H347.021V142H311.374ZM316.792 136.582H341.646V135.378H329.391V88.336H341.646V87.132H316.792V88.336H328.187V135.378H316.792V136.582ZM377.834 142V93.969H362.913V81.8H404.881V93.969H389.96V142H377.834ZM383.252 136.754H384.456V88.336H399.678V87.132H368.116V88.336H383.252V136.754ZM437.602 142V122.951L420.402 106.525V81.8H432.571V102.139L444.095 113.018H443.278L454.845 102.139V81.8H467.014V106.525L449.771 122.951V142H437.602ZM443.063 136.754H444.267V120.887L461.51 104.633V87.132H460.306V104.289L443.794 119.855H443.536L427.024 104.289V87.132H425.82V104.633L443.063 120.887V136.754Z" fill="#4EAEEF"/>
<path d="M123.806 142H120.806L123.806 145V142ZM123.806 81.8V78.8L120.806 81.8H123.806ZM160.915 81.8L163.037 79.6787L160.915 78.8V81.8ZM169.773 90.658H172.773L171.895 88.5367L169.773 90.658ZM169.773 109.32L171.802 111.53L172.773 109.32H169.773ZM164.527 114.136L162.498 111.926L162.316 116.164L164.527 114.136ZM169.773 119.855H172.773L171.984 117.827L169.773 119.855ZM169.773 142V145L172.773 142H169.773ZM157.604 142H154.604L157.604 145V142ZM157.604 124.155H160.604L159.726 122.034L157.604 124.155ZM153.304 119.855L155.426 117.734L153.304 116.855V119.855ZM135.975 119.855V116.855L132.975 119.855H135.975ZM135.975 142V145L138.975 142H135.975ZM129.31 136.668H126.31L129.31 139.668V136.668ZM130.514 136.668V139.668L133.514 136.668H130.514ZM130.514 114.05V111.05L127.514 114.05H130.514ZM155.626 114.05L157.832 112.017L155.626 111.05V114.05ZM163.237 122.306H166.237L165.443 120.273L163.237 122.306ZM163.237 136.668H160.237L163.237 139.668V136.668ZM164.441 136.668V139.668L167.441 136.668H164.441ZM164.441 121.962H167.441L166.655 119.938L164.441 121.962ZM156.658 113.448L154.731 111.149L154.444 115.472L156.658 113.448ZM164.097 107.213L166.024 109.512L167.097 107.213H164.097ZM164.097 93.367H167.097L166.219 91.2457L164.097 93.367ZM157.905 87.175L160.027 85.0537L157.905 84.175V87.175ZM129.31 87.175V84.175L126.31 87.175H129.31ZM135.975 107.686H132.975L135.975 110.686V107.686ZM154.981 107.686V110.686L157.12 109.79L154.981 107.686ZM157.604 105.02L159.743 107.124L160.604 105.02H157.604ZM157.604 96.592H160.604L159.726 94.4707L157.604 96.592ZM154.981 93.969L157.103 91.8477L154.981 90.969V93.969ZM135.975 93.969V90.969L132.975 93.969H135.975ZM130.514 112.846H127.514L130.514 115.846V112.846ZM130.514 88.379V85.379L127.514 88.379H130.514ZM157.475 88.379L159.58 86.2408L157.475 85.379V88.379ZM162.893 93.711H165.893L164.998 91.5728L162.893 93.711ZM162.893 106.826L164.807 109.136L165.893 106.826H162.893ZM155.626 112.846V115.846L157.54 115.156L155.626 112.846ZM126.806 142V81.8H120.806V142H126.806ZM123.806 84.8H160.915V78.8H123.806V84.8ZM158.794 83.9213L167.652 92.7793L171.895 88.5367L163.037 79.6787L158.794 83.9213ZM166.773 90.658V109.32H172.773V90.658H166.773ZM167.744 107.11L162.498 111.926L166.556 116.346L171.802 111.53L167.744 107.11ZM162.316 116.164L167.562 121.883L171.984 117.827L166.738 112.108L162.316 116.164ZM166.773 119.855V142H172.773V119.855H166.773ZM169.773 139H157.604V145H169.773V139ZM160.604 142V124.155H154.604V142H160.604ZM159.726 122.034L155.426 117.734L151.183 121.976L155.483 126.276L159.726 122.034ZM153.304 116.855H135.975V122.855H153.304V116.855ZM132.975 119.855V142H138.975V119.855H132.975ZM135.975 139H123.806V145H135.975V139ZM129.31 139.668H130.514V133.668H129.31V139.668ZM133.514 136.668V114.05H127.514V136.668H133.514ZM130.514 117.05H155.626V111.05H130.514V117.05ZM153.421 116.083L161.032 124.339L165.443 120.273L157.832 112.017L153.421 116.083ZM160.237 122.306V136.668H166.237V122.306H160.237ZM163.237 139.668H164.441V133.668H163.237V139.668ZM167.441 136.668V121.962H161.441V136.668H167.441ZM166.655 119.938L158.872 111.424L154.444 115.472L162.227 123.986L166.655 119.938ZM158.585 115.747L166.024 109.512L162.17 104.914L154.731 111.149L158.585 115.747ZM167.097 107.213V93.367H161.097V107.213H167.097ZM166.219 91.2457L160.027 85.0537L155.784 89.2963L161.976 95.4883L166.219 91.2457ZM157.905 84.175H129.31V90.175H157.905V84.175ZM126.31 87.175V136.668H132.31V87.175H126.31ZM135.975 110.686H154.981V104.686H135.975V110.686ZM157.12 109.79L159.743 107.124L155.466 102.916L152.843 105.582L157.12 109.79ZM160.604 105.02V96.592H154.604V105.02H160.604ZM159.726 94.4707L157.103 91.8477L152.86 96.0903L155.483 98.7133L159.726 94.4707ZM154.981 90.969H135.975V96.969H154.981V90.969ZM132.975 93.969V107.686H138.975V93.969H132.975ZM133.514 112.846V88.379H127.514V112.846H133.514ZM130.514 91.379H157.475V85.379H130.514V91.379ZM155.371 90.5172L160.789 95.8492L164.998 91.5728L159.58 86.2408L155.371 90.5172ZM159.893 93.711V106.826H165.893V93.711H159.893ZM160.979 104.516L153.712 110.536L157.54 115.156L164.807 109.136L160.979 104.516ZM155.626 109.846H130.514V115.846H155.626V109.846ZM187.386 142H184.386L187.386 145V142ZM187.386 129.831V126.831L184.386 129.831H187.386ZM199.168 129.831V132.831L202.168 129.831H199.168ZM199.168 93.969H202.168L199.168 90.969V93.969ZM187.386 93.969H184.386L187.386 96.969V93.969ZM187.386 81.8V78.8L184.386 81.8H187.386ZM223.033 81.8H226.033L223.033 78.8V81.8ZM223.033 93.969V96.969L226.033 93.969H223.033ZM211.294 93.969V90.969L208.294 93.969H211.294ZM211.294 129.831H208.294L211.294 132.831V129.831ZM223.033 129.831H226.033L223.033 126.831V129.831ZM223.033 142V145L226.033 142H223.033ZM192.804 136.582H189.804L192.804 139.582V136.582ZM217.658 136.582V139.582L220.658 136.582H217.658ZM217.658 135.378H220.658L217.658 132.378V135.378ZM205.403 135.378H202.403L205.403 138.378V135.378ZM205.403 88.336V85.336L202.403 88.336H205.403ZM217.658 88.336V91.336L220.658 88.336H217.658ZM217.658 87.132H220.658L217.658 84.132V87.132ZM192.804 87.132V84.132L189.804 87.132H192.804ZM192.804 88.336H189.804L192.804 91.336V88.336ZM204.199 88.336H207.199L204.199 85.336V88.336ZM204.199 135.378V138.378L207.199 135.378H204.199ZM192.804 135.378V132.378L189.804 135.378H192.804ZM190.386 142V129.831H184.386V142H190.386ZM187.386 132.831H199.168V126.831H187.386V132.831ZM202.168 129.831V93.969H196.168V129.831H202.168ZM199.168 90.969H187.386V96.969H199.168V90.969ZM190.386 93.969V81.8H184.386V93.969H190.386ZM187.386 84.8H223.033V78.8H187.386V84.8ZM220.033 81.8V93.969H226.033V81.8H220.033ZM223.033 90.969H211.294V96.969H223.033V90.969ZM208.294 93.969V129.831H214.294V93.969H208.294ZM211.294 132.831H223.033V126.831H211.294V132.831ZM220.033 129.831V142H226.033V129.831H220.033ZM223.033 139H187.386V145H223.033V139ZM192.804 139.582H217.658V133.582H192.804V139.582ZM220.658 136.582V135.378H214.658V136.582H220.658ZM217.658 132.378H205.403V138.378H217.658V132.378ZM208.403 135.378V88.336H202.403V135.378H208.403ZM205.403 91.336H217.658V85.336H205.403V91.336ZM220.658 88.336V87.132H214.658V88.336H220.658ZM217.658 84.132H192.804V90.132H217.658V84.132ZM189.804 87.132V88.336H195.804V87.132H189.804ZM192.804 91.336H204.199V85.336H192.804V91.336ZM201.199 88.336V135.378H207.199V88.336H201.199ZM204.199 132.378H192.804V138.378H204.199V132.378ZM189.804 135.378V136.582H195.804V135.378H189.804ZM246.493 136.754H243.493L246.493 139.754V136.754ZM247.697 136.754V139.754L250.697 136.754H247.697ZM247.697 88.723V85.723L244.697 88.723H247.697ZM258.877 88.723L261.726 87.7828L258.877 85.723V88.723ZM274.658 136.539L271.809 137.479L274.658 139.539V136.539ZM287.945 136.539V139.539L290.945 136.539H287.945ZM287.945 87.132H290.945L287.945 84.132V87.132ZM286.741 87.132V84.132L283.741 87.132H286.741ZM286.741 135.249V138.249L289.741 135.249H286.741ZM275.604 135.249L272.755 136.188L275.604 138.249V135.249ZM259.823 87.347L262.673 86.4083L259.823 84.347V87.347ZM246.493 87.347V84.347L243.493 87.347H246.493ZM241.075 142H238.075L241.075 145V142ZM241.075 81.8V78.8L238.075 81.8H241.075ZM264.424 81.8L267.289 80.9094L264.424 78.8V81.8ZM279.302 129.659L276.438 130.55L279.302 132.659V129.659ZM281.151 129.659V132.659L284.151 129.659H281.151ZM281.151 81.8V78.8L278.151 81.8H281.151ZM293.32 81.8H296.32L293.32 78.8V81.8ZM293.32 142V145L296.32 142H293.32ZM269.971 142L267.107 142.893L269.971 145V142ZM255.007 94.012L257.871 93.1189L255.007 91.012V94.012ZM253.244 94.012V91.012L250.244 94.012H253.244ZM253.244 142V145L256.244 142H253.244ZM246.493 139.754H247.697V133.754H246.493V139.754ZM250.697 136.754V88.723H244.697V136.754H250.697ZM247.697 91.723H258.877V85.723H247.697V91.723ZM256.028 89.6632L271.809 137.479L277.507 135.599L261.726 87.7828L256.028 89.6632ZM274.658 139.539H287.945V133.539H274.658V139.539ZM290.945 136.539V87.132H284.945V136.539H290.945ZM287.945 84.132H286.741V90.132H287.945V84.132ZM283.741 87.132V135.249H289.741V87.132H283.741ZM286.741 132.249H275.604V138.249H286.741V132.249ZM278.454 134.31L262.673 86.4083L256.974 88.2857L272.755 136.188L278.454 134.31ZM259.823 84.347H246.493V90.347H259.823V84.347ZM243.493 87.347V136.754H249.493V87.347H243.493ZM244.075 142V81.8H238.075V142H244.075ZM241.075 84.8H264.424V78.8H241.075V84.8ZM261.56 82.6906L276.438 130.55L282.167 128.768L267.289 80.9094L261.56 82.6906ZM279.302 132.659H281.151V126.659H279.302V132.659ZM284.151 129.659V81.8H278.151V129.659H284.151ZM281.151 84.8H293.32V78.8H281.151V84.8ZM290.32 81.8V142H296.32V81.8H290.32ZM293.32 139H269.971V145H293.32V139ZM272.835 141.107L257.871 93.1189L252.143 94.9051L267.107 142.893L272.835 141.107ZM255.007 91.012H253.244V97.012H255.007V91.012ZM250.244 94.012V142H256.244V94.012H250.244ZM253.244 139H241.075V145H253.244V139ZM311.374 142H308.374L311.374 145V142ZM311.374 129.831V126.831L308.374 129.831H311.374ZM323.156 129.831V132.831L326.156 129.831H323.156ZM323.156 93.969H326.156L323.156 90.969V93.969ZM311.374 93.969H308.374L311.374 96.969V93.969ZM311.374 81.8V78.8L308.374 81.8H311.374ZM347.021 81.8H350.021L347.021 78.8V81.8ZM347.021 93.969V96.969L350.021 93.969H347.021ZM335.282 93.969V90.969L332.282 93.969H335.282ZM335.282 129.831H332.282L335.282 132.831V129.831ZM347.021 129.831H350.021L347.021 126.831V129.831ZM347.021 142V145L350.021 142H347.021ZM316.792 136.582H313.792L316.792 139.582V136.582ZM341.646 136.582V139.582L344.646 136.582H341.646ZM341.646 135.378H344.646L341.646 132.378V135.378ZM329.391 135.378H326.391L329.391 138.378V135.378ZM329.391 88.336V85.336L326.391 88.336H329.391ZM341.646 88.336V91.336L344.646 88.336H341.646ZM341.646 87.132H344.646L341.646 84.132V87.132ZM316.792 87.132V84.132L313.792 87.132H316.792ZM316.792 88.336H313.792L316.792 91.336V88.336ZM328.187 88.336H331.187L328.187 85.336V88.336ZM328.187 135.378V138.378L331.187 135.378H328.187ZM316.792 135.378V132.378L313.792 135.378H316.792ZM314.374 142V129.831H308.374V142H314.374ZM311.374 132.831H323.156V126.831H311.374V132.831ZM326.156 129.831V93.969H320.156V129.831H326.156ZM323.156 90.969H311.374V96.969H323.156V90.969ZM314.374 93.969V81.8H308.374V93.969H314.374ZM311.374 84.8H347.021V78.8H311.374V84.8ZM344.021 81.8V93.969H350.021V81.8H344.021ZM347.021 90.969H335.282V96.969H347.021V90.969ZM332.282 93.969V129.831H338.282V93.969H332.282ZM335.282 132.831H347.021V126.831H335.282V132.831ZM344.021 129.831V142H350.021V129.831H344.021ZM347.021 139H311.374V145H347.021V139ZM316.792 139.582H341.646V133.582H316.792V139.582ZM344.646 136.582V135.378H338.646V136.582H344.646ZM341.646 132.378H329.391V138.378H341.646V132.378ZM332.391 135.378V88.336H326.391V135.378H332.391ZM329.391 91.336H341.646V85.336H329.391V91.336ZM344.646 88.336V87.132H338.646V88.336H344.646ZM341.646 84.132H316.792V90.132H341.646V84.132ZM313.792 87.132V88.336H319.792V87.132H313.792ZM316.792 91.336H328.187V85.336H316.792V91.336ZM325.187 88.336V135.378H331.187V88.336H325.187ZM328.187 132.378H316.792V138.378H328.187V132.378ZM313.792 135.378V136.582H319.792V135.378H313.792ZM377.834 142H374.834L377.834 145V142ZM377.834 93.969H380.834L377.834 90.969V93.969ZM362.913 93.969H359.913L362.913 96.969V93.969ZM362.913 81.8V78.8L359.913 81.8H362.913ZM404.881 81.8H407.881L404.881 78.8V81.8ZM404.881 93.969V96.969L407.881 93.969H404.881ZM389.96 93.969V90.969L386.96 93.969H389.96ZM389.96 142V145L392.96 142H389.96ZM383.252 136.754H380.252L383.252 139.754V136.754ZM384.456 136.754V139.754L387.456 136.754H384.456ZM384.456 88.336V85.336L381.456 88.336H384.456ZM399.678 88.336V91.336L402.678 88.336H399.678ZM399.678 87.132H402.678L399.678 84.132V87.132ZM368.116 87.132V84.132L365.116 87.132H368.116ZM368.116 88.336H365.116L368.116 91.336V88.336ZM383.252 88.336H386.252L383.252 85.336V88.336ZM380.834 142V93.969H374.834V142H380.834ZM377.834 90.969H362.913V96.969H377.834V90.969ZM365.913 93.969V81.8H359.913V93.969H365.913ZM362.913 84.8H404.881V78.8H362.913V84.8ZM401.881 81.8V93.969H407.881V81.8H401.881ZM404.881 90.969H389.96V96.969H404.881V90.969ZM386.96 93.969V142H392.96V93.969H386.96ZM389.96 139H377.834V145H389.96V139ZM383.252 139.754H384.456V133.754H383.252V139.754ZM387.456 136.754V88.336H381.456V136.754H387.456ZM384.456 91.336H399.678V85.336H384.456V91.336ZM402.678 88.336V87.132H396.678V88.336H402.678ZM399.678 84.132H368.116V90.132H399.678V84.132ZM365.116 87.132V88.336H371.116V87.132H365.116ZM368.116 91.336H383.252V85.336H368.116V91.336ZM380.252 88.336V136.754H386.252V88.336H380.252ZM437.602 142H434.602L437.602 145V142ZM437.602 122.951H440.602L439.674 120.781L437.602 122.951ZM420.402 106.525H417.402L418.33 108.695L420.402 106.525ZM420.402 81.8V78.8L417.402 81.8H420.402ZM432.571 81.8H435.571L432.571 78.8V81.8ZM432.571 102.139H429.571L430.512 104.32L432.571 102.139ZM444.095 113.018V116.018L446.155 110.837L444.095 113.018ZM443.278 113.018L441.223 110.833L443.278 116.018V113.018ZM454.845 102.139L456.9 104.324L457.845 102.139H454.845ZM454.845 81.8V78.8L451.845 81.8H454.845ZM467.014 81.8H470.014L467.014 78.8V81.8ZM467.014 106.525L469.083 108.697L470.014 106.525H467.014ZM449.771 122.951L447.702 120.779L446.771 122.951H449.771ZM449.771 142V145L452.771 142H449.771ZM443.063 136.754H440.063L443.063 139.754V136.754ZM444.267 136.754V139.754L447.267 136.754H444.267ZM444.267 120.887L442.209 118.704L441.267 120.887H444.267ZM461.51 104.633L463.568 106.816L464.51 104.633H461.51ZM461.51 87.132H464.51L461.51 84.132V87.132ZM460.306 87.132V84.132L457.306 87.132H460.306ZM460.306 104.289L462.364 106.472L463.306 104.289H460.306ZM443.794 119.855V122.855L445.852 122.038L443.794 119.855ZM443.536 119.855L441.478 122.038L443.536 122.855V119.855ZM427.024 104.289H424.024L424.966 106.472L427.024 104.289ZM427.024 87.132H430.024L427.024 84.132V87.132ZM425.82 87.132V84.132L422.82 87.132H425.82ZM425.82 104.633H422.82L423.762 106.816L425.82 104.633ZM443.063 120.887H446.063L445.121 118.704L443.063 120.887ZM440.602 142V122.951H434.602V142H440.602ZM439.674 120.781L422.474 104.355L418.33 108.695L435.53 125.121L439.674 120.781ZM423.402 106.525V81.8H417.402V106.525H423.402ZM420.402 84.8H432.571V78.8H420.402V84.8ZM429.571 81.8V102.139H435.571V81.8H429.571ZM430.512 104.32L442.036 115.199L446.155 110.837L434.631 99.9575L430.512 104.32ZM444.095 110.018H443.278V116.018H444.095V110.018ZM445.333 115.203L456.9 104.324L452.79 99.9537L441.223 110.833L445.333 115.203ZM457.845 102.139V81.8H451.845V102.139H457.845ZM454.845 84.8H467.014V78.8H454.845V84.8ZM464.014 81.8V106.525H470.014V81.8H464.014ZM464.945 104.353L447.702 120.779L451.84 125.123L469.083 108.697L464.945 104.353ZM446.771 122.951V142H452.771V122.951H446.771ZM449.771 139H437.602V145H449.771V139ZM443.063 139.754H444.267V133.754H443.063V139.754ZM447.267 136.754V120.887H441.267V136.754H447.267ZM446.325 123.07L463.568 106.816L459.452 102.45L442.209 118.704L446.325 123.07ZM464.51 104.633V87.132H458.51V104.633H464.51ZM461.51 84.132H460.306V90.132H461.51V84.132ZM457.306 87.132V104.289H463.306V87.132H457.306ZM458.248 102.106L441.736 117.672L445.852 122.038L462.364 106.472L458.248 102.106ZM443.794 116.855H443.536V122.855H443.794V116.855ZM445.594 117.672L429.082 102.106L424.966 106.472L441.478 122.038L445.594 117.672ZM430.024 104.289V87.132H424.024V104.289H430.024ZM427.024 84.132H425.82V90.132H427.024V84.132ZM422.82 87.132V104.633H428.82V87.132H422.82ZM423.762 106.816L441.005 123.07L445.121 118.704L427.878 102.45L423.762 106.816ZM440.063 120.887V136.754H446.063V120.887H440.063Z" fill="black" mask="url(#path-3-outside-2_55_48)"/>
<path d="M143 23H37.9577L27 50.5294H133.176L143 23Z" fill="url(#paint0_linear_55_48)"/>
<path d="M97.658 58.1765H71.2085V153L97.658 144.206V58.1765Z" fill="url(#paint1_linear_55_48)"/>
<path d="M143 23H37.9577L27 50.5294H133.176L143 23Z" stroke="black" stroke-width="3"/>
<path d="M97.658 58.1765H71.2085V153L97.658 144.206V58.1765Z" stroke="black" stroke-width="3"/>
<defs>
<linearGradient id="paint0_linear_55_48" x1="85" y1="23" x2="85" y2="153" gradientUnits="userSpaceOnUse">
<stop stop-color="#4EAEEF"/>
<stop offset="1" stop-color="#50EAFF"/>
</linearGradient>
<linearGradient id="paint1_linear_55_48" x1="85" y1="23" x2="85" y2="153" gradientUnits="userSpaceOnUse">
<stop stop-color="#4EAEEF"/>
<stop offset="1" stop-color="#50EAFF"/>
</linearGradient>
</defs>
</svg>
