<svg width="375" height="160" viewBox="0 0 375 160" fill="none" xmlns="http://www.w3.org/2000/svg">
<g clip-path="url(#clip0_3809_5470)">
<path d="M272.312 98H265.797L277.75 64.0625H285.25L297.25 98H290.734L287.922 89.6094H275.125L272.312 98ZM276.766 84.6875H286.281L281.641 71H281.359L276.766 84.6875Z" fill="#37DBFF"/>
<path d="M269.5 155V121.062H282.484C289.844 121.062 293.5 124.812 293.5 129.875C293.5 134 290.875 136.297 287.547 137.094V137.422C291.156 137.609 294.812 140.609 294.812 145.766C294.812 151.062 291.016 155 283.234 155H269.5ZM282.297 149.891C286.75 149.891 288.625 147.969 288.625 145.297C288.625 142.25 286.234 139.906 282.438 139.906H275.594V149.891H282.297ZM281.734 135.5C284.969 135.5 287.406 133.625 287.406 130.625C287.406 128 285.531 126.125 281.875 126.125H275.594V135.5H281.734ZM290.383 189.5C289.68 185.422 286.398 183.078 282.273 183.078C276.695 183.078 272.805 187.344 272.805 195.031C272.805 202.812 276.742 206.984 282.273 206.984C286.305 206.984 289.586 204.734 290.383 200.75H296.523C295.586 207.266 290.242 212.469 282.18 212.469C273.227 212.469 266.664 205.953 266.664 195.031C266.664 184.062 273.32 177.594 282.18 177.594C289.68 177.594 295.492 181.953 296.523 189.5H290.383ZM279.484 269H267.953V235.062H279.672C289.797 235.062 295.938 241.438 295.938 251.984C295.938 262.578 289.797 269 279.484 269ZM274.047 263.703H279.156C286.234 263.703 289.844 259.812 289.844 251.984C289.844 244.203 286.234 240.359 279.344 240.359H274.047V263.703ZM270.672 326V292.062H292.75V297.172H276.766V306.453H291.578V311.562H276.766V320.844H292.844V326H270.672ZM271.188 383V349.062H292.938V354.172H277.281V363.453H291.438V368.562H277.281V383H271.188ZM289.984 416.891C288.906 413.281 286.094 411.078 281.969 411.078C276.484 411.078 272.547 415.344 272.547 422.984C272.547 430.719 276.438 434.984 282.109 434.984C287.219 434.984 290.5 431.891 290.594 427.062H282.719V422.234H296.5V426.312C296.5 435.031 290.5 440.469 282.109 440.469C272.734 440.469 266.406 433.812 266.406 423.031C266.406 412.156 273.016 405.594 281.922 405.594C289.422 405.594 295.188 410.234 296.219 416.891H289.984ZM267.484 497V463.062H273.578V477.453H289.375V463.062H295.516V497H289.375V482.562H273.578V497H267.484ZM284.523 520.062V554H278.43V520.062H284.523ZM285.18 577.062H291.227V600.922C291.227 607.484 286.82 611.469 280.305 611.469C274.352 611.469 269.805 608.234 269.805 602H275.898C275.898 604.766 277.773 606.453 280.539 606.453C283.492 606.453 285.133 604.531 285.18 600.922V577.062ZM269.055 668V634.062H275.148V649.672H275.617L288.883 634.062H296.336L283.211 649.297L296.477 668H289.117L278.945 653.422L275.148 657.875V668H269.055ZM271.656 725V691.062H277.75V719.844H292.75V725H271.656ZM263.711 748.062H271.211L281.289 772.719H281.711L291.789 748.062H299.289V782H293.43V758.656H293.102L283.68 781.906H279.32L269.898 758.562H269.617V782H263.711V748.062ZM295.445 805.062V839H290.008L273.93 815.797H273.648V839H267.555V805.062H273.086L289.07 828.266H289.398V805.062H295.445ZM297.062 879.031C297.062 890 290.406 896.469 281.5 896.469C272.594 896.469 265.938 889.953 265.938 879.031C265.938 868.062 272.594 861.594 281.5 861.594C290.406 861.594 297.062 868.062 297.062 879.031ZM290.922 879.031C290.922 871.297 287.031 867.078 281.5 867.078C275.969 867.078 272.078 871.297 272.078 879.031C272.078 886.766 275.969 890.984 281.5 890.984C287.031 890.984 290.922 886.766 290.922 879.031ZM269.828 953V919.062H282.578C290.359 919.062 294.531 923.797 294.531 930.312C294.531 936.828 290.312 941.516 282.484 941.516H275.922V953H269.828ZM275.922 936.5H281.641C286.234 936.5 288.297 933.922 288.297 930.312C288.297 926.656 286.234 924.172 281.641 924.172H275.922V936.5ZM279.367 998.609H284.945L287.852 1002.41C289.75 1000.39 290.898 997.227 290.898 993.031C290.898 985.297 287.008 981.078 281.477 981.078C275.945 981.078 272.055 985.297 272.055 993.031C272.055 1000.77 275.945 1004.98 281.477 1004.98C282.367 1004.98 283.211 1004.87 284.008 1004.66L279.367 998.609ZM297.039 993.031C297.039 999.195 294.93 1003.93 291.555 1006.91L296.242 1012.95H290.289L287.477 1009.34C285.648 1010.09 283.633 1010.47 281.477 1010.47C272.57 1010.47 265.914 1003.95 265.914 993.031C265.914 982.062 272.57 975.594 281.477 975.594C290.383 975.594 297.039 982.062 297.039 993.031ZM269.664 1067V1033.06H282.414C290.195 1033.06 294.367 1037.42 294.367 1043.89C294.367 1048.51 292.258 1051.93 288.273 1053.55L295.586 1067H288.789L282.133 1054.58H275.758V1067H269.664ZM275.758 1049.47H281.477C286.07 1049.47 288.133 1047.5 288.133 1043.89C288.133 1040.28 286.07 1038.17 281.477 1038.17H275.758V1049.47ZM288.18 1099.39C287.898 1096.48 285.414 1094.8 281.758 1094.8C277.914 1094.8 275.57 1096.67 275.57 1099.2C275.57 1102.06 278.57 1103.23 281.383 1103.89L284.57 1104.73C289.633 1105.91 294.508 1108.58 294.508 1114.48C294.508 1120.44 289.82 1124.52 281.664 1124.52C273.742 1124.52 268.773 1120.72 268.492 1114.02H274.492C274.773 1117.58 277.773 1119.31 281.617 1119.31C285.648 1119.31 288.414 1117.34 288.414 1114.44C288.414 1111.77 285.93 1110.64 282.273 1109.7L278.43 1108.72C272.852 1107.27 269.383 1104.45 269.383 1099.58C269.383 1093.58 274.727 1089.59 281.852 1089.59C289.07 1089.59 293.945 1093.67 294.039 1099.39H288.18ZM267.977 1152.17V1147.06H295.023V1152.17H284.57V1181H278.477V1152.17H267.977ZM289.141 1204.06H295.281V1226.23C295.281 1233.5 289.75 1238.52 281.5 1238.52C273.203 1238.52 267.719 1233.5 267.719 1226.23V1204.06H273.812V1225.72C273.812 1229.98 276.812 1233.08 281.5 1233.08C286.188 1233.08 289.141 1229.98 289.141 1225.72V1204.06ZM272.5 1261.06L281.312 1287.83H281.688L290.547 1261.06H297.25L285.25 1295H277.75L265.797 1261.06H272.5ZM268.516 1352L258.953 1318.06H265.516L271.656 1343.05H271.984L278.5 1318.06H284.5L291.062 1343.09H291.344L297.484 1318.06H304.047L294.484 1352H288.438L281.641 1328.14H281.406L274.562 1352H268.516ZM273.883 1375.06L281.336 1387.53H281.617L289.164 1375.06H296.102L285.648 1392.03L296.289 1409H289.211L281.617 1396.62H281.336L273.742 1409H266.711L277.445 1392.03L266.852 1375.06H273.883ZM266.102 1432.06H272.992L281.336 1447.06H281.664L290.008 1432.06H296.898L284.57 1453.3V1466H278.477V1453.3L266.102 1432.06ZM268.984 1523V1519.16L286.422 1494.17H268.891V1489.06H294.016V1492.86L276.578 1517.84H294.109V1523H268.984ZM272.312 1580H265.797L277.75 1546.06H285.25L297.25 1580H290.734L287.922 1571.61H275.125L272.312 1580ZM276.766 1566.69H286.281L281.641 1553H281.359L276.766 1566.69ZM269.5 1637V1603.06H282.484C289.844 1603.06 293.5 1606.81 293.5 1611.88C293.5 1616 290.875 1618.3 287.547 1619.09V1619.42C291.156 1619.61 294.812 1622.61 294.812 1627.77C294.812 1633.06 291.016 1637 283.234 1637H269.5ZM282.297 1631.89C286.75 1631.89 288.625 1629.97 288.625 1627.3C288.625 1624.25 286.234 1621.91 282.438 1621.91H275.594V1631.89H282.297ZM281.734 1617.5C284.969 1617.5 287.406 1615.62 287.406 1612.62C287.406 1610 285.531 1608.12 281.875 1608.12H275.594V1617.5H281.734ZM290.383 1671.5C289.68 1667.42 286.398 1665.08 282.273 1665.08C276.695 1665.08 272.805 1669.34 272.805 1677.03C272.805 1684.81 276.742 1688.98 282.273 1688.98C286.305 1688.98 289.586 1686.73 290.383 1682.75H296.523C295.586 1689.27 290.242 1694.47 282.18 1694.47C273.227 1694.47 266.664 1687.95 266.664 1677.03C266.664 1666.06 273.32 1659.59 282.18 1659.59C289.68 1659.59 295.492 1663.95 296.523 1671.5H290.383ZM279.484 1751H267.953V1717.06H279.672C289.797 1717.06 295.938 1723.44 295.938 1733.98C295.938 1744.58 289.797 1751 279.484 1751ZM274.047 1745.7H279.156C286.234 1745.7 289.844 1741.81 289.844 1733.98C289.844 1726.2 286.234 1722.36 279.344 1722.36H274.047V1745.7ZM270.672 1808V1774.06H292.75V1779.17H276.766V1788.45H291.578V1793.56H276.766V1802.84H292.844V1808H270.672ZM271.188 1865V1831.06H292.938V1836.17H277.281V1845.45H291.438V1850.56H277.281V1865H271.188ZM289.984 1898.89C288.906 1895.28 286.094 1893.08 281.969 1893.08C276.484 1893.08 272.547 1897.34 272.547 1904.98C272.547 1912.72 276.438 1916.98 282.109 1916.98C287.219 1916.98 290.5 1913.89 290.594 1909.06H282.719V1904.23H296.5V1908.31C296.5 1917.03 290.5 1922.47 282.109 1922.47C272.734 1922.47 266.406 1915.81 266.406 1905.03C266.406 1894.16 273.016 1887.59 281.922 1887.59C289.422 1887.59 295.188 1892.23 296.219 1898.89H289.984ZM267.484 1979V1945.06H273.578V1959.45H289.375V1945.06H295.516V1979H289.375V1964.56H273.578V1979H267.484ZM284.523 2002.06V2036H278.43V2002.06H284.523ZM285.18 2059.06H291.227V2082.92C291.227 2089.48 286.82 2093.47 280.305 2093.47C274.352 2093.47 269.805 2090.23 269.805 2084H275.898C275.898 2086.77 277.773 2088.45 280.539 2088.45C283.492 2088.45 285.133 2086.53 285.18 2082.92V2059.06ZM269.055 2150V2116.06H275.148V2131.67H275.617L288.883 2116.06H296.336L283.211 2131.3L296.477 2150H289.117L278.945 2135.42L275.148 2139.88V2150H269.055ZM271.656 2207V2173.06H277.75V2201.84H292.75V2207H271.656ZM263.711 2230.06H271.211L281.289 2254.72H281.711L291.789 2230.06H299.289V2264H293.43V2240.66H293.102L283.68 2263.91H279.32L269.898 2240.56H269.617V2264H263.711V2230.06ZM295.445 2287.06V2321H290.008L273.93 2297.8H273.648V2321H267.555V2287.06H273.086L289.07 2310.27H289.398V2287.06H295.445ZM297.062 2361.03C297.062 2372 290.406 2378.47 281.5 2378.47C272.594 2378.47 265.938 2371.95 265.938 2361.03C265.938 2350.06 272.594 2343.59 281.5 2343.59C290.406 2343.59 297.062 2350.06 297.062 2361.03ZM290.922 2361.03C290.922 2353.3 287.031 2349.08 281.5 2349.08C275.969 2349.08 272.078 2353.3 272.078 2361.03C272.078 2368.77 275.969 2372.98 281.5 2372.98C287.031 2372.98 290.922 2368.77 290.922 2361.03ZM269.828 2435V2401.06H282.578C290.359 2401.06 294.531 2405.8 294.531 2412.31C294.531 2418.83 290.312 2423.52 282.484 2423.52H275.922V2435H269.828ZM275.922 2418.5H281.641C286.234 2418.5 288.297 2415.92 288.297 2412.31C288.297 2408.66 286.234 2406.17 281.641 2406.17H275.922V2418.5ZM279.367 2480.61H284.945L287.852 2484.41C289.75 2482.39 290.898 2479.23 290.898 2475.03C290.898 2467.3 287.008 2463.08 281.477 2463.08C275.945 2463.08 272.055 2467.3 272.055 2475.03C272.055 2482.77 275.945 2486.98 281.477 2486.98C282.367 2486.98 283.211 2486.87 284.008 2486.66L279.367 2480.61ZM297.039 2475.03C297.039 2481.2 294.93 2485.93 291.555 2488.91L296.242 2494.95H290.289L287.477 2491.34C285.648 2492.09 283.633 2492.47 281.477 2492.47C272.57 2492.47 265.914 2485.95 265.914 2475.03C265.914 2464.06 272.57 2457.59 281.477 2457.59C290.383 2457.59 297.039 2464.06 297.039 2475.03ZM269.664 2549V2515.06H282.414C290.195 2515.06 294.367 2519.42 294.367 2525.89C294.367 2530.51 292.258 2533.93 288.273 2535.55L295.586 2549H288.789L282.133 2536.58H275.758V2549H269.664ZM275.758 2531.47H281.477C286.07 2531.47 288.133 2529.5 288.133 2525.89C288.133 2522.28 286.07 2520.17 281.477 2520.17H275.758V2531.47ZM288.18 2581.39C287.898 2578.48 285.414 2576.8 281.758 2576.8C277.914 2576.8 275.57 2578.67 275.57 2581.2C275.57 2584.06 278.57 2585.23 281.383 2585.89L284.57 2586.73C289.633 2587.91 294.508 2590.58 294.508 2596.48C294.508 2602.44 289.82 2606.52 281.664 2606.52C273.742 2606.52 268.773 2602.72 268.492 2596.02H274.492C274.773 2599.58 277.773 2601.31 281.617 2601.31C285.648 2601.31 288.414 2599.34 288.414 2596.44C288.414 2593.77 285.93 2592.64 282.273 2591.7L278.43 2590.72C272.852 2589.27 269.383 2586.45 269.383 2581.58C269.383 2575.58 274.727 2571.59 281.852 2571.59C289.07 2571.59 293.945 2575.67 294.039 2581.39H288.18ZM267.977 2634.17V2629.06H295.023V2634.17H284.57V2663H278.477V2634.17H267.977ZM289.141 2686.06H295.281V2708.23C295.281 2715.5 289.75 2720.52 281.5 2720.52C273.203 2720.52 267.719 2715.5 267.719 2708.23V2686.06H273.812V2707.72C273.812 2711.98 276.812 2715.08 281.5 2715.08C286.188 2715.08 289.141 2711.98 289.141 2707.72V2686.06ZM272.5 2743.06L281.312 2769.83H281.688L290.547 2743.06H297.25L285.25 2777H277.75L265.797 2743.06H272.5ZM268.516 2834L258.953 2800.06H265.516L271.656 2825.05H271.984L278.5 2800.06H284.5L291.062 2825.09H291.344L297.484 2800.06H304.047L294.484 2834H288.438L281.641 2810.14H281.406L274.562 2834H268.516ZM273.883 2857.06L281.336 2869.53H281.617L289.164 2857.06H296.102L285.648 2874.03L296.289 2891H289.211L281.617 2878.62H281.336L273.742 2891H266.711L277.445 2874.03L266.852 2857.06H273.883ZM266.102 2914.06H272.992L281.336 2929.06H281.664L290.008 2914.06H296.898L284.57 2935.3V2948H278.477V2935.3L266.102 2914.06ZM268.984 3005V3001.16L286.422 2976.17H268.891V2971.06H294.016V2974.86L276.578 2999.84H294.109V3005H268.984Z" fill="black"/>
<path d="M225.312 41H218.797L230.75 7.0625H238.25L250.25 41H243.734L240.922 32.6094H228.125L225.312 41ZM229.766 27.6875H239.281L234.641 14H234.359L229.766 27.6875ZM243.383 132.5C242.68 128.422 239.398 126.078 235.273 126.078C229.695 126.078 225.805 130.344 225.805 138.031C225.805 145.812 229.742 149.984 235.273 149.984C239.305 149.984 242.586 147.734 243.383 143.75H249.523C248.586 150.266 243.242 155.469 235.18 155.469C226.227 155.469 219.664 148.953 219.664 138.031C219.664 127.062 226.32 120.594 235.18 120.594C242.68 120.594 248.492 124.953 249.523 132.5H243.383ZM232.484 212H220.953V178.062H232.672C242.797 178.062 248.938 184.438 248.938 194.984C248.938 205.578 242.797 212 232.484 212ZM227.047 206.703H232.156C239.234 206.703 242.844 202.812 242.844 194.984C242.844 187.203 239.234 183.359 232.344 183.359H227.047V206.703ZM223.672 269V235.062H245.75V240.172H229.766V249.453H244.578V254.562H229.766V263.844H245.844V269H223.672ZM224.188 326V292.062H245.938V297.172H230.281V306.453H244.438V311.562H230.281V326H224.188ZM242.984 359.891C241.906 356.281 239.094 354.078 234.969 354.078C229.484 354.078 225.547 358.344 225.547 365.984C225.547 373.719 229.438 377.984 235.109 377.984C240.219 377.984 243.5 374.891 243.594 370.062H235.719V365.234H249.5V369.312C249.5 378.031 243.5 383.469 235.109 383.469C225.734 383.469 219.406 376.812 219.406 366.031C219.406 355.156 226.016 348.594 234.922 348.594C242.422 348.594 248.188 353.234 249.219 359.891H242.984ZM220.484 440V406.062H226.578V420.453H242.375V406.062H248.516V440H242.375V425.562H226.578V440H220.484ZM237.523 463.062V497H231.43V463.062H237.523ZM238.18 520.062H244.227V543.922C244.227 550.484 239.82 554.469 233.305 554.469C227.352 554.469 222.805 551.234 222.805 545H228.898C228.898 547.766 230.773 549.453 233.539 549.453C236.492 549.453 238.133 547.531 238.18 543.922V520.062ZM222.055 611V577.062H228.148V592.672H228.617L241.883 577.062H249.336L236.211 592.297L249.477 611H242.117L231.945 596.422L228.148 600.875V611H222.055ZM224.656 668V634.062H230.75V662.844H245.75V668H224.656ZM216.711 691.062H224.211L234.289 715.719H234.711L244.789 691.062H252.289V725H246.43V701.656H246.102L236.68 724.906H232.32L222.898 701.562H222.617V725H216.711V691.062ZM248.445 748.062V782H243.008L226.93 758.797H226.648V782H220.555V748.062H226.086L242.07 771.266H242.398V748.062H248.445ZM250.062 822.031C250.062 833 243.406 839.469 234.5 839.469C225.594 839.469 218.938 832.953 218.938 822.031C218.938 811.062 225.594 804.594 234.5 804.594C243.406 804.594 250.062 811.062 250.062 822.031ZM243.922 822.031C243.922 814.297 240.031 810.078 234.5 810.078C228.969 810.078 225.078 814.297 225.078 822.031C225.078 829.766 228.969 833.984 234.5 833.984C240.031 833.984 243.922 829.766 243.922 822.031ZM222.828 896V862.062H235.578C243.359 862.062 247.531 866.797 247.531 873.312C247.531 879.828 243.312 884.516 235.484 884.516H228.922V896H222.828ZM228.922 879.5H234.641C239.234 879.5 241.297 876.922 241.297 873.312C241.297 869.656 239.234 867.172 234.641 867.172H228.922V879.5ZM232.367 941.609H237.945L240.852 945.406C242.75 943.391 243.898 940.227 243.898 936.031C243.898 928.297 240.008 924.078 234.477 924.078C228.945 924.078 225.055 928.297 225.055 936.031C225.055 943.766 228.945 947.984 234.477 947.984C235.367 947.984 236.211 947.867 237.008 947.656L232.367 941.609ZM250.039 936.031C250.039 942.195 247.93 946.93 244.555 949.906L249.242 955.953H243.289L240.477 952.344C238.648 953.094 236.633 953.469 234.477 953.469C225.57 953.469 218.914 946.953 218.914 936.031C218.914 925.062 225.57 918.594 234.477 918.594C243.383 918.594 250.039 925.062 250.039 936.031ZM222.664 1010V976.062H235.414C243.195 976.062 247.367 980.422 247.367 986.891C247.367 991.508 245.258 994.93 241.273 996.547L248.586 1010H241.789L235.133 997.578H228.758V1010H222.664ZM228.758 992.469H234.477C239.07 992.469 241.133 990.5 241.133 986.891C241.133 983.281 239.07 981.172 234.477 981.172H228.758V992.469ZM241.18 1042.39C240.898 1039.48 238.414 1037.8 234.758 1037.8C230.914 1037.8 228.57 1039.67 228.57 1042.2C228.57 1045.06 231.57 1046.23 234.383 1046.89L237.57 1047.73C242.633 1048.91 247.508 1051.58 247.508 1057.48C247.508 1063.44 242.82 1067.52 234.664 1067.52C226.742 1067.52 221.773 1063.72 221.492 1057.02H227.492C227.773 1060.58 230.773 1062.31 234.617 1062.31C238.648 1062.31 241.414 1060.34 241.414 1057.44C241.414 1054.77 238.93 1053.64 235.273 1052.7L231.43 1051.72C225.852 1050.27 222.383 1047.45 222.383 1042.58C222.383 1036.58 227.727 1032.59 234.852 1032.59C242.07 1032.59 246.945 1036.67 247.039 1042.39H241.18ZM220.977 1095.17V1090.06H248.023V1095.17H237.57V1124H231.477V1095.17H220.977ZM242.141 1147.06H248.281V1169.23C248.281 1176.5 242.75 1181.52 234.5 1181.52C226.203 1181.52 220.719 1176.5 220.719 1169.23V1147.06H226.812V1168.72C226.812 1172.98 229.812 1176.08 234.5 1176.08C239.188 1176.08 242.141 1172.98 242.141 1168.72V1147.06ZM225.5 1204.06L234.312 1230.83H234.688L243.547 1204.06H250.25L238.25 1238H230.75L218.797 1204.06H225.5ZM221.516 1295L211.953 1261.06H218.516L224.656 1286.05H224.984L231.5 1261.06H237.5L244.062 1286.09H244.344L250.484 1261.06H257.047L247.484 1295H241.438L234.641 1271.14H234.406L227.562 1295H221.516ZM226.883 1318.06L234.336 1330.53H234.617L242.164 1318.06H249.102L238.648 1335.03L249.289 1352H242.211L234.617 1339.62H234.336L226.742 1352H219.711L230.445 1335.03L219.852 1318.06H226.883ZM219.102 1375.06H225.992L234.336 1390.06H234.664L243.008 1375.06H249.898L237.57 1396.3V1409H231.477V1396.3L219.102 1375.06ZM221.984 1466V1462.16L239.422 1437.17H221.891V1432.06H247.016V1435.86L229.578 1460.84H247.109V1466H221.984ZM225.312 1523H218.797L230.75 1489.06H238.25L250.25 1523H243.734L240.922 1514.61H228.125L225.312 1523ZM229.766 1509.69H239.281L234.641 1496H234.359L229.766 1509.69ZM243.383 1614.5C242.68 1610.42 239.398 1608.08 235.273 1608.08C229.695 1608.08 225.805 1612.34 225.805 1620.03C225.805 1627.81 229.742 1631.98 235.273 1631.98C239.305 1631.98 242.586 1629.73 243.383 1625.75H249.523C248.586 1632.27 243.242 1637.47 235.18 1637.47C226.227 1637.47 219.664 1630.95 219.664 1620.03C219.664 1609.06 226.32 1602.59 235.18 1602.59C242.68 1602.59 248.492 1606.95 249.523 1614.5H243.383ZM232.484 1694H220.953V1660.06H232.672C242.797 1660.06 248.938 1666.44 248.938 1676.98C248.938 1687.58 242.797 1694 232.484 1694ZM227.047 1688.7H232.156C239.234 1688.7 242.844 1684.81 242.844 1676.98C242.844 1669.2 239.234 1665.36 232.344 1665.36H227.047V1688.7ZM223.672 1751V1717.06H245.75V1722.17H229.766V1731.45H244.578V1736.56H229.766V1745.84H245.844V1751H223.672ZM224.188 1808V1774.06H245.938V1779.17H230.281V1788.45H244.438V1793.56H230.281V1808H224.188ZM242.984 1841.89C241.906 1838.28 239.094 1836.08 234.969 1836.08C229.484 1836.08 225.547 1840.34 225.547 1847.98C225.547 1855.72 229.438 1859.98 235.109 1859.98C240.219 1859.98 243.5 1856.89 243.594 1852.06H235.719V1847.23H249.5V1851.31C249.5 1860.03 243.5 1865.47 235.109 1865.47C225.734 1865.47 219.406 1858.81 219.406 1848.03C219.406 1837.16 226.016 1830.59 234.922 1830.59C242.422 1830.59 248.188 1835.23 249.219 1841.89H242.984ZM220.484 1922V1888.06H226.578V1902.45H242.375V1888.06H248.516V1922H242.375V1907.56H226.578V1922H220.484ZM237.523 1945.06V1979H231.43V1945.06H237.523ZM238.18 2002.06H244.227V2025.92C244.227 2032.48 239.82 2036.47 233.305 2036.47C227.352 2036.47 222.805 2033.23 222.805 2027H228.898C228.898 2029.77 230.773 2031.45 233.539 2031.45C236.492 2031.45 238.133 2029.53 238.18 2025.92V2002.06ZM222.055 2093V2059.06H228.148V2074.67H228.617L241.883 2059.06H249.336L236.211 2074.3L249.477 2093H242.117L231.945 2078.42L228.148 2082.88V2093H222.055ZM224.656 2150V2116.06H230.75V2144.84H245.75V2150H224.656ZM216.711 2173.06H224.211L234.289 2197.72H234.711L244.789 2173.06H252.289V2207H246.43V2183.66H246.102L236.68 2206.91H232.32L222.898 2183.56H222.617V2207H216.711V2173.06ZM248.445 2230.06V2264H243.008L226.93 2240.8H226.648V2264H220.555V2230.06H226.086L242.07 2253.27H242.398V2230.06H248.445ZM250.062 2304.03C250.062 2315 243.406 2321.47 234.5 2321.47C225.594 2321.47 218.938 2314.95 218.938 2304.03C218.938 2293.06 225.594 2286.59 234.5 2286.59C243.406 2286.59 250.062 2293.06 250.062 2304.03ZM243.922 2304.03C243.922 2296.3 240.031 2292.08 234.5 2292.08C228.969 2292.08 225.078 2296.3 225.078 2304.03C225.078 2311.77 228.969 2315.98 234.5 2315.98C240.031 2315.98 243.922 2311.77 243.922 2304.03ZM222.828 2378V2344.06H235.578C243.359 2344.06 247.531 2348.8 247.531 2355.31C247.531 2361.83 243.312 2366.52 235.484 2366.52H228.922V2378H222.828ZM228.922 2361.5H234.641C239.234 2361.5 241.297 2358.92 241.297 2355.31C241.297 2351.66 239.234 2349.17 234.641 2349.17H228.922V2361.5ZM232.367 2423.61H237.945L240.852 2427.41C242.75 2425.39 243.898 2422.23 243.898 2418.03C243.898 2410.3 240.008 2406.08 234.477 2406.08C228.945 2406.08 225.055 2410.3 225.055 2418.03C225.055 2425.77 228.945 2429.98 234.477 2429.98C235.367 2429.98 236.211 2429.87 237.008 2429.66L232.367 2423.61ZM250.039 2418.03C250.039 2424.2 247.93 2428.93 244.555 2431.91L249.242 2437.95H243.289L240.477 2434.34C238.648 2435.09 236.633 2435.47 234.477 2435.47C225.57 2435.47 218.914 2428.95 218.914 2418.03C218.914 2407.06 225.57 2400.59 234.477 2400.59C243.383 2400.59 250.039 2407.06 250.039 2418.03ZM222.664 2492V2458.06H235.414C243.195 2458.06 247.367 2462.42 247.367 2468.89C247.367 2473.51 245.258 2476.93 241.273 2478.55L248.586 2492H241.789L235.133 2479.58H228.758V2492H222.664ZM228.758 2474.47H234.477C239.07 2474.47 241.133 2472.5 241.133 2468.89C241.133 2465.28 239.07 2463.17 234.477 2463.17H228.758V2474.47ZM241.18 2524.39C240.898 2521.48 238.414 2519.8 234.758 2519.8C230.914 2519.8 228.57 2521.67 228.57 2524.2C228.57 2527.06 231.57 2528.23 234.383 2528.89L237.57 2529.73C242.633 2530.91 247.508 2533.58 247.508 2539.48C247.508 2545.44 242.82 2549.52 234.664 2549.52C226.742 2549.52 221.773 2545.72 221.492 2539.02H227.492C227.773 2542.58 230.773 2544.31 234.617 2544.31C238.648 2544.31 241.414 2542.34 241.414 2539.44C241.414 2536.77 238.93 2535.64 235.273 2534.7L231.43 2533.72C225.852 2532.27 222.383 2529.45 222.383 2524.58C222.383 2518.58 227.727 2514.59 234.852 2514.59C242.07 2514.59 246.945 2518.67 247.039 2524.39H241.18ZM220.977 2577.17V2572.06H248.023V2577.17H237.57V2606H231.477V2577.17H220.977ZM242.141 2629.06H248.281V2651.23C248.281 2658.5 242.75 2663.52 234.5 2663.52C226.203 2663.52 220.719 2658.5 220.719 2651.23V2629.06H226.812V2650.72C226.812 2654.98 229.812 2658.08 234.5 2658.08C239.188 2658.08 242.141 2654.98 242.141 2650.72V2629.06ZM225.5 2686.06L234.312 2712.83H234.688L243.547 2686.06H250.25L238.25 2720H230.75L218.797 2686.06H225.5ZM221.516 2777L211.953 2743.06H218.516L224.656 2768.05H224.984L231.5 2743.06H237.5L244.062 2768.09H244.344L250.484 2743.06H257.047L247.484 2777H241.438L234.641 2753.14H234.406L227.562 2777H221.516ZM226.883 2800.06L234.336 2812.53H234.617L242.164 2800.06H249.102L238.648 2817.03L249.289 2834H242.211L234.617 2821.62H234.336L226.742 2834H219.711L230.445 2817.03L219.852 2800.06H226.883ZM219.102 2857.06H225.992L234.336 2872.06H234.664L243.008 2857.06H249.898L237.57 2878.3V2891H231.477V2878.3L219.102 2857.06ZM221.984 2948V2944.16L239.422 2919.17H221.891V2914.06H247.016V2917.86L229.578 2942.84H247.109V2948H221.984Z" fill="black"/>
<path d="M222.5 98V64.0625H235.484C242.844 64.0625 246.5 67.8125 246.5 72.875C246.5 77 243.875 79.2969 240.547 80.0938V80.4219C244.156 80.6094 247.812 83.6094 247.812 88.7656C247.812 94.0625 244.016 98 236.234 98H222.5ZM235.297 92.8906C239.75 92.8906 241.625 90.9688 241.625 88.2969C241.625 85.25 239.234 82.9062 235.438 82.9062H228.594V92.8906H235.297ZM234.734 78.5C237.969 78.5 240.406 76.625 240.406 73.625C240.406 71 238.531 69.125 234.875 69.125H228.594V78.5H234.734Z" fill="#37DBFF"/>
<path d="M222.5 1580V1546.06H235.484C242.844 1546.06 246.5 1549.81 246.5 1554.88C246.5 1559 243.875 1561.3 240.547 1562.09V1562.42C244.156 1562.61 247.812 1565.61 247.812 1570.77C247.812 1576.06 244.016 1580 236.234 1580H222.5ZM235.297 1574.89C239.75 1574.89 241.625 1572.97 241.625 1570.3C241.625 1567.25 239.234 1564.91 235.438 1564.91H228.594V1574.89H235.297ZM234.734 1560.5C237.969 1560.5 240.406 1558.62 240.406 1555.62C240.406 1553 238.531 1551.12 234.875 1551.12H228.594V1560.5H234.734Z" fill="#0A0B16"/>
<path d="M178.312 -871H171.797L183.75 -904.938H191.25L203.25 -871H196.734L193.922 -879.391H181.125L178.312 -871ZM182.766 -884.312H192.281L187.641 -898H187.359L182.766 -884.312ZM175.5 -814V-847.938H188.484C195.844 -847.938 199.5 -844.188 199.5 -839.125C199.5 -835 196.875 -832.703 193.547 -831.906V-831.578C197.156 -831.391 200.812 -828.391 200.812 -823.234C200.812 -817.938 197.016 -814 189.234 -814H175.5ZM188.297 -819.109C192.75 -819.109 194.625 -821.031 194.625 -823.703C194.625 -826.75 192.234 -829.094 188.438 -829.094H181.594V-819.109H188.297ZM187.734 -833.5C190.969 -833.5 193.406 -835.375 193.406 -838.375C193.406 -841 191.531 -842.875 187.875 -842.875H181.594V-833.5H187.734ZM196.383 -779.5C195.68 -783.578 192.398 -785.922 188.273 -785.922C182.695 -785.922 178.805 -781.656 178.805 -773.969C178.805 -766.188 182.742 -762.016 188.273 -762.016C192.305 -762.016 195.586 -764.266 196.383 -768.25H202.523C201.586 -761.734 196.242 -756.531 188.18 -756.531C179.227 -756.531 172.664 -763.047 172.664 -773.969C172.664 -784.938 179.32 -791.406 188.18 -791.406C195.68 -791.406 201.492 -787.047 202.523 -779.5H196.383ZM185.484 -700H173.953V-733.938H185.672C195.797 -733.938 201.938 -727.562 201.938 -717.016C201.938 -706.422 195.797 -700 185.484 -700ZM180.047 -705.297H185.156C192.234 -705.297 195.844 -709.188 195.844 -717.016C195.844 -724.797 192.234 -728.641 185.344 -728.641H180.047V-705.297ZM176.672 -643V-676.938H198.75V-671.828H182.766V-662.547H197.578V-657.438H182.766V-648.156H198.844V-643H176.672ZM177.188 -586V-619.938H198.938V-614.828H183.281V-605.547H197.438V-600.438H183.281V-586H177.188ZM195.984 -552.109C194.906 -555.719 192.094 -557.922 187.969 -557.922C182.484 -557.922 178.547 -553.656 178.547 -546.016C178.547 -538.281 182.438 -534.016 188.109 -534.016C193.219 -534.016 196.5 -537.109 196.594 -541.938H188.719V-546.766H202.5V-542.688C202.5 -533.969 196.5 -528.531 188.109 -528.531C178.734 -528.531 172.406 -535.188 172.406 -545.969C172.406 -556.844 179.016 -563.406 187.922 -563.406C195.422 -563.406 201.188 -558.766 202.219 -552.109H195.984ZM173.484 -472V-505.938H179.578V-491.547H195.375V-505.938H201.516V-472H195.375V-486.438H179.578V-472H173.484ZM190.523 -448.938V-415H184.43V-448.938H190.523ZM191.18 -391.938H197.227V-368.078C197.227 -361.516 192.82 -357.531 186.305 -357.531C180.352 -357.531 175.805 -360.766 175.805 -367H181.898C181.898 -364.234 183.773 -362.547 186.539 -362.547C189.492 -362.547 191.133 -364.469 191.18 -368.078V-391.938ZM175.055 -301V-334.938H181.148V-319.328H181.617L194.883 -334.938H202.336L189.211 -319.703L202.477 -301H195.117L184.945 -315.578L181.148 -311.125V-301H175.055ZM177.656 -244V-277.938H183.75V-249.156H198.75V-244H177.656ZM169.711 -220.938H177.211L187.289 -196.281H187.711L197.789 -220.938H205.289V-187H199.43V-210.344H199.102L189.68 -187.094H185.32L175.898 -210.438H175.617V-187H169.711V-220.938ZM201.445 -163.938V-130H196.008L179.93 -153.203H179.648V-130H173.555V-163.938H179.086L195.07 -140.734H195.398V-163.938H201.445ZM203.062 -89.9688C203.062 -79 196.406 -72.5312 187.5 -72.5312C178.594 -72.5312 171.938 -79.0469 171.938 -89.9688C171.938 -100.938 178.594 -107.406 187.5 -107.406C196.406 -107.406 203.062 -100.938 203.062 -89.9688ZM196.922 -89.9688C196.922 -97.7031 193.031 -101.922 187.5 -101.922C181.969 -101.922 178.078 -97.7031 178.078 -89.9688C178.078 -82.2344 181.969 -78.0156 187.5 -78.0156C193.031 -78.0156 196.922 -82.2344 196.922 -89.9688ZM175.828 -16V-49.9375H188.578C196.359 -49.9375 200.531 -45.2031 200.531 -38.6875C200.531 -32.1719 196.312 -27.4844 188.484 -27.4844H181.922V-16H175.828ZM181.922 -32.5H187.641C192.234 -32.5 194.297 -35.0781 194.297 -38.6875C194.297 -42.3438 192.234 -44.8281 187.641 -44.8281H181.922V-32.5ZM185.367 29.6094H190.945L193.852 33.4062C195.75 31.3906 196.898 28.2266 196.898 24.0312C196.898 16.2969 193.008 12.0781 187.477 12.0781C181.945 12.0781 178.055 16.2969 178.055 24.0312C178.055 31.7656 181.945 35.9844 187.477 35.9844C188.367 35.9844 189.211 35.8672 190.008 35.6562L185.367 29.6094ZM203.039 24.0312C203.039 30.1953 200.93 34.9297 197.555 37.9062L202.242 43.9531H196.289L193.477 40.3438C191.648 41.0938 189.633 41.4688 187.477 41.4688C178.57 41.4688 171.914 34.9531 171.914 24.0312C171.914 13.0625 178.57 6.59375 187.477 6.59375C196.383 6.59375 203.039 13.0625 203.039 24.0312ZM194.18 130.391C193.898 127.484 191.414 125.797 187.758 125.797C183.914 125.797 181.57 127.672 181.57 130.203C181.57 133.062 184.57 134.234 187.383 134.891L190.57 135.734C195.633 136.906 200.508 139.578 200.508 145.484C200.508 151.438 195.82 155.516 187.664 155.516C179.742 155.516 174.773 151.719 174.492 145.016H180.492C180.773 148.578 183.773 150.312 187.617 150.312C191.648 150.312 194.414 148.344 194.414 145.438C194.414 142.766 191.93 141.641 188.273 140.703L184.43 139.719C178.852 138.266 175.383 135.453 175.383 130.578C175.383 124.578 180.727 120.594 187.852 120.594C195.07 120.594 199.945 124.672 200.039 130.391H194.18ZM173.977 183.172V178.062H201.023V183.172H190.57V212H184.477V183.172H173.977ZM195.141 235.062H201.281V257.234C201.281 264.5 195.75 269.516 187.5 269.516C179.203 269.516 173.719 264.5 173.719 257.234V235.062H179.812V256.719C179.812 260.984 182.812 264.078 187.5 264.078C192.188 264.078 195.141 260.984 195.141 256.719V235.062ZM178.5 292.062L187.312 318.828H187.688L196.547 292.062H203.25L191.25 326H183.75L171.797 292.062H178.5ZM174.516 383L164.953 349.062H171.516L177.656 374.047H177.984L184.5 349.062H190.5L197.062 374.094H197.344L203.484 349.062H210.047L200.484 383H194.438L187.641 359.141H187.406L180.562 383H174.516ZM179.883 406.062L187.336 418.531H187.617L195.164 406.062H202.102L191.648 423.031L202.289 440H195.211L187.617 427.625H187.336L179.742 440H172.711L183.445 423.031L172.852 406.062H179.883ZM172.102 463.062H178.992L187.336 478.062H187.664L196.008 463.062H202.898L190.57 484.297V497H184.477V484.297L172.102 463.062ZM174.984 554V550.156L192.422 525.172H174.891V520.062H200.016V523.859L182.578 548.844H200.109V554H174.984ZM178.312 611H171.797L183.75 577.062H191.25L203.25 611H196.734L193.922 602.609H181.125L178.312 611ZM182.766 597.688H192.281L187.641 584H187.359L182.766 597.688ZM175.5 668V634.062H188.484C195.844 634.062 199.5 637.812 199.5 642.875C199.5 647 196.875 649.297 193.547 650.094V650.422C197.156 650.609 200.812 653.609 200.812 658.766C200.812 664.062 197.016 668 189.234 668H175.5ZM188.297 662.891C192.75 662.891 194.625 660.969 194.625 658.297C194.625 655.25 192.234 652.906 188.438 652.906H181.594V662.891H188.297ZM187.734 648.5C190.969 648.5 193.406 646.625 193.406 643.625C193.406 641 191.531 639.125 187.875 639.125H181.594V648.5H187.734ZM196.383 702.5C195.68 698.422 192.398 696.078 188.273 696.078C182.695 696.078 178.805 700.344 178.805 708.031C178.805 715.812 182.742 719.984 188.273 719.984C192.305 719.984 195.586 717.734 196.383 713.75H202.523C201.586 720.266 196.242 725.469 188.18 725.469C179.227 725.469 172.664 718.953 172.664 708.031C172.664 697.062 179.32 690.594 188.18 690.594C195.68 690.594 201.492 694.953 202.523 702.5H196.383ZM185.484 782H173.953V748.062H185.672C195.797 748.062 201.938 754.438 201.938 764.984C201.938 775.578 195.797 782 185.484 782ZM180.047 776.703H185.156C192.234 776.703 195.844 772.812 195.844 764.984C195.844 757.203 192.234 753.359 185.344 753.359H180.047V776.703ZM176.672 839V805.062H198.75V810.172H182.766V819.453H197.578V824.562H182.766V833.844H198.844V839H176.672ZM177.188 896V862.062H198.938V867.172H183.281V876.453H197.438V881.562H183.281V896H177.188ZM195.984 929.891C194.906 926.281 192.094 924.078 187.969 924.078C182.484 924.078 178.547 928.344 178.547 935.984C178.547 943.719 182.438 947.984 188.109 947.984C193.219 947.984 196.5 944.891 196.594 940.062H188.719V935.234H202.5V939.312C202.5 948.031 196.5 953.469 188.109 953.469C178.734 953.469 172.406 946.812 172.406 936.031C172.406 925.156 179.016 918.594 187.922 918.594C195.422 918.594 201.188 923.234 202.219 929.891H195.984ZM173.484 1010V976.062H179.578V990.453H195.375V976.062H201.516V1010H195.375V995.562H179.578V1010H173.484ZM190.523 1033.06V1067H184.43V1033.06H190.523ZM191.18 1090.06H197.227V1113.92C197.227 1120.48 192.82 1124.47 186.305 1124.47C180.352 1124.47 175.805 1121.23 175.805 1115H181.898C181.898 1117.77 183.773 1119.45 186.539 1119.45C189.492 1119.45 191.133 1117.53 191.18 1113.92V1090.06ZM175.055 1181V1147.06H181.148V1162.67H181.617L194.883 1147.06H202.336L189.211 1162.3L202.477 1181H195.117L184.945 1166.42L181.148 1170.88V1181H175.055ZM177.656 1238V1204.06H183.75V1232.84H198.75V1238H177.656ZM169.711 1261.06H177.211L187.289 1285.72H187.711L197.789 1261.06H205.289V1295H199.43V1271.66H199.102L189.68 1294.91H185.32L175.898 1271.56H175.617V1295H169.711V1261.06ZM201.445 1318.06V1352H196.008L179.93 1328.8H179.648V1352H173.555V1318.06H179.086L195.07 1341.27H195.398V1318.06H201.445ZM203.062 1392.03C203.062 1403 196.406 1409.47 187.5 1409.47C178.594 1409.47 171.938 1402.95 171.938 1392.03C171.938 1381.06 178.594 1374.59 187.5 1374.59C196.406 1374.59 203.062 1381.06 203.062 1392.03ZM196.922 1392.03C196.922 1384.3 193.031 1380.08 187.5 1380.08C181.969 1380.08 178.078 1384.3 178.078 1392.03C178.078 1399.77 181.969 1403.98 187.5 1403.98C193.031 1403.98 196.922 1399.77 196.922 1392.03ZM175.828 1466V1432.06H188.578C196.359 1432.06 200.531 1436.8 200.531 1443.31C200.531 1449.83 196.312 1454.52 188.484 1454.52H181.922V1466H175.828ZM181.922 1449.5H187.641C192.234 1449.5 194.297 1446.92 194.297 1443.31C194.297 1439.66 192.234 1437.17 187.641 1437.17H181.922V1449.5ZM185.367 1511.61H190.945L193.852 1515.41C195.75 1513.39 196.898 1510.23 196.898 1506.03C196.898 1498.3 193.008 1494.08 187.477 1494.08C181.945 1494.08 178.055 1498.3 178.055 1506.03C178.055 1513.77 181.945 1517.98 187.477 1517.98C188.367 1517.98 189.211 1517.87 190.008 1517.66L185.367 1511.61ZM203.039 1506.03C203.039 1512.2 200.93 1516.93 197.555 1519.91L202.242 1525.95H196.289L193.477 1522.34C191.648 1523.09 189.633 1523.47 187.477 1523.47C178.57 1523.47 171.914 1516.95 171.914 1506.03C171.914 1495.06 178.57 1488.59 187.477 1488.59C196.383 1488.59 203.039 1495.06 203.039 1506.03ZM175.664 1580V1546.06H188.414C196.195 1546.06 200.367 1550.42 200.367 1556.89C200.367 1561.51 198.258 1564.93 194.273 1566.55L201.586 1580H194.789L188.133 1567.58H181.758V1580H175.664ZM181.758 1562.47H187.477C192.07 1562.47 194.133 1560.5 194.133 1556.89C194.133 1553.28 192.07 1551.17 187.477 1551.17H181.758V1562.47ZM194.18 1612.39C193.898 1609.48 191.414 1607.8 187.758 1607.8C183.914 1607.8 181.57 1609.67 181.57 1612.2C181.57 1615.06 184.57 1616.23 187.383 1616.89L190.57 1617.73C195.633 1618.91 200.508 1621.58 200.508 1627.48C200.508 1633.44 195.82 1637.52 187.664 1637.52C179.742 1637.52 174.773 1633.72 174.492 1627.02H180.492C180.773 1630.58 183.773 1632.31 187.617 1632.31C191.648 1632.31 194.414 1630.34 194.414 1627.44C194.414 1624.77 191.93 1623.64 188.273 1622.7L184.43 1621.72C178.852 1620.27 175.383 1617.45 175.383 1612.58C175.383 1606.58 180.727 1602.59 187.852 1602.59C195.07 1602.59 199.945 1606.67 200.039 1612.39H194.18ZM173.977 1665.17V1660.06H201.023V1665.17H190.57V1694H184.477V1665.17H173.977ZM195.141 1717.06H201.281V1739.23C201.281 1746.5 195.75 1751.52 187.5 1751.52C179.203 1751.52 173.719 1746.5 173.719 1739.23V1717.06H179.812V1738.72C179.812 1742.98 182.812 1746.08 187.5 1746.08C192.188 1746.08 195.141 1742.98 195.141 1738.72V1717.06ZM178.5 1774.06L187.312 1800.83H187.688L196.547 1774.06H203.25L191.25 1808H183.75L171.797 1774.06H178.5ZM174.516 1865L164.953 1831.06H171.516L177.656 1856.05H177.984L184.5 1831.06H190.5L197.062 1856.09H197.344L203.484 1831.06H210.047L200.484 1865H194.438L187.641 1841.14H187.406L180.562 1865H174.516ZM179.883 1888.06L187.336 1900.53H187.617L195.164 1888.06H202.102L191.648 1905.03L202.289 1922H195.211L187.617 1909.62H187.336L179.742 1922H172.711L183.445 1905.03L172.852 1888.06H179.883ZM172.102 1945.06H178.992L187.336 1960.06H187.664L196.008 1945.06H202.898L190.57 1966.3V1979H184.477V1966.3L172.102 1945.06ZM174.984 2036V2032.16L192.422 2007.17H174.891V2002.06H200.016V2005.86L182.578 2030.84H200.109V2036H174.984Z" fill="black"/>
<path d="M175.664 98V64.0625H188.414C196.195 64.0625 200.367 68.4219 200.367 74.8906C200.367 79.5078 198.258 82.9297 194.273 84.5469L201.586 98H194.789L188.133 85.5781H181.758V98H175.664ZM181.758 80.4688H187.477C192.07 80.4688 194.133 78.5 194.133 74.8906C194.133 71.2812 192.07 69.1719 187.477 69.1719H181.758V80.4688Z" fill="#37DBFF"/>
<path d="M131.312 -1384H124.797L136.75 -1417.94H144.25L156.25 -1384H149.734L146.922 -1392.39H134.125L131.312 -1384ZM135.766 -1397.31H145.281L140.641 -1411H140.359L135.766 -1397.31ZM128.5 -1327V-1360.94H141.484C148.844 -1360.94 152.5 -1357.19 152.5 -1352.12C152.5 -1348 149.875 -1345.7 146.547 -1344.91V-1344.58C150.156 -1344.39 153.812 -1341.39 153.812 -1336.23C153.812 -1330.94 150.016 -1327 142.234 -1327H128.5ZM141.297 -1332.11C145.75 -1332.11 147.625 -1334.03 147.625 -1336.7C147.625 -1339.75 145.234 -1342.09 141.438 -1342.09H134.594V-1332.11H141.297ZM140.734 -1346.5C143.969 -1346.5 146.406 -1348.38 146.406 -1351.38C146.406 -1354 144.531 -1355.88 140.875 -1355.88H134.594V-1346.5H140.734ZM149.383 -1292.5C148.68 -1296.58 145.398 -1298.92 141.273 -1298.92C135.695 -1298.92 131.805 -1294.66 131.805 -1286.97C131.805 -1279.19 135.742 -1275.02 141.273 -1275.02C145.305 -1275.02 148.586 -1277.27 149.383 -1281.25H155.523C154.586 -1274.73 149.242 -1269.53 141.18 -1269.53C132.227 -1269.53 125.664 -1276.05 125.664 -1286.97C125.664 -1297.94 132.32 -1304.41 141.18 -1304.41C148.68 -1304.41 154.492 -1300.05 155.523 -1292.5H149.383ZM138.484 -1213H126.953V-1246.94H138.672C148.797 -1246.94 154.938 -1240.56 154.938 -1230.02C154.938 -1219.42 148.797 -1213 138.484 -1213ZM133.047 -1218.3H138.156C145.234 -1218.3 148.844 -1222.19 148.844 -1230.02C148.844 -1237.8 145.234 -1241.64 138.344 -1241.64H133.047V-1218.3ZM129.672 -1156V-1189.94H151.75V-1184.83H135.766V-1175.55H150.578V-1170.44H135.766V-1161.16H151.844V-1156H129.672ZM130.188 -1099V-1132.94H151.938V-1127.83H136.281V-1118.55H150.438V-1113.44H136.281V-1099H130.188ZM148.984 -1065.11C147.906 -1068.72 145.094 -1070.92 140.969 -1070.92C135.484 -1070.92 131.547 -1066.66 131.547 -1059.02C131.547 -1051.28 135.438 -1047.02 141.109 -1047.02C146.219 -1047.02 149.5 -1050.11 149.594 -1054.94H141.719V-1059.77H155.5V-1055.69C155.5 -1046.97 149.5 -1041.53 141.109 -1041.53C131.734 -1041.53 125.406 -1048.19 125.406 -1058.97C125.406 -1069.84 132.016 -1076.41 140.922 -1076.41C148.422 -1076.41 154.188 -1071.77 155.219 -1065.11H148.984ZM126.484 -985V-1018.94H132.578V-1004.55H148.375V-1018.94H154.516V-985H148.375V-999.438H132.578V-985H126.484ZM143.523 -961.938V-928H137.43V-961.938H143.523ZM144.18 -904.938H150.227V-881.078C150.227 -874.516 145.82 -870.531 139.305 -870.531C133.352 -870.531 128.805 -873.766 128.805 -880H134.898C134.898 -877.234 136.773 -875.547 139.539 -875.547C142.492 -875.547 144.133 -877.469 144.18 -881.078V-904.938ZM128.055 -814V-847.938H134.148V-832.328H134.617L147.883 -847.938H155.336L142.211 -832.703L155.477 -814H148.117L137.945 -828.578L134.148 -824.125V-814H128.055ZM130.656 -757V-790.938H136.75V-762.156H151.75V-757H130.656ZM122.711 -733.938H130.211L140.289 -709.281H140.711L150.789 -733.938H158.289V-700H152.43V-723.344H152.102L142.68 -700.094H138.32L128.898 -723.438H128.617V-700H122.711V-733.938ZM154.445 -676.938V-643H149.008L132.93 -666.203H132.648V-643H126.555V-676.938H132.086L148.07 -653.734H148.398V-676.938H154.445ZM156.062 -602.969C156.062 -592 149.406 -585.531 140.5 -585.531C131.594 -585.531 124.938 -592.047 124.938 -602.969C124.938 -613.938 131.594 -620.406 140.5 -620.406C149.406 -620.406 156.062 -613.938 156.062 -602.969ZM149.922 -602.969C149.922 -610.703 146.031 -614.922 140.5 -614.922C134.969 -614.922 131.078 -610.703 131.078 -602.969C131.078 -595.234 134.969 -591.016 140.5 -591.016C146.031 -591.016 149.922 -595.234 149.922 -602.969ZM128.828 -529V-562.938H141.578C149.359 -562.938 153.531 -558.203 153.531 -551.688C153.531 -545.172 149.312 -540.484 141.484 -540.484H134.922V-529H128.828ZM134.922 -545.5H140.641C145.234 -545.5 147.297 -548.078 147.297 -551.688C147.297 -555.344 145.234 -557.828 140.641 -557.828H134.922V-545.5ZM138.367 -483.391H143.945L146.852 -479.594C148.75 -481.609 149.898 -484.773 149.898 -488.969C149.898 -496.703 146.008 -500.922 140.477 -500.922C134.945 -500.922 131.055 -496.703 131.055 -488.969C131.055 -481.234 134.945 -477.016 140.477 -477.016C141.367 -477.016 142.211 -477.133 143.008 -477.344L138.367 -483.391ZM156.039 -488.969C156.039 -482.805 153.93 -478.07 150.555 -475.094L155.242 -469.047H149.289L146.477 -472.656C144.648 -471.906 142.633 -471.531 140.477 -471.531C131.57 -471.531 124.914 -478.047 124.914 -488.969C124.914 -499.938 131.57 -506.406 140.477 -506.406C149.383 -506.406 156.039 -499.938 156.039 -488.969ZM128.664 -415V-448.938H141.414C149.195 -448.938 153.367 -444.578 153.367 -438.109C153.367 -433.492 151.258 -430.07 147.273 -428.453L154.586 -415H147.789L141.133 -427.422H134.758V-415H128.664ZM134.758 -432.531H140.477C145.07 -432.531 147.133 -434.5 147.133 -438.109C147.133 -441.719 145.07 -443.828 140.477 -443.828H134.758V-432.531ZM147.18 -382.609C146.898 -385.516 144.414 -387.203 140.758 -387.203C136.914 -387.203 134.57 -385.328 134.57 -382.797C134.57 -379.938 137.57 -378.766 140.383 -378.109L143.57 -377.266C148.633 -376.094 153.508 -373.422 153.508 -367.516C153.508 -361.562 148.82 -357.484 140.664 -357.484C132.742 -357.484 127.773 -361.281 127.492 -367.984H133.492C133.773 -364.422 136.773 -362.688 140.617 -362.688C144.648 -362.688 147.414 -364.656 147.414 -367.562C147.414 -370.234 144.93 -371.359 141.273 -372.297L137.43 -373.281C131.852 -374.734 128.383 -377.547 128.383 -382.422C128.383 -388.422 133.727 -392.406 140.852 -392.406C148.07 -392.406 152.945 -388.328 153.039 -382.609H147.18ZM126.977 -329.828V-334.938H154.023V-329.828H143.57V-301H137.477V-329.828H126.977ZM148.141 -277.938H154.281V-255.766C154.281 -248.5 148.75 -243.484 140.5 -243.484C132.203 -243.484 126.719 -248.5 126.719 -255.766V-277.938H132.812V-256.281C132.812 -252.016 135.812 -248.922 140.5 -248.922C145.188 -248.922 148.141 -252.016 148.141 -256.281V-277.938ZM131.5 -220.938L140.312 -194.172H140.688L149.547 -220.938H156.25L144.25 -187H136.75L124.797 -220.938H131.5ZM127.516 -130L117.953 -163.938H124.516L130.656 -138.953H130.984L137.5 -163.938H143.5L150.062 -138.906H150.344L156.484 -163.938H163.047L153.484 -130H147.438L140.641 -153.859H140.406L133.562 -130H127.516ZM132.883 -106.938L140.336 -94.4688H140.617L148.164 -106.938H155.102L144.648 -89.9688L155.289 -73H148.211L140.617 -85.375H140.336L132.742 -73H125.711L136.445 -89.9688L125.852 -106.938H132.883ZM125.102 -49.9375H131.992L140.336 -34.9375H140.664L149.008 -49.9375H155.898L143.57 -28.7031V-16H137.477V-28.7031L125.102 -49.9375ZM127.984 41V37.1562L145.422 12.1719H127.891V7.0625H153.016V10.8594L135.578 35.8438H153.109V41H127.984ZM128.5 155V121.062H141.484C148.844 121.062 152.5 124.812 152.5 129.875C152.5 134 149.875 136.297 146.547 137.094V137.422C150.156 137.609 153.812 140.609 153.812 145.766C153.812 151.062 150.016 155 142.234 155H128.5ZM141.297 149.891C145.75 149.891 147.625 147.969 147.625 145.297C147.625 142.25 145.234 139.906 141.438 139.906H134.594V149.891H141.297ZM140.734 135.5C143.969 135.5 146.406 133.625 146.406 130.625C146.406 128 144.531 126.125 140.875 126.125H134.594V135.5H140.734ZM149.383 189.5C148.68 185.422 145.398 183.078 141.273 183.078C135.695 183.078 131.805 187.344 131.805 195.031C131.805 202.812 135.742 206.984 141.273 206.984C145.305 206.984 148.586 204.734 149.383 200.75H155.523C154.586 207.266 149.242 212.469 141.18 212.469C132.227 212.469 125.664 205.953 125.664 195.031C125.664 184.062 132.32 177.594 141.18 177.594C148.68 177.594 154.492 181.953 155.523 189.5H149.383ZM138.484 269H126.953V235.062H138.672C148.797 235.062 154.938 241.438 154.938 251.984C154.938 262.578 148.797 269 138.484 269ZM133.047 263.703H138.156C145.234 263.703 148.844 259.812 148.844 251.984C148.844 244.203 145.234 240.359 138.344 240.359H133.047V263.703ZM129.672 326V292.062H151.75V297.172H135.766V306.453H150.578V311.562H135.766V320.844H151.844V326H129.672ZM130.188 383V349.062H151.938V354.172H136.281V363.453H150.438V368.562H136.281V383H130.188ZM148.984 416.891C147.906 413.281 145.094 411.078 140.969 411.078C135.484 411.078 131.547 415.344 131.547 422.984C131.547 430.719 135.438 434.984 141.109 434.984C146.219 434.984 149.5 431.891 149.594 427.062H141.719V422.234H155.5V426.312C155.5 435.031 149.5 440.469 141.109 440.469C131.734 440.469 125.406 433.812 125.406 423.031C125.406 412.156 132.016 405.594 140.922 405.594C148.422 405.594 154.188 410.234 155.219 416.891H148.984ZM126.484 497V463.062H132.578V477.453H148.375V463.062H154.516V497H148.375V482.562H132.578V497H126.484ZM143.523 520.062V554H137.43V520.062H143.523ZM144.18 577.062H150.227V600.922C150.227 607.484 145.82 611.469 139.305 611.469C133.352 611.469 128.805 608.234 128.805 602H134.898C134.898 604.766 136.773 606.453 139.539 606.453C142.492 606.453 144.133 604.531 144.18 600.922V577.062ZM128.055 668V634.062H134.148V649.672H134.617L147.883 634.062H155.336L142.211 649.297L155.477 668H148.117L137.945 653.422L134.148 657.875V668H128.055ZM130.656 725V691.062H136.75V719.844H151.75V725H130.656ZM122.711 748.062H130.211L140.289 772.719H140.711L150.789 748.062H158.289V782H152.43V758.656H152.102L142.68 781.906H138.32L128.898 758.562H128.617V782H122.711V748.062ZM154.445 805.062V839H149.008L132.93 815.797H132.648V839H126.555V805.062H132.086L148.07 828.266H148.398V805.062H154.445ZM156.062 879.031C156.062 890 149.406 896.469 140.5 896.469C131.594 896.469 124.938 889.953 124.938 879.031C124.938 868.062 131.594 861.594 140.5 861.594C149.406 861.594 156.062 868.062 156.062 879.031ZM149.922 879.031C149.922 871.297 146.031 867.078 140.5 867.078C134.969 867.078 131.078 871.297 131.078 879.031C131.078 886.766 134.969 890.984 140.5 890.984C146.031 890.984 149.922 886.766 149.922 879.031ZM128.828 953V919.062H141.578C149.359 919.062 153.531 923.797 153.531 930.312C153.531 936.828 149.312 941.516 141.484 941.516H134.922V953H128.828ZM134.922 936.5H140.641C145.234 936.5 147.297 933.922 147.297 930.312C147.297 926.656 145.234 924.172 140.641 924.172H134.922V936.5ZM138.367 998.609H143.945L146.852 1002.41C148.75 1000.39 149.898 997.227 149.898 993.031C149.898 985.297 146.008 981.078 140.477 981.078C134.945 981.078 131.055 985.297 131.055 993.031C131.055 1000.77 134.945 1004.98 140.477 1004.98C141.367 1004.98 142.211 1004.87 143.008 1004.66L138.367 998.609ZM156.039 993.031C156.039 999.195 153.93 1003.93 150.555 1006.91L155.242 1012.95H149.289L146.477 1009.34C144.648 1010.09 142.633 1010.47 140.477 1010.47C131.57 1010.47 124.914 1003.95 124.914 993.031C124.914 982.062 131.57 975.594 140.477 975.594C149.383 975.594 156.039 982.062 156.039 993.031ZM128.664 1067V1033.06H141.414C149.195 1033.06 153.367 1037.42 153.367 1043.89C153.367 1048.51 151.258 1051.93 147.273 1053.55L154.586 1067H147.789L141.133 1054.58H134.758V1067H128.664ZM134.758 1049.47H140.477C145.07 1049.47 147.133 1047.5 147.133 1043.89C147.133 1040.28 145.07 1038.17 140.477 1038.17H134.758V1049.47ZM147.18 1099.39C146.898 1096.48 144.414 1094.8 140.758 1094.8C136.914 1094.8 134.57 1096.67 134.57 1099.2C134.57 1102.06 137.57 1103.23 140.383 1103.89L143.57 1104.73C148.633 1105.91 153.508 1108.58 153.508 1114.48C153.508 1120.44 148.82 1124.52 140.664 1124.52C132.742 1124.52 127.773 1120.72 127.492 1114.02H133.492C133.773 1117.58 136.773 1119.31 140.617 1119.31C144.648 1119.31 147.414 1117.34 147.414 1114.44C147.414 1111.77 144.93 1110.64 141.273 1109.7L137.43 1108.72C131.852 1107.27 128.383 1104.45 128.383 1099.58C128.383 1093.58 133.727 1089.59 140.852 1089.59C148.07 1089.59 152.945 1093.67 153.039 1099.39H147.18ZM126.977 1152.17V1147.06H154.023V1152.17H143.57V1181H137.477V1152.17H126.977ZM148.141 1204.06H154.281V1226.23C154.281 1233.5 148.75 1238.52 140.5 1238.52C132.203 1238.52 126.719 1233.5 126.719 1226.23V1204.06H132.812V1225.72C132.812 1229.98 135.812 1233.08 140.5 1233.08C145.188 1233.08 148.141 1229.98 148.141 1225.72V1204.06ZM131.5 1261.06L140.312 1287.83H140.688L149.547 1261.06H156.25L144.25 1295H136.75L124.797 1261.06H131.5ZM127.516 1352L117.953 1318.06H124.516L130.656 1343.05H130.984L137.5 1318.06H143.5L150.062 1343.09H150.344L156.484 1318.06H163.047L153.484 1352H147.438L140.641 1328.14H140.406L133.562 1352H127.516ZM132.883 1375.06L140.336 1387.53H140.617L148.164 1375.06H155.102L144.648 1392.03L155.289 1409H148.211L140.617 1396.62H140.336L132.742 1409H125.711L136.445 1392.03L125.852 1375.06H132.883ZM125.102 1432.06H131.992L140.336 1447.06H140.664L149.008 1432.06H155.898L143.57 1453.3V1466H137.477V1453.3L125.102 1432.06ZM127.984 1523V1519.16L145.422 1494.17H127.891V1489.06H153.016V1492.86L135.578 1517.84H153.109V1523H127.984Z" fill="black"/>
<path d="M131.312 98H124.797L136.75 64.0625H144.25L156.25 98H149.734L146.922 89.6094H134.125L131.312 98ZM135.766 84.6875H145.281L140.641 71H140.359L135.766 84.6875Z" fill="#37DBFF"/>
<path d="M84.3125 -529H77.7969L89.75 -562.938H97.25L109.25 -529H102.734L99.9219 -537.391H87.125L84.3125 -529ZM88.7656 -542.312H98.2812L93.6406 -556H93.3594L88.7656 -542.312ZM81.5 -472V-505.938H94.4844C101.844 -505.938 105.5 -502.188 105.5 -497.125C105.5 -493 102.875 -490.703 99.5469 -489.906V-489.578C103.156 -489.391 106.812 -486.391 106.812 -481.234C106.812 -475.938 103.016 -472 95.2344 -472H81.5ZM94.2969 -477.109C98.75 -477.109 100.625 -479.031 100.625 -481.703C100.625 -484.75 98.2344 -487.094 94.4375 -487.094H87.5938V-477.109H94.2969ZM93.7344 -491.5C96.9688 -491.5 99.4062 -493.375 99.4062 -496.375C99.4062 -499 97.5312 -500.875 93.875 -500.875H87.5938V-491.5H93.7344ZM102.383 -437.5C101.68 -441.578 98.3984 -443.922 94.2734 -443.922C88.6953 -443.922 84.8047 -439.656 84.8047 -431.969C84.8047 -424.188 88.7422 -420.016 94.2734 -420.016C98.3047 -420.016 101.586 -422.266 102.383 -426.25H108.523C107.586 -419.734 102.242 -414.531 94.1797 -414.531C85.2266 -414.531 78.6641 -421.047 78.6641 -431.969C78.6641 -442.938 85.3203 -449.406 94.1797 -449.406C101.68 -449.406 107.492 -445.047 108.523 -437.5H102.383ZM91.4844 -358H79.9531V-391.938H91.6719C101.797 -391.938 107.938 -385.562 107.938 -375.016C107.938 -364.422 101.797 -358 91.4844 -358ZM86.0469 -363.297H91.1562C98.2344 -363.297 101.844 -367.188 101.844 -375.016C101.844 -382.797 98.2344 -386.641 91.3438 -386.641H86.0469V-363.297ZM82.6719 -301V-334.938H104.75V-329.828H88.7656V-320.547H103.578V-315.438H88.7656V-306.156H104.844V-301H82.6719ZM83.1875 -244V-277.938H104.938V-272.828H89.2812V-263.547H103.438V-258.438H89.2812V-244H83.1875ZM101.984 -210.109C100.906 -213.719 98.0938 -215.922 93.9688 -215.922C88.4844 -215.922 84.5469 -211.656 84.5469 -204.016C84.5469 -196.281 88.4375 -192.016 94.1094 -192.016C99.2188 -192.016 102.5 -195.109 102.594 -199.938H94.7188V-204.766H108.5V-200.688C108.5 -191.969 102.5 -186.531 94.1094 -186.531C84.7344 -186.531 78.4062 -193.188 78.4062 -203.969C78.4062 -214.844 85.0156 -221.406 93.9219 -221.406C101.422 -221.406 107.188 -216.766 108.219 -210.109H101.984ZM79.4844 -130V-163.938H85.5781V-149.547H101.375V-163.938H107.516V-130H101.375V-144.438H85.5781V-130H79.4844ZM96.5234 -106.938V-73H90.4297V-106.938H96.5234ZM97.1797 -49.9375H103.227V-26.0781C103.227 -19.5156 98.8203 -15.5312 92.3047 -15.5312C86.3516 -15.5312 81.8047 -18.7656 81.8047 -25H87.8984C87.8984 -22.2344 89.7734 -20.5469 92.5391 -20.5469C95.4922 -20.5469 97.1328 -22.4688 97.1797 -26.0781V-49.9375ZM81.0547 41V7.0625H87.1484V22.6719H87.6172L100.883 7.0625H108.336L95.2109 22.2969L108.477 41H101.117L90.9453 26.4219L87.1484 30.875V41H81.0547ZM75.7109 121.062H83.2109L93.2891 145.719H93.7109L103.789 121.062H111.289V155H105.43V131.656H105.102L95.6797 154.906H91.3203L81.8984 131.562H81.6172V155H75.7109V121.062ZM107.445 178.062V212H102.008L85.9297 188.797H85.6484V212H79.5547V178.062H85.0859L101.07 201.266H101.398V178.062H107.445ZM109.062 252.031C109.062 263 102.406 269.469 93.5 269.469C84.5938 269.469 77.9375 262.953 77.9375 252.031C77.9375 241.062 84.5938 234.594 93.5 234.594C102.406 234.594 109.062 241.062 109.062 252.031ZM102.922 252.031C102.922 244.297 99.0312 240.078 93.5 240.078C87.9688 240.078 84.0781 244.297 84.0781 252.031C84.0781 259.766 87.9688 263.984 93.5 263.984C99.0312 263.984 102.922 259.766 102.922 252.031ZM81.8281 326V292.062H94.5781C102.359 292.062 106.531 296.797 106.531 303.312C106.531 309.828 102.312 314.516 94.4844 314.516H87.9219V326H81.8281ZM87.9219 309.5H93.6406C98.2344 309.5 100.297 306.922 100.297 303.312C100.297 299.656 98.2344 297.172 93.6406 297.172H87.9219V309.5ZM91.3672 371.609H96.9453L99.8516 375.406C101.75 373.391 102.898 370.227 102.898 366.031C102.898 358.297 99.0078 354.078 93.4766 354.078C87.9453 354.078 84.0547 358.297 84.0547 366.031C84.0547 373.766 87.9453 377.984 93.4766 377.984C94.3672 377.984 95.2109 377.867 96.0078 377.656L91.3672 371.609ZM109.039 366.031C109.039 372.195 106.93 376.93 103.555 379.906L108.242 385.953H102.289L99.4766 382.344C97.6484 383.094 95.6328 383.469 93.4766 383.469C84.5703 383.469 77.9141 376.953 77.9141 366.031C77.9141 355.062 84.5703 348.594 93.4766 348.594C102.383 348.594 109.039 355.062 109.039 366.031ZM81.6641 440V406.062H94.4141C102.195 406.062 106.367 410.422 106.367 416.891C106.367 421.508 104.258 424.93 100.273 426.547L107.586 440H100.789L94.1328 427.578H87.7578V440H81.6641ZM87.7578 422.469H93.4766C98.0703 422.469 100.133 420.5 100.133 416.891C100.133 413.281 98.0703 411.172 93.4766 411.172H87.7578V422.469ZM100.18 472.391C99.8984 469.484 97.4141 467.797 93.7578 467.797C89.9141 467.797 87.5703 469.672 87.5703 472.203C87.5703 475.062 90.5703 476.234 93.3828 476.891L96.5703 477.734C101.633 478.906 106.508 481.578 106.508 487.484C106.508 493.438 101.82 497.516 93.6641 497.516C85.7422 497.516 80.7734 493.719 80.4922 487.016H86.4922C86.7734 490.578 89.7734 492.312 93.6172 492.312C97.6484 492.312 100.414 490.344 100.414 487.438C100.414 484.766 97.9297 483.641 94.2734 482.703L90.4297 481.719C84.8516 480.266 81.3828 477.453 81.3828 472.578C81.3828 466.578 86.7266 462.594 93.8516 462.594C101.07 462.594 105.945 466.672 106.039 472.391H100.18ZM79.9766 525.172V520.062H107.023V525.172H96.5703V554H90.4766V525.172H79.9766ZM101.141 577.062H107.281V599.234C107.281 606.5 101.75 611.516 93.5 611.516C85.2031 611.516 79.7188 606.5 79.7188 599.234V577.062H85.8125V598.719C85.8125 602.984 88.8125 606.078 93.5 606.078C98.1875 606.078 101.141 602.984 101.141 598.719V577.062ZM84.5 634.062L93.3125 660.828H93.6875L102.547 634.062H109.25L97.25 668H89.75L77.7969 634.062H84.5ZM80.5156 725L70.9531 691.062H77.5156L83.6562 716.047H83.9844L90.5 691.062H96.5L103.062 716.094H103.344L109.484 691.062H116.047L106.484 725H100.438L93.6406 701.141H93.4062L86.5625 725H80.5156ZM85.8828 748.062L93.3359 760.531H93.6172L101.164 748.062H108.102L97.6484 765.031L108.289 782H101.211L93.6172 769.625H93.3359L85.7422 782H78.7109L89.4453 765.031L78.8516 748.062H85.8828ZM78.1016 805.062H84.9922L93.3359 820.062H93.6641L102.008 805.062H108.898L96.5703 826.297V839H90.4766V826.297L78.1016 805.062ZM80.9844 896V892.156L98.4219 867.172H80.8906V862.062H106.016V865.859L88.5781 890.844H106.109V896H80.9844ZM84.3125 953H77.7969L89.75 919.062H97.25L109.25 953H102.734L99.9219 944.609H87.125L84.3125 953ZM88.7656 939.688H98.2812L93.6406 926H93.3594L88.7656 939.688ZM81.5 1010V976.062H94.4844C101.844 976.062 105.5 979.812 105.5 984.875C105.5 989 102.875 991.297 99.5469 992.094V992.422C103.156 992.609 106.812 995.609 106.812 1000.77C106.812 1006.06 103.016 1010 95.2344 1010H81.5ZM94.2969 1004.89C98.75 1004.89 100.625 1002.97 100.625 1000.3C100.625 997.25 98.2344 994.906 94.4375 994.906H87.5938V1004.89H94.2969ZM93.7344 990.5C96.9688 990.5 99.4062 988.625 99.4062 985.625C99.4062 983 97.5312 981.125 93.875 981.125H87.5938V990.5H93.7344ZM102.383 1044.5C101.68 1040.42 98.3984 1038.08 94.2734 1038.08C88.6953 1038.08 84.8047 1042.34 84.8047 1050.03C84.8047 1057.81 88.7422 1061.98 94.2734 1061.98C98.3047 1061.98 101.586 1059.73 102.383 1055.75H108.523C107.586 1062.27 102.242 1067.47 94.1797 1067.47C85.2266 1067.47 78.6641 1060.95 78.6641 1050.03C78.6641 1039.06 85.3203 1032.59 94.1797 1032.59C101.68 1032.59 107.492 1036.95 108.523 1044.5H102.383ZM91.4844 1124H79.9531V1090.06H91.6719C101.797 1090.06 107.938 1096.44 107.938 1106.98C107.938 1117.58 101.797 1124 91.4844 1124ZM86.0469 1118.7H91.1562C98.2344 1118.7 101.844 1114.81 101.844 1106.98C101.844 1099.2 98.2344 1095.36 91.3438 1095.36H86.0469V1118.7ZM82.6719 1181V1147.06H104.75V1152.17H88.7656V1161.45H103.578V1166.56H88.7656V1175.84H104.844V1181H82.6719ZM83.1875 1238V1204.06H104.938V1209.17H89.2812V1218.45H103.438V1223.56H89.2812V1238H83.1875ZM101.984 1271.89C100.906 1268.28 98.0938 1266.08 93.9688 1266.08C88.4844 1266.08 84.5469 1270.34 84.5469 1277.98C84.5469 1285.72 88.4375 1289.98 94.1094 1289.98C99.2188 1289.98 102.5 1286.89 102.594 1282.06H94.7188V1277.23H108.5V1281.31C108.5 1290.03 102.5 1295.47 94.1094 1295.47C84.7344 1295.47 78.4062 1288.81 78.4062 1278.03C78.4062 1267.16 85.0156 1260.59 93.9219 1260.59C101.422 1260.59 107.188 1265.23 108.219 1271.89H101.984ZM79.4844 1352V1318.06H85.5781V1332.45H101.375V1318.06H107.516V1352H101.375V1337.56H85.5781V1352H79.4844ZM96.5234 1375.06V1409H90.4297V1375.06H96.5234ZM97.1797 1432.06H103.227V1455.92C103.227 1462.48 98.8203 1466.47 92.3047 1466.47C86.3516 1466.47 81.8047 1463.23 81.8047 1457H87.8984C87.8984 1459.77 89.7734 1461.45 92.5391 1461.45C95.4922 1461.45 97.1328 1459.53 97.1797 1455.92V1432.06ZM81.0547 1523V1489.06H87.1484V1504.67H87.6172L100.883 1489.06H108.336L95.2109 1504.3L108.477 1523H101.117L90.9453 1508.42L87.1484 1512.88V1523H81.0547ZM83.6562 1580V1546.06H89.75V1574.84H104.75V1580H83.6562ZM75.7109 1603.06H83.2109L93.2891 1627.72H93.7109L103.789 1603.06H111.289V1637H105.43V1613.66H105.102L95.6797 1636.91H91.3203L81.8984 1613.56H81.6172V1637H75.7109V1603.06ZM107.445 1660.06V1694H102.008L85.9297 1670.8H85.6484V1694H79.5547V1660.06H85.0859L101.07 1683.27H101.398V1660.06H107.445ZM109.062 1734.03C109.062 1745 102.406 1751.47 93.5 1751.47C84.5938 1751.47 77.9375 1744.95 77.9375 1734.03C77.9375 1723.06 84.5938 1716.59 93.5 1716.59C102.406 1716.59 109.062 1723.06 109.062 1734.03ZM102.922 1734.03C102.922 1726.3 99.0312 1722.08 93.5 1722.08C87.9688 1722.08 84.0781 1726.3 84.0781 1734.03C84.0781 1741.77 87.9688 1745.98 93.5 1745.98C99.0312 1745.98 102.922 1741.77 102.922 1734.03ZM81.8281 1808V1774.06H94.5781C102.359 1774.06 106.531 1778.8 106.531 1785.31C106.531 1791.83 102.312 1796.52 94.4844 1796.52H87.9219V1808H81.8281ZM87.9219 1791.5H93.6406C98.2344 1791.5 100.297 1788.92 100.297 1785.31C100.297 1781.66 98.2344 1779.17 93.6406 1779.17H87.9219V1791.5ZM91.3672 1853.61H96.9453L99.8516 1857.41C101.75 1855.39 102.898 1852.23 102.898 1848.03C102.898 1840.3 99.0078 1836.08 93.4766 1836.08C87.9453 1836.08 84.0547 1840.3 84.0547 1848.03C84.0547 1855.77 87.9453 1859.98 93.4766 1859.98C94.3672 1859.98 95.2109 1859.87 96.0078 1859.66L91.3672 1853.61ZM109.039 1848.03C109.039 1854.2 106.93 1858.93 103.555 1861.91L108.242 1867.95H102.289L99.4766 1864.34C97.6484 1865.09 95.6328 1865.47 93.4766 1865.47C84.5703 1865.47 77.9141 1858.95 77.9141 1848.03C77.9141 1837.06 84.5703 1830.59 93.4766 1830.59C102.383 1830.59 109.039 1837.06 109.039 1848.03ZM81.6641 1922V1888.06H94.4141C102.195 1888.06 106.367 1892.42 106.367 1898.89C106.367 1903.51 104.258 1906.93 100.273 1908.55L107.586 1922H100.789L94.1328 1909.58H87.7578V1922H81.6641ZM87.7578 1904.47H93.4766C98.0703 1904.47 100.133 1902.5 100.133 1898.89C100.133 1895.28 98.0703 1893.17 93.4766 1893.17H87.7578V1904.47ZM100.18 1954.39C99.8984 1951.48 97.4141 1949.8 93.7578 1949.8C89.9141 1949.8 87.5703 1951.67 87.5703 1954.2C87.5703 1957.06 90.5703 1958.23 93.3828 1958.89L96.5703 1959.73C101.633 1960.91 106.508 1963.58 106.508 1969.48C106.508 1975.44 101.82 1979.52 93.6641 1979.52C85.7422 1979.52 80.7734 1975.72 80.4922 1969.02H86.4922C86.7734 1972.58 89.7734 1974.31 93.6172 1974.31C97.6484 1974.31 100.414 1972.34 100.414 1969.44C100.414 1966.77 97.9297 1965.64 94.2734 1964.7L90.4297 1963.72C84.8516 1962.27 81.3828 1959.45 81.3828 1954.58C81.3828 1948.58 86.7266 1944.59 93.8516 1944.59C101.07 1944.59 105.945 1948.67 106.039 1954.39H100.18ZM79.9766 2007.17V2002.06H107.023V2007.17H96.5703V2036H90.4766V2007.17H79.9766ZM101.141 2059.06H107.281V2081.23C107.281 2088.5 101.75 2093.52 93.5 2093.52C85.2031 2093.52 79.7188 2088.5 79.7188 2081.23V2059.06H85.8125V2080.72C85.8125 2084.98 88.8125 2088.08 93.5 2088.08C98.1875 2088.08 101.141 2084.98 101.141 2080.72V2059.06ZM84.5 2116.06L93.3125 2142.83H93.6875L102.547 2116.06H109.25L97.25 2150H89.75L77.7969 2116.06H84.5ZM80.5156 2207L70.9531 2173.06H77.5156L83.6562 2198.05H83.9844L90.5 2173.06H96.5L103.062 2198.09H103.344L109.484 2173.06H116.047L106.484 2207H100.438L93.6406 2183.14H93.4062L86.5625 2207H80.5156ZM85.8828 2230.06L93.3359 2242.53H93.6172L101.164 2230.06H108.102L97.6484 2247.03L108.289 2264H101.211L93.6172 2251.62H93.3359L85.7422 2264H78.7109L89.4453 2247.03L78.8516 2230.06H85.8828ZM78.1016 2287.06H84.9922L93.3359 2302.06H93.6641L102.008 2287.06H108.898L96.5703 2308.3V2321H90.4766V2308.3L78.1016 2287.06ZM80.9844 2378V2374.16L98.4219 2349.17H80.8906V2344.06H106.016V2347.86L88.5781 2372.84H106.109V2378H80.9844Z" fill="black"/>
<path d="M83.6562 98V64.0625H89.75V92.8438H104.75V98H83.6562Z" fill="#37DBFF"/>
</g>
<defs>
<clipPath id="clip0_3809_5470">
<rect width="275" height="40" fill="white" transform="translate(50 60)"/>
</clipPath>
</defs>
</svg>
