<svg width="375" height="110" viewBox="0 0 375 110" fill="none" xmlns="http://www.w3.org/2000/svg">
<rect width="375" height="110" fill="white"/>
<path d="M77.2332 76V45.856H67.0572V40.528H93.8412V45.856H83.6172V76H77.2332ZM101.695 76V49.36H106.831L107.359 54.112H107.455C108.415 52.384 109.567 51.056 110.911 50.128C112.255 49.168 113.631 48.688 115.039 48.688C115.743 48.688 116.319 48.736 116.767 48.832C117.247 48.928 117.679 49.072 118.063 49.264L117.007 54.688C116.527 54.56 116.079 54.464 115.663 54.4C115.279 54.304 114.799 54.256 114.223 54.256C113.199 54.256 112.095 54.672 110.911 55.504C109.759 56.336 108.783 57.76 107.983 59.776V76H101.695ZM126.992 76V49.36H133.28V76H126.992ZM130.16 44.704C129.008 44.704 128.096 44.384 127.424 43.744C126.752 43.072 126.416 42.192 126.416 41.104C126.416 40.048 126.752 39.2 127.424 38.56C128.096 37.888 129.008 37.552 130.16 37.552C131.248 37.552 132.144 37.888 132.848 38.56C133.552 39.2 133.904 40.048 133.904 41.104C133.904 42.192 133.552 43.072 132.848 43.744C132.144 44.384 131.248 44.704 130.16 44.704ZM146.195 76V49.36H151.331L151.859 52.96H151.955C153.139 51.776 154.435 50.768 155.843 49.936C157.251 49.104 158.867 48.688 160.691 48.688C163.539 48.688 165.619 49.616 166.931 51.472C168.243 53.328 168.899 55.936 168.899 59.296V76H162.611V60.112C162.611 57.904 162.275 56.352 161.603 55.456C160.963 54.56 159.923 54.112 158.483 54.112C157.331 54.112 156.307 54.4 155.411 54.976C154.547 55.52 153.571 56.32 152.483 57.376V76H146.195ZM181.523 76V49.36H187.811V76H181.523ZM184.691 44.704C183.539 44.704 182.627 44.384 181.955 43.744C181.283 43.072 180.947 42.192 180.947 41.104C180.947 40.048 181.283 39.2 181.955 38.56C182.627 37.888 183.539 37.552 184.691 37.552C185.779 37.552 186.675 37.888 187.379 38.56C188.083 39.2 188.435 40.048 188.435 41.104C188.435 42.192 188.083 43.072 187.379 43.744C186.675 44.384 185.779 44.704 184.691 44.704ZM210.086 76.672C208.038 76.672 206.39 76.272 205.142 75.472C203.926 74.64 203.03 73.504 202.454 72.064C201.91 70.592 201.638 68.896 201.638 66.976V54.352H197.846V49.648L202.022 49.36L202.694 42.064H207.926V49.36H214.694V54.352H207.926V67.024C207.926 68.56 208.23 69.728 208.838 70.528C209.478 71.296 210.438 71.68 211.718 71.68C212.166 71.68 212.63 71.616 213.11 71.488C213.622 71.36 214.07 71.216 214.454 71.056L215.51 75.664C214.806 75.888 213.99 76.112 213.062 76.336C212.166 76.56 211.174 76.672 210.086 76.672ZM227.096 86.896C226.36 86.896 225.704 86.848 225.128 86.752C224.584 86.656 224.072 86.528 223.592 86.368L224.792 81.52C225.048 81.584 225.336 81.664 225.656 81.76C226.008 81.856 226.36 81.904 226.712 81.904C228.088 81.904 229.192 81.472 230.024 80.608C230.856 79.744 231.496 78.656 231.944 77.344L232.472 75.664L222.008 49.36H228.392L232.952 62.368C233.368 63.584 233.752 64.832 234.104 66.112C234.488 67.392 234.888 68.656 235.304 69.904H235.544C235.832 68.656 236.152 67.408 236.504 66.16C236.856 64.88 237.192 63.616 237.512 62.368L241.496 49.36H247.544L237.944 77.2C237.208 79.216 236.36 80.944 235.4 82.384C234.472 83.824 233.336 84.928 231.992 85.696C230.68 86.496 229.048 86.896 227.096 86.896ZM273.489 76V40.528H280.641L286.881 57.856C287.265 58.944 287.649 60.08 288.033 61.264C288.417 62.448 288.785 63.616 289.137 64.768H289.377C289.761 63.616 290.129 62.448 290.481 61.264C290.865 60.08 291.233 58.944 291.585 57.856L297.729 40.528H304.881V76H299.073V59.872C299.073 58.752 299.121 57.536 299.217 56.224C299.313 54.88 299.425 53.536 299.553 52.192C299.681 50.848 299.793 49.632 299.889 48.544H299.697L296.817 56.8L291.009 72.688H287.217L281.409 56.8L278.577 48.544H278.385C278.513 49.632 278.625 50.848 278.721 52.192C278.849 53.536 278.961 54.88 279.057 56.224C279.153 57.536 279.201 58.752 279.201 59.872V76H273.489Z" fill="#37DBFF"/>
</svg>
