<svg width="609" height="258" viewBox="0 0 609 258" fill="none" xmlns="http://www.w3.org/2000/svg">
<line x1="399" y1="164" x2="566" y2="164" stroke="black" stroke-width="2"/>
<path d="M420.208 204.879H401.716V185.262H420.033V189.34H406.04V193.031H419.822V197.074H406.04V200.801H420.208V204.879ZM396.689 208.5H425.13V212.578H396.689V208.5ZM447.355 207.234H430.093V194.648H440.464V190.289H429.952V186.246H444.999V198.691H434.628V203.156H447.355V207.234ZM454.14 216.902H449.605V182.168H454.14V216.902ZM478.333 205.758H461.141V186.07H465.712V201.645H478.333V205.758ZM485.188 216.902H480.653V182.168H485.188V216.902ZM509.311 207.129H492.19V186.246H507.589V190.324H496.69V194.648H507.237V198.691H496.69V203.051H509.311V207.129ZM516.237 216.902H511.702V182.168H516.237V216.902Z" fill="black"/>
<path d="M527.796 213V184.4H533.156L546.396 193.68H546.596L559.836 184.4H565.196V213H558.796V192.4L549.716 198.48V213H543.316V198.48L534.196 192.4V213H527.796Z" fill="black"/>
<mask id="path-4-outside-1_56_57" maskUnits="userSpaceOnUse" x="480" y="78" width="85" height="66" fill="black">
<rect fill="white" x="480" y="78" width="85" height="66"/>
<path d="M482.287 142V80.51H493.811L522.277 100.462H522.707L551.173 80.51H562.697V142H548.937V97.71L529.415 110.782V142H515.655V110.782L496.047 97.71V142H482.287Z"/>
</mask>
<path d="M482.287 142V80.51H493.811L522.277 100.462H522.707L551.173 80.51H562.697V142H548.937V97.71L529.415 110.782V142H515.655V110.782L496.047 97.71V142H482.287Z" fill="#030303"/>
<path d="M482.287 142H480.287L482.287 144V142ZM482.287 80.51V78.51L480.287 80.51H482.287ZM493.811 80.51L494.959 78.8722L493.811 78.51V80.51ZM522.277 100.462L521.129 102.1L522.277 102.462V100.462ZM522.707 100.462V102.462L523.855 102.1L522.707 100.462ZM551.173 80.51V78.51L550.025 78.8722L551.173 80.51ZM562.697 80.51H564.697L562.697 78.51V80.51ZM562.697 142V144L564.697 142H562.697ZM548.937 142H546.937L548.937 144V142ZM548.937 97.71H550.937L547.824 96.0482L548.937 97.71ZM529.415 110.782L528.302 109.12L527.415 110.782H529.415ZM529.415 142V144L531.415 142H529.415ZM515.655 142H513.655L515.655 144V142ZM515.655 110.782H517.655L516.764 109.118L515.655 110.782ZM496.047 97.71L497.156 96.0459L494.047 97.71H496.047ZM496.047 142V144L498.047 142H496.047ZM484.287 142V80.51H480.287V142H484.287ZM482.287 82.51H493.811V78.51H482.287V82.51ZM492.663 82.1478L521.129 102.1L523.425 98.8242L494.959 78.8722L492.663 82.1478ZM522.277 102.462H522.707V98.462H522.277V102.462ZM523.855 102.1L552.321 82.1478L550.025 78.8722L521.559 98.8242L523.855 102.1ZM551.173 82.51H562.697V78.51H551.173V82.51ZM560.697 80.51V142H564.697V80.51H560.697ZM562.697 140H548.937V144H562.697V140ZM550.937 142V97.71H546.937V142H550.937ZM547.824 96.0482L528.302 109.12L530.527 112.444L550.049 99.3718L547.824 96.0482ZM527.415 110.782V142H531.415V110.782H527.415ZM529.415 140H515.655V144H529.415V140ZM517.655 142V110.782H513.655V142H517.655ZM516.764 109.118L497.156 96.0459L494.937 99.3741L514.545 112.446L516.764 109.118ZM494.047 97.71V142H498.047V97.71H494.047ZM496.047 140H482.287V144H496.047V140Z" fill="black" mask="url(#path-4-outside-1_56_57)"/>
<mask id="path-6-outside-2_56_57" maskUnits="userSpaceOnUse" x="121" y="79" width="349" height="65" fill="black">
<rect fill="white" x="121" y="79" width="349" height="65"/>
<path d="M123.806 142V81.8H160.915L169.773 90.658V109.32L164.527 114.136L169.773 119.855V142H157.604V124.155L153.304 119.855H135.975V142H123.806ZM129.31 136.668H130.514V114.05H155.626L163.237 122.306V136.668H164.441V121.962L156.658 113.448L164.097 107.213V93.367L157.905 87.175H129.31V136.668ZM135.975 107.686H154.981L157.604 105.02V96.592L154.981 93.969H135.975V107.686ZM130.514 112.846V88.379H157.475L162.893 93.711V106.826L155.626 112.846H130.514ZM187.386 142V129.831H199.168V93.969H187.386V81.8H223.033V93.969H211.294V129.831H223.033V142H187.386ZM192.804 136.582H217.658V135.378H205.403V88.336H217.658V87.132H192.804V88.336H204.199V135.378H192.804V136.582ZM246.493 136.754H247.697V88.723H258.877L274.658 136.539H287.945V87.132H286.741V135.249H275.604L259.823 87.347H246.493V136.754ZM241.075 142V81.8H264.424L279.302 129.659H281.151V81.8H293.32V142H269.971L255.007 94.012H253.244V142H241.075ZM311.374 142V129.831H323.156V93.969H311.374V81.8H347.021V93.969H335.282V129.831H347.021V142H311.374ZM316.792 136.582H341.646V135.378H329.391V88.336H341.646V87.132H316.792V88.336H328.187V135.378H316.792V136.582ZM377.834 142V93.969H362.913V81.8H404.881V93.969H389.96V142H377.834ZM383.252 136.754H384.456V88.336H399.678V87.132H368.116V88.336H383.252V136.754ZM437.602 142V122.951L420.402 106.525V81.8H432.571V102.139L444.095 113.018H443.278L454.845 102.139V81.8H467.014V106.525L449.771 122.951V142H437.602ZM443.063 136.754H444.267V120.887L461.51 104.633V87.132H460.306V104.289L443.794 119.855H443.536L427.024 104.289V87.132H425.82V104.633L443.063 120.887V136.754Z"/>
</mask>
<path d="M123.806 142V81.8H160.915L169.773 90.658V109.32L164.527 114.136L169.773 119.855V142H157.604V124.155L153.304 119.855H135.975V142H123.806ZM129.31 136.668H130.514V114.05H155.626L163.237 122.306V136.668H164.441V121.962L156.658 113.448L164.097 107.213V93.367L157.905 87.175H129.31V136.668ZM135.975 107.686H154.981L157.604 105.02V96.592L154.981 93.969H135.975V107.686ZM130.514 112.846V88.379H157.475L162.893 93.711V106.826L155.626 112.846H130.514ZM187.386 142V129.831H199.168V93.969H187.386V81.8H223.033V93.969H211.294V129.831H223.033V142H187.386ZM192.804 136.582H217.658V135.378H205.403V88.336H217.658V87.132H192.804V88.336H204.199V135.378H192.804V136.582ZM246.493 136.754H247.697V88.723H258.877L274.658 136.539H287.945V87.132H286.741V135.249H275.604L259.823 87.347H246.493V136.754ZM241.075 142V81.8H264.424L279.302 129.659H281.151V81.8H293.32V142H269.971L255.007 94.012H253.244V142H241.075ZM311.374 142V129.831H323.156V93.969H311.374V81.8H347.021V93.969H335.282V129.831H347.021V142H311.374ZM316.792 136.582H341.646V135.378H329.391V88.336H341.646V87.132H316.792V88.336H328.187V135.378H316.792V136.582ZM377.834 142V93.969H362.913V81.8H404.881V93.969H389.96V142H377.834ZM383.252 136.754H384.456V88.336H399.678V87.132H368.116V88.336H383.252V136.754ZM437.602 142V122.951L420.402 106.525V81.8H432.571V102.139L444.095 113.018H443.278L454.845 102.139V81.8H467.014V106.525L449.771 122.951V142H437.602ZM443.063 136.754H444.267V120.887L461.51 104.633V87.132H460.306V104.289L443.794 119.855H443.536L427.024 104.289V87.132H425.82V104.633L443.063 120.887V136.754Z" fill="#4EAEEF"/>
<path d="M123.806 142H121.806L123.806 144V142ZM123.806 81.8V79.8L121.806 81.8H123.806ZM160.915 81.8L162.329 80.3858L160.915 79.8V81.8ZM169.773 90.658H171.773L171.187 89.2438L169.773 90.658ZM169.773 109.32L171.126 110.793L171.773 109.32H169.773ZM164.527 114.136L163.175 112.663L163.053 115.488L164.527 114.136ZM169.773 119.855H171.773L171.247 118.503L169.773 119.855ZM169.773 142V144L171.773 142H169.773ZM157.604 142H155.604L157.604 144V142ZM157.604 124.155H159.604L159.018 122.741L157.604 124.155ZM153.304 119.855L154.718 118.441L153.304 117.855V119.855ZM135.975 119.855V117.855L133.975 119.855H135.975ZM135.975 142V144L137.975 142H135.975ZM129.31 136.668H127.31L129.31 138.668V136.668ZM130.514 136.668V138.668L132.514 136.668H130.514ZM130.514 114.05V112.05L128.514 114.05H130.514ZM155.626 114.05L157.097 112.694L155.626 112.05V114.05ZM163.237 122.306H165.237L164.708 120.95L163.237 122.306ZM163.237 136.668H161.237L163.237 138.668V136.668ZM164.441 136.668V138.668L166.441 136.668H164.441ZM164.441 121.962H166.441L165.917 120.613L164.441 121.962ZM156.658 113.448L155.374 111.915L155.182 114.797L156.658 113.448ZM164.097 107.213L165.382 108.746L166.097 107.213H164.097ZM164.097 93.367H166.097L165.511 91.9528L164.097 93.367ZM157.905 87.175L159.319 85.7608L157.905 85.175V87.175ZM129.31 87.175V85.175L127.31 87.175H129.31ZM135.975 107.686H133.975L135.975 109.686V107.686ZM154.981 107.686V109.686L156.407 109.089L154.981 107.686ZM157.604 105.02L159.03 106.423L159.604 105.02H157.604ZM157.604 96.592H159.604L159.018 95.1778L157.604 96.592ZM154.981 93.969L156.395 92.5548L154.981 91.969V93.969ZM135.975 93.969V91.969L133.975 93.969H135.975ZM130.514 112.846H128.514L130.514 114.846V112.846ZM130.514 88.379V86.379L128.514 88.379H130.514ZM157.475 88.379L158.878 86.9535L157.475 86.379V88.379ZM162.893 93.711H164.893L164.296 92.2855L162.893 93.711ZM162.893 106.826L164.169 108.366L164.893 106.826H162.893ZM155.626 112.846V114.846L156.902 114.386L155.626 112.846ZM125.806 142V81.8H121.806V142H125.806ZM123.806 83.8H160.915V79.8H123.806V83.8ZM159.501 83.2142L168.359 92.0722L171.187 89.2438L162.329 80.3858L159.501 83.2142ZM167.773 90.658V109.32H171.773V90.658H167.773ZM168.421 107.847L163.175 112.663L165.88 115.609L171.126 110.793L168.421 107.847ZM163.053 115.488L168.299 121.207L171.247 118.503L166.001 112.784L163.053 115.488ZM167.773 119.855V142H171.773V119.855H167.773ZM169.773 140H157.604V144H169.773V140ZM159.604 142V124.155H155.604V142H159.604ZM159.018 122.741L154.718 118.441L151.89 121.269L156.19 125.569L159.018 122.741ZM153.304 117.855H135.975V121.855H153.304V117.855ZM133.975 119.855V142H137.975V119.855H133.975ZM135.975 140H123.806V144H135.975V140ZM129.31 138.668H130.514V134.668H129.31V138.668ZM132.514 136.668V114.05H128.514V136.668H132.514ZM130.514 116.05H155.626V112.05H130.514V116.05ZM154.156 115.406L161.767 123.662L164.708 120.95L157.097 112.694L154.156 115.406ZM161.237 122.306V136.668H165.237V122.306H161.237ZM163.237 138.668H164.441V134.668H163.237V138.668ZM166.441 136.668V121.962H162.441V136.668H166.441ZM165.917 120.613L158.134 112.099L155.182 114.797L162.965 123.311L165.917 120.613ZM157.943 114.981L165.382 108.746L162.813 105.68L155.374 111.915L157.943 114.981ZM166.097 107.213V93.367H162.097V107.213H166.097ZM165.511 91.9528L159.319 85.7608L156.491 88.5892L162.683 94.7812L165.511 91.9528ZM157.905 85.175H129.31V89.175H157.905V85.175ZM127.31 87.175V136.668H131.31V87.175H127.31ZM135.975 109.686H154.981V105.686H135.975V109.686ZM156.407 109.089L159.03 106.423L156.179 103.617L153.556 106.283L156.407 109.089ZM159.604 105.02V96.592H155.604V105.02H159.604ZM159.018 95.1778L156.395 92.5548L153.567 95.3832L156.19 98.0062L159.018 95.1778ZM154.981 91.969H135.975V95.969H154.981V91.969ZM133.975 93.969V107.686H137.975V93.969H133.975ZM132.514 112.846V88.379H128.514V112.846H132.514ZM130.514 90.379H157.475V86.379H130.514V90.379ZM156.072 89.8045L161.49 95.1365L164.296 92.2855L158.878 86.9535L156.072 89.8045ZM160.893 93.711V106.826H164.893V93.711H160.893ZM161.617 105.286L154.35 111.306L156.902 114.386L164.169 108.366L161.617 105.286ZM155.626 110.846H130.514V114.846H155.626V110.846ZM187.386 142H185.386L187.386 144V142ZM187.386 129.831V127.831L185.386 129.831H187.386ZM199.168 129.831V131.831L201.168 129.831H199.168ZM199.168 93.969H201.168L199.168 91.969V93.969ZM187.386 93.969H185.386L187.386 95.969V93.969ZM187.386 81.8V79.8L185.386 81.8H187.386ZM223.033 81.8H225.033L223.033 79.8V81.8ZM223.033 93.969V95.969L225.033 93.969H223.033ZM211.294 93.969V91.969L209.294 93.969H211.294ZM211.294 129.831H209.294L211.294 131.831V129.831ZM223.033 129.831H225.033L223.033 127.831V129.831ZM223.033 142V144L225.033 142H223.033ZM192.804 136.582H190.804L192.804 138.582V136.582ZM217.658 136.582V138.582L219.658 136.582H217.658ZM217.658 135.378H219.658L217.658 133.378V135.378ZM205.403 135.378H203.403L205.403 137.378V135.378ZM205.403 88.336V86.336L203.403 88.336H205.403ZM217.658 88.336V90.336L219.658 88.336H217.658ZM217.658 87.132H219.658L217.658 85.132V87.132ZM192.804 87.132V85.132L190.804 87.132H192.804ZM192.804 88.336H190.804L192.804 90.336V88.336ZM204.199 88.336H206.199L204.199 86.336V88.336ZM204.199 135.378V137.378L206.199 135.378H204.199ZM192.804 135.378V133.378L190.804 135.378H192.804ZM189.386 142V129.831H185.386V142H189.386ZM187.386 131.831H199.168V127.831H187.386V131.831ZM201.168 129.831V93.969H197.168V129.831H201.168ZM199.168 91.969H187.386V95.969H199.168V91.969ZM189.386 93.969V81.8H185.386V93.969H189.386ZM187.386 83.8H223.033V79.8H187.386V83.8ZM221.033 81.8V93.969H225.033V81.8H221.033ZM223.033 91.969H211.294V95.969H223.033V91.969ZM209.294 93.969V129.831H213.294V93.969H209.294ZM211.294 131.831H223.033V127.831H211.294V131.831ZM221.033 129.831V142H225.033V129.831H221.033ZM223.033 140H187.386V144H223.033V140ZM192.804 138.582H217.658V134.582H192.804V138.582ZM219.658 136.582V135.378H215.658V136.582H219.658ZM217.658 133.378H205.403V137.378H217.658V133.378ZM207.403 135.378V88.336H203.403V135.378H207.403ZM205.403 90.336H217.658V86.336H205.403V90.336ZM219.658 88.336V87.132H215.658V88.336H219.658ZM217.658 85.132H192.804V89.132H217.658V85.132ZM190.804 87.132V88.336H194.804V87.132H190.804ZM192.804 90.336H204.199V86.336H192.804V90.336ZM202.199 88.336V135.378H206.199V88.336H202.199ZM204.199 133.378H192.804V137.378H204.199V133.378ZM190.804 135.378V136.582H194.804V135.378H190.804ZM246.493 136.754H244.493L246.493 138.754V136.754ZM247.697 136.754V138.754L249.697 136.754H247.697ZM247.697 88.723V86.723L245.697 88.723H247.697ZM258.877 88.723L260.777 88.0962L258.877 86.723V88.723ZM274.658 136.539L272.759 137.166L274.658 138.539V136.539ZM287.945 136.539V138.539L289.945 136.539H287.945ZM287.945 87.132H289.945L287.945 85.132V87.132ZM286.741 87.132V85.132L284.741 87.132H286.741ZM286.741 135.249V137.249L288.741 135.249H286.741ZM275.604 135.249L273.705 135.875L275.604 137.249V135.249ZM259.823 87.347L261.723 86.7212L259.823 85.347V87.347ZM246.493 87.347V85.347L244.493 87.347H246.493ZM241.075 142H239.075L241.075 144V142ZM241.075 81.8V79.8L239.075 81.8H241.075ZM264.424 81.8L266.334 81.2063L264.424 79.8V81.8ZM279.302 129.659L277.392 130.253L279.302 131.659V129.659ZM281.151 129.659V131.659L283.151 129.659H281.151ZM281.151 81.8V79.8L279.151 81.8H281.151ZM293.32 81.8H295.32L293.32 79.8V81.8ZM293.32 142V144L295.32 142H293.32ZM269.971 142L268.062 142.595L269.971 144V142ZM255.007 94.012L256.917 93.4166L255.007 92.012V94.012ZM253.244 94.012V92.012L251.244 94.012H253.244ZM253.244 142V144L255.244 142H253.244ZM246.493 138.754H247.697V134.754H246.493V138.754ZM249.697 136.754V88.723H245.697V136.754H249.697ZM247.697 90.723H258.877V86.723H247.697V90.723ZM256.978 89.3498L272.759 137.166L276.558 135.912L260.777 88.0962L256.978 89.3498ZM274.658 138.539H287.945V134.539H274.658V138.539ZM289.945 136.539V87.132H285.945V136.539H289.945ZM287.945 85.132H286.741V89.132H287.945V85.132ZM284.741 87.132V135.249H288.741V87.132H284.741ZM286.741 133.249H275.604V137.249H286.741V133.249ZM277.504 134.623L261.723 86.7212L257.924 87.9728L273.705 135.875L277.504 134.623ZM259.823 85.347H246.493V89.347H259.823V85.347ZM244.493 87.347V136.754H248.493V87.347H244.493ZM243.075 142V81.8H239.075V142H243.075ZM241.075 83.8H264.424V79.8H241.075V83.8ZM262.514 82.3937L277.392 130.253L281.212 129.065L266.334 81.2063L262.514 82.3937ZM279.302 131.659H281.151V127.659H279.302V131.659ZM283.151 129.659V81.8H279.151V129.659H283.151ZM281.151 83.8H293.32V79.8H281.151V83.8ZM291.32 81.8V142H295.32V81.8H291.32ZM293.32 140H269.971V144H293.32V140ZM271.881 141.405L256.917 93.4166L253.098 94.6074L268.062 142.595L271.881 141.405ZM255.007 92.012H253.244V96.012H255.007V92.012ZM251.244 94.012V142H255.244V94.012H251.244ZM253.244 140H241.075V144H253.244V140ZM311.374 142H309.374L311.374 144V142ZM311.374 129.831V127.831L309.374 129.831H311.374ZM323.156 129.831V131.831L325.156 129.831H323.156ZM323.156 93.969H325.156L323.156 91.969V93.969ZM311.374 93.969H309.374L311.374 95.969V93.969ZM311.374 81.8V79.8L309.374 81.8H311.374ZM347.021 81.8H349.021L347.021 79.8V81.8ZM347.021 93.969V95.969L349.021 93.969H347.021ZM335.282 93.969V91.969L333.282 93.969H335.282ZM335.282 129.831H333.282L335.282 131.831V129.831ZM347.021 129.831H349.021L347.021 127.831V129.831ZM347.021 142V144L349.021 142H347.021ZM316.792 136.582H314.792L316.792 138.582V136.582ZM341.646 136.582V138.582L343.646 136.582H341.646ZM341.646 135.378H343.646L341.646 133.378V135.378ZM329.391 135.378H327.391L329.391 137.378V135.378ZM329.391 88.336V86.336L327.391 88.336H329.391ZM341.646 88.336V90.336L343.646 88.336H341.646ZM341.646 87.132H343.646L341.646 85.132V87.132ZM316.792 87.132V85.132L314.792 87.132H316.792ZM316.792 88.336H314.792L316.792 90.336V88.336ZM328.187 88.336H330.187L328.187 86.336V88.336ZM328.187 135.378V137.378L330.187 135.378H328.187ZM316.792 135.378V133.378L314.792 135.378H316.792ZM313.374 142V129.831H309.374V142H313.374ZM311.374 131.831H323.156V127.831H311.374V131.831ZM325.156 129.831V93.969H321.156V129.831H325.156ZM323.156 91.969H311.374V95.969H323.156V91.969ZM313.374 93.969V81.8H309.374V93.969H313.374ZM311.374 83.8H347.021V79.8H311.374V83.8ZM345.021 81.8V93.969H349.021V81.8H345.021ZM347.021 91.969H335.282V95.969H347.021V91.969ZM333.282 93.969V129.831H337.282V93.969H333.282ZM335.282 131.831H347.021V127.831H335.282V131.831ZM345.021 129.831V142H349.021V129.831H345.021ZM347.021 140H311.374V144H347.021V140ZM316.792 138.582H341.646V134.582H316.792V138.582ZM343.646 136.582V135.378H339.646V136.582H343.646ZM341.646 133.378H329.391V137.378H341.646V133.378ZM331.391 135.378V88.336H327.391V135.378H331.391ZM329.391 90.336H341.646V86.336H329.391V90.336ZM343.646 88.336V87.132H339.646V88.336H343.646ZM341.646 85.132H316.792V89.132H341.646V85.132ZM314.792 87.132V88.336H318.792V87.132H314.792ZM316.792 90.336H328.187V86.336H316.792V90.336ZM326.187 88.336V135.378H330.187V88.336H326.187ZM328.187 133.378H316.792V137.378H328.187V133.378ZM314.792 135.378V136.582H318.792V135.378H314.792ZM377.834 142H375.834L377.834 144V142ZM377.834 93.969H379.834L377.834 91.969V93.969ZM362.913 93.969H360.913L362.913 95.969V93.969ZM362.913 81.8V79.8L360.913 81.8H362.913ZM404.881 81.8H406.881L404.881 79.8V81.8ZM404.881 93.969V95.969L406.881 93.969H404.881ZM389.96 93.969V91.969L387.96 93.969H389.96ZM389.96 142V144L391.96 142H389.96ZM383.252 136.754H381.252L383.252 138.754V136.754ZM384.456 136.754V138.754L386.456 136.754H384.456ZM384.456 88.336V86.336L382.456 88.336H384.456ZM399.678 88.336V90.336L401.678 88.336H399.678ZM399.678 87.132H401.678L399.678 85.132V87.132ZM368.116 87.132V85.132L366.116 87.132H368.116ZM368.116 88.336H366.116L368.116 90.336V88.336ZM383.252 88.336H385.252L383.252 86.336V88.336ZM379.834 142V93.969H375.834V142H379.834ZM377.834 91.969H362.913V95.969H377.834V91.969ZM364.913 93.969V81.8H360.913V93.969H364.913ZM362.913 83.8H404.881V79.8H362.913V83.8ZM402.881 81.8V93.969H406.881V81.8H402.881ZM404.881 91.969H389.96V95.969H404.881V91.969ZM387.96 93.969V142H391.96V93.969H387.96ZM389.96 140H377.834V144H389.96V140ZM383.252 138.754H384.456V134.754H383.252V138.754ZM386.456 136.754V88.336H382.456V136.754H386.456ZM384.456 90.336H399.678V86.336H384.456V90.336ZM401.678 88.336V87.132H397.678V88.336H401.678ZM399.678 85.132H368.116V89.132H399.678V85.132ZM366.116 87.132V88.336H370.116V87.132H366.116ZM368.116 90.336H383.252V86.336H368.116V90.336ZM381.252 88.336V136.754H385.252V88.336H381.252ZM437.602 142H435.602L437.602 144V142ZM437.602 122.951H439.602L438.983 121.505L437.602 122.951ZM420.402 106.525H418.402L419.021 107.971L420.402 106.525ZM420.402 81.8V79.8L418.402 81.8H420.402ZM432.571 81.8H434.571L432.571 79.8V81.8ZM432.571 102.139H430.571L431.198 103.593L432.571 102.139ZM444.095 113.018V115.018L445.468 111.564L444.095 113.018ZM443.278 113.018L441.908 111.561L443.278 115.018V113.018ZM454.845 102.139L456.215 103.596L456.845 102.139H454.845ZM454.845 81.8V79.8L452.845 81.8H454.845ZM467.014 81.8H469.014L467.014 79.8V81.8ZM467.014 106.525L468.394 107.973L469.014 106.525H467.014ZM449.771 122.951L448.392 121.503L447.771 122.951H449.771ZM449.771 142V144L451.771 142H449.771ZM443.063 136.754H441.063L443.063 138.754V136.754ZM444.267 136.754V138.754L446.267 136.754H444.267ZM444.267 120.887L442.895 119.432L442.267 120.887H444.267ZM461.51 104.633L462.882 106.088L463.51 104.633H461.51ZM461.51 87.132H463.51L461.51 85.132V87.132ZM460.306 87.132V85.132L458.306 87.132H460.306ZM460.306 104.289L461.678 105.744L462.306 104.289H460.306ZM443.794 119.855V121.855L445.166 121.31L443.794 119.855ZM443.536 119.855L442.164 121.31L443.536 121.855V119.855ZM427.024 104.289H425.024L425.652 105.744L427.024 104.289ZM427.024 87.132H429.024L427.024 85.132V87.132ZM425.82 87.132V85.132L423.82 87.132H425.82ZM425.82 104.633H423.82L424.448 106.088L425.82 104.633ZM443.063 120.887H445.063L444.435 119.432L443.063 120.887ZM439.602 142V122.951H435.602V142H439.602ZM438.983 121.505L421.783 105.079L419.021 107.971L436.221 124.397L438.983 121.505ZM422.402 106.525V81.8H418.402V106.525H422.402ZM420.402 83.8H432.571V79.8H420.402V83.8ZM430.571 81.8V102.139H434.571V81.8H430.571ZM431.198 103.593L442.722 114.472L445.468 111.564L433.944 100.685L431.198 103.593ZM444.095 111.018H443.278V115.018H444.095V111.018ZM444.648 114.475L456.215 103.596L453.475 100.682L441.908 111.561L444.648 114.475ZM456.845 102.139V81.8H452.845V102.139H456.845ZM454.845 83.8H467.014V79.8H454.845V83.8ZM465.014 81.8V106.525H469.014V81.8H465.014ZM465.635 105.077L448.392 121.503L451.151 124.399L468.394 107.973L465.635 105.077ZM447.771 122.951V142H451.771V122.951H447.771ZM449.771 140H437.602V144H449.771V140ZM443.063 138.754H444.267V134.754H443.063V138.754ZM446.267 136.754V120.887H442.267V136.754H446.267ZM445.639 122.342L462.882 106.088L460.138 103.178L442.895 119.432L445.639 122.342ZM463.51 104.633V87.132H459.51V104.633H463.51ZM461.51 85.132H460.306V89.132H461.51V85.132ZM458.306 87.132V104.289H462.306V87.132H458.306ZM458.934 102.834L442.422 118.4L445.166 121.31L461.678 105.744L458.934 102.834ZM443.794 117.855H443.536V121.855H443.794V117.855ZM444.908 118.4L428.396 102.834L425.652 105.744L442.164 121.31L444.908 118.4ZM429.024 104.289V87.132H425.024V104.289H429.024ZM427.024 85.132H425.82V89.132H427.024V85.132ZM423.82 87.132V104.633H427.82V87.132H423.82ZM424.448 106.088L441.691 122.342L444.435 119.432L427.192 103.178L424.448 106.088ZM441.063 120.887V136.754H445.063V120.887H441.063Z" fill="black" mask="url(#path-6-outside-2_56_57)"/>
<path d="M143 23H37.9577L27 50.5294H133.176L143 23Z" fill="#4EAEEF"/>
<path d="M97.658 58.1765H71.2085V153L97.658 144.206V58.1765Z" fill="#4EAEEF"/>
<path d="M143 23H37.9577L27 50.5294H133.176L143 23Z" stroke="black" stroke-width="3"/>
<path d="M97.658 58.1765H71.2085V153L97.658 144.206V58.1765Z" stroke="black" stroke-width="3"/>
</svg>
