<svg width="504" height="78" viewBox="0 0 504 78" fill="none" xmlns="http://www.w3.org/2000/svg">
<path d="M0.61625 3.696V0.815998H60.2323V3.696H0.61625ZM0.61625 10.032V7.152H60.2323V10.032H0.61625ZM0.61625 16.368V13.488H60.2323V16.368H0.61625ZM35.3683 78V19.44H38.2483V78H35.3683ZM22.6963 78V19.44H25.5763V78H22.6963ZM29.0323 78V19.44H31.9123V78H29.0323ZM78.6283 78V0.815998H81.5083V78H78.6283ZM65.9563 78V0.815998H68.8363V78H65.9563ZM72.2923 78V0.815998H75.1723V78H72.2923ZM84.9643 45.744V42.864H107.524C111.172 42.864 114.468 42.064 117.412 40.464C120.42 38.864 122.788 36.592 124.516 33.648C126.308 30.704 127.204 27.248 127.204 23.28C127.204 19.312 126.308 15.856 124.516 12.912C122.788 9.968 120.42 7.696 117.412 6.096C114.468 4.496 111.172 3.696 107.524 3.696H84.9643V0.815998H107.524C111.684 0.815998 115.46 1.776 118.852 3.696C122.308 5.55199 125.028 8.17599 127.012 11.568C129.06 14.896 130.084 18.8 130.084 23.28C130.084 27.76 129.06 31.696 127.012 35.088C125.028 38.416 122.308 41.04 118.852 42.96C115.46 44.816 111.684 45.744 107.524 45.744H84.9643ZM84.9643 39.408V36.528H107.524C111.236 36.528 114.372 35.376 116.932 33.072C119.556 30.704 120.868 27.44 120.868 23.28C120.868 19.12 119.556 15.888 116.932 13.584C114.372 11.216 111.236 10.032 107.524 10.032H84.9643V7.152H107.524C110.532 7.152 113.252 7.824 115.684 9.168C118.116 10.448 120.068 12.304 121.54 14.736C123.012 17.104 123.748 19.952 123.748 23.28C123.748 26.608 123.012 29.488 121.54 31.92C120.068 34.288 118.116 36.144 115.684 37.488C113.252 38.768 110.532 39.408 107.524 39.408H84.9643ZM84.9643 33.072V30.192H107.524C109.444 30.192 111.076 29.648 112.42 28.56C113.828 27.408 114.532 25.648 114.532 23.28C114.532 20.848 113.828 19.088 112.42 18C111.076 16.912 109.444 16.368 107.524 16.368H84.9643V13.488H107.524C110.276 13.488 112.612 14.32 114.532 15.984C116.452 17.648 117.412 20.08 117.412 23.28C117.412 26.48 116.452 28.912 114.532 30.576C112.612 32.24 110.276 33.072 107.524 33.072H84.9643ZM126.148 78L112.612 48.336C113.06 48.272 113.508 48.208 113.956 48.144C114.468 48.016 114.948 47.856 115.396 47.664L129.316 78H126.148ZM119.14 78L105.796 49.008C106.308 49.008 106.82 49.008 107.332 49.008C107.908 48.944 108.452 48.88 108.964 48.816L122.308 78H119.14ZM112.132 78L98.8843 49.104H102.052L115.3 78H112.132ZM150.16 78V0.815998H153.04V78H150.16ZM137.488 78V0.815998H140.368V78H137.488ZM143.824 78V0.815998H146.704V78H143.824ZM226.549 78V0.815998H229.429V78H226.549ZM213.877 78V0.815998H216.757V78H213.877ZM220.213 78V0.815998H223.093V78H220.213ZM175.285 78V0.815998H178.165V78H175.285ZM162.613 78V0.815998H165.493V78H162.613ZM168.949 78V0.815998H171.829V78H168.949ZM210.421 51.408L181.621 10.032V4.944L210.421 46.32V51.408ZM210.421 62.544L181.621 21.168V16.08L210.421 57.456V62.544ZM210.421 73.68L181.621 32.304V27.216L210.421 68.592V73.68ZM251.691 78V0.815998H254.571V78H251.691ZM239.019 78V0.815998H241.899V78H239.019ZM245.355 78V0.815998H248.235V78H245.355ZM260.304 3.696V0.815998H319.92V3.696H260.304ZM260.304 10.032V7.152H319.92V10.032H260.304ZM260.304 16.368V13.488H319.92V16.368H260.304ZM295.056 78V19.44H297.936V78H295.056ZM282.384 78V19.44H285.264V78H282.384ZM288.72 78V19.44H291.6V78H288.72ZM363.191 41.616L336.599 0.815998H340.055L366.743 41.616H363.191ZM348.023 41.616L321.431 0.815998H324.887L351.479 41.616H348.023ZM355.703 41.616L329.015 0.815998H332.471L359.063 41.616H355.703ZM361.079 26.544L359.255 23.856L374.615 0.815998H378.071L361.079 26.544ZM364.919 32.496L363.191 29.712L382.199 0.815998H385.655L364.919 32.496ZM368.759 38.352L366.935 35.664L389.783 0.815998H393.239L368.759 38.352ZM362.231 78V45.168H365.111V78H362.231ZM349.559 78V45.168H352.439V78H349.559ZM355.895 78V45.168H358.775V78H355.895ZM438.535 78V0.815998H441.415V78H438.535ZM425.863 78V0.815998H428.743V78H425.863ZM432.199 78V0.815998H435.079V78H432.199ZM500.647 78V0.815998H503.527V78H500.647ZM487.975 78V0.815998H490.855V78H487.975ZM494.311 78V0.815998H497.191V78H494.311ZM468.295 33.456L466.567 30.864L484.519 4.848V9.936L468.295 33.456ZM472.135 50.064L444.871 11.088V6.192L473.958 47.568L472.135 50.064ZM472.231 39.024L470.503 36.432L484.519 16.464V21.456L472.231 39.024ZM468.295 55.728L444.871 22.32V17.232L470.023 53.136L468.295 55.728ZM476.071 44.496L474.343 42L484.519 27.504V32.496L476.071 44.496ZM464.455 61.2L444.871 33.36V28.272L466.183 58.704L464.455 61.2Z" fill="url(#paint0_linear_50_21)"/>
<defs>
<linearGradient id="paint0_linear_50_21" x1="-35" y1="59" x2="543" y2="59" gradientUnits="userSpaceOnUse">
<stop stop-color="#58E1FF"/>
<stop offset="1" stop-color="#F155FE"/>
</linearGradient>
</defs>
</svg>
