<svg width="48" height="48" viewBox="0 0 48 48" fill="none" xmlns="http://www.w3.org/2000/svg">
<g clip-path="url(#clip0_867_4762)">
<path d="M24.0001 25.9338C21.7588 25.9338 19.9419 24.1258 19.9419 21.8956C19.9419 19.6654 21.7588 17.8574 24.0001 17.8574C26.2414 17.8574 28.0583 19.6654 28.0583 21.8956C28.0583 24.1258 26.2414 25.9338 24.0001 25.9338Z" stroke="#404252" stroke-width="1.5" stroke-miterlimit="10"/>
<path d="M14.7756 29.8412C17.399 27.4871 20.6218 25.9336 24.0054 25.9336C27.389 25.9336 30.8801 27.6059 33.2107 29.8412C31.3181 33.0125 27.9605 34.9173 24.0055 34.9173C20.0504 34.9173 16.6928 32.9 14.7756 29.8412Z" stroke="#404252" stroke-width="1.5" stroke-miterlimit="10"/>
<path d="M24.0005 34.9173C17.9714 34.9173 13.0838 30.0294 13.0838 24C13.0838 17.9706 17.9714 13.0828 24.0005 13.0828C30.0297 13.0828 34.9172 17.9706 34.9172 24C34.9172 30.0294 30.0297 34.9173 24.0005 34.9173Z" stroke="#404252" stroke-width="1.5" stroke-miterlimit="10"/>
</g>
<defs>
<clipPath id="clip0_867_4762">
<rect width="24" height="24" fill="white" transform="matrix(-1 0 0 1 36 12)"/>
</clipPath>
</defs>
</svg>
