<svg width="24" height="24" viewBox="0 0 24 24" fill="none" xmlns="http://www.w3.org/2000/svg">
<path d="M7.29531 9.72469H17.1253C18.8153 9.72469 20.0553 10.9047 20.0553 12.2247V18.1947C20.0553 19.5147 18.8053 20.6947 17.1253 20.6947H6.87531C5.18531 20.6947 3.94531 19.5147 3.94531 18.1947V12.2247C3.94531 10.9047 5.19531 9.72469 6.87531 9.72469H7.29531ZM16.1953 9.72469H7.79531V6.91469C7.79531 4.98469 9.61531 3.30469 11.9953 3.30469C14.3753 3.30469 16.1953 4.98469 16.1953 6.91469V9.72469Z" stroke="#101223"/>
<path fill-rule="evenodd" clip-rule="evenodd" d="M12.4415 15.7329C13.0509 15.5447 13.4936 14.977 13.4936 14.3058C13.4936 13.4811 12.825 12.8125 12.0002 12.8125C11.1754 12.8125 10.5068 13.4811 10.5068 14.3058C10.5068 14.9771 10.9497 15.5449 11.5592 15.733V17.6059H12.4415V15.7329Z" fill="#101223"/>
</svg>
