<svg width="80" height="80" viewBox="0 0 80 80" fill="none" xmlns="http://www.w3.org/2000/svg">
<g clip-path="url(#clip0_2525_64659)">
<path d="M74.75 36.1673C69.8611 31.5007 64.5139 27.7784 58.7083 25.0007C52.9028 22.2229 46.6667 20.834 40 20.834C37.9444 20.834 35.9722 20.959 34.0833 21.209C32.1944 21.459 30.6111 21.8062 29.3333 22.2507L23.25 16.1673C25.6944 15.2784 28.3472 14.584 31.2083 14.084C34.0694 13.584 37 13.334 40 13.334C47.7778 13.334 55.0972 14.9451 61.9583 18.1673C68.8195 21.3895 74.8333 25.6395 80 30.9173L74.75 36.1673ZM60.6667 50.2506C58.8333 48.4729 57.1667 47.0423 55.6667 45.959C54.1667 44.8756 52.25 43.8062 49.9167 42.7506L40.5 33.334C45.7778 33.4451 50.4306 34.5284 54.4583 36.584C58.4861 38.6395 62.3056 41.4451 65.9167 45.0006L60.6667 50.2506ZM67.0833 74.2506L34.25 41.4173C31.25 42.1395 28.4861 43.3062 25.9583 44.9173C23.4306 46.5284 21.2222 48.3062 19.3333 50.2506L14.0833 45.0006C16.1389 42.9451 18.2639 41.1395 20.4583 39.584C22.6528 38.0284 25.2778 36.6395 28.3333 35.4173L19.0833 26.1673C16.4722 27.4451 14 28.959 11.6667 30.709C9.33333 32.459 7.19444 34.2784 5.25 36.1673L0 30.9173C2 28.8618 4.13889 26.9451 6.41667 25.1673C8.69444 23.3895 11.0278 21.8618 13.4167 20.584L5.75 12.9173L9.33333 9.33398L70.6667 70.6673L67.0833 74.2506ZM40 70.9173L27.6667 58.5006C29.2778 56.8895 31.125 55.6256 33.2083 54.709C35.2917 53.7923 37.5556 53.334 40 53.334C42.4444 53.334 44.7083 53.7923 46.7917 54.709C48.875 55.6256 50.7222 56.8895 52.3333 58.5006L40 70.9173Z" fill="#777986"/>
</g>
<defs>
<clipPath id="clip0_2525_64659">
<rect width="80" height="80" fill="white"/>
</clipPath>
</defs>
</svg>
